<svg width="415" height="398" viewBox="0 0 415 398" fill="none" xmlns="http://www.w3.org/2000/svg">
<rect width="414.5" height="398" rx="30" fill="#FFEBE5"/>
<path fill-rule="evenodd" clip-rule="evenodd" d="M89.7383 203.399L117.415 265.636L173.471 129.5H120.155L89.7383 203.399Z" fill="#000099"/>
<path d="M136.804 269.499C164.31 269.499 186.609 247.201 186.609 219.695C186.609 192.189 164.31 169.891 136.804 169.891C109.298 169.891 87 192.189 87 219.695C87 247.201 109.298 269.499 136.804 269.499Z" fill="#28C1E5"/>
<path d="M202.609 199.5H209.609H216.609" stroke="#F24E29" stroke-width="5" stroke-linecap="round" stroke-linejoin="round"/>
<g clip-path="url(#clip0_675_26343)">
<path d="M311.262 257.451C328.686 240.027 328.686 211.778 311.262 194.354C293.839 176.93 265.589 176.93 248.166 194.354C230.742 211.778 230.742 240.027 248.166 257.451C265.589 274.874 293.839 274.874 311.262 257.451Z" fill="#28C1E5"/>
<path d="M311.255 203.646C328.678 186.222 328.678 157.973 311.255 140.549C293.831 123.126 265.581 123.126 248.158 140.549C230.734 157.973 230.734 186.222 248.158 203.646C265.581 221.07 293.831 221.07 311.255 203.646Z" fill="#000099"/>
</g>
<defs>
<clipPath id="clip0_675_26343">
<rect width="94" height="149" fill="white" transform="translate(232.609 125)"/>
</clipPath>
</defs>
</svg>
