<svg width="415" height="398" viewBox="0 0 415 398" fill="none" xmlns="http://www.w3.org/2000/svg">
<rect x="0.5" width="414.5" height="398" rx="30" fill="#E3FFF0"/>
<path fill-rule="evenodd" clip-rule="evenodd" d="M147.417 195.187L119.614 132.824L63.5156 269.235H116.939L147.417 195.187Z" fill="#F4863B"/>
<path d="M99.9044 229.044C127.466 229.044 149.809 206.7 149.809 179.139C149.809 151.577 127.466 129.234 99.9044 129.234C72.3429 129.234 50 151.577 50 179.139C50 206.7 72.3429 229.044 99.9044 229.044Z" fill="#000099"/>
<path d="M166.809 199.234H173.809H180.809" stroke="#2FF489" stroke-width="5" stroke-linecap="round" stroke-linejoin="round"/>
<path d="M261.809 129.062H211.922V269.411H261.809V129.062Z" fill="#28C1E5"/>
<path d="M261.809 129.062H197.809V171.118H261.809V129.062Z" fill="#000099"/>
<path d="M362.843 227.398H269.809V269.469H362.843V227.398Z" fill="#28C1E5"/>
<path d="M316.326 129H269.809V171.071H316.326V129Z" fill="#28C1E5"/>
<path fill-rule="evenodd" clip-rule="evenodd" d="M316.609 227.4C343.786 227.4 365.809 205.376 365.809 178.2C365.809 151.023 343.786 129 316.609 129V227.4Z" fill="#000099"/>
<path fill-rule="evenodd" clip-rule="evenodd" d="M316.608 178.27C290.561 179.54 269.879 201.07 269.879 227.399H316.608V178.27Z" fill="#F4863B"/>
</svg>
