<svg width="68" height="68" viewBox="0 0 68 68" fill="none" xmlns="http://www.w3.org/2000/svg">
<path d="M33.9974 0.666992C15.5974 0.666992 0.664062 15.6003 0.664062 34.0003C0.664062 52.4003 15.5974 67.3337 33.9974 67.3337C52.3974 67.3337 67.3307 52.4003 67.3307 34.0003C67.3307 15.6003 52.3974 0.666992 33.9974 0.666992ZM47.4307 35.767L37.4307 45.767C36.9307 46.267 36.2974 46.5003 35.6641 46.5003C35.0307 46.5003 34.3974 46.267 33.8974 45.767C32.9307 44.8003 32.9307 43.2003 33.8974 42.2337L39.6307 36.5003H22.3307C20.9641 36.5003 19.8307 35.367 19.8307 34.0003C19.8307 32.6337 20.9641 31.5003 22.3307 31.5003H39.6307L33.8974 25.767C32.9307 24.8003 32.9307 23.2003 33.8974 22.2337C34.8641 21.267 36.4641 21.267 37.4307 22.2337L47.4307 32.2337C48.3974 33.2003 48.3974 34.8003 47.4307 35.767Z" fill="#0F50A6"/>
</svg>
