<svg width="68" height="67" viewBox="0 0 68 67" fill="none" xmlns="http://www.w3.org/2000/svg">
<path d="M34.0013 66.832C15.6013 66.832 0.667969 51.8987 0.667969 33.4987C0.667969 15.0987 15.6013 0.165367 34.0013 0.165367C52.4013 0.165367 67.3346 15.0987 67.3346 33.4987C67.3346 51.8987 52.4013 66.832 34.0013 66.832ZM47.4346 31.732L37.4346 21.732C36.9346 21.232 36.3013 20.9987 35.668 20.9987C35.0346 20.9987 34.4013 21.232 33.9013 21.732C32.9346 22.6987 32.9346 24.2987 33.9013 25.2654L39.6346 30.9987H22.3346C20.968 30.9987 19.8346 32.132 19.8346 33.4987C19.8346 34.8654 20.968 35.9987 22.3346 35.9987H39.6346L33.9013 41.732C32.9346 42.6987 32.9346 44.2987 33.9013 45.2654C34.868 46.232 36.468 46.232 37.4346 45.2654L47.4346 35.2654C48.4013 34.2987 48.4013 32.6987 47.4346 31.732Z" fill="#F58539"/>
</svg>
