<svg width="64" height="64" viewBox="0 0 64 64" fill="none" xmlns="http://www.w3.org/2000/svg">
<path d="M33 53H29V58H33V53Z" fill="#274C77"/>
<path d="M33.6602 36.6797C41.9444 36.6797 48.6602 29.964 48.6602 21.6797C48.6602 13.3954 41.9444 6.67969 33.6602 6.67969C25.3759 6.67969 18.6602 13.3954 18.6602 21.6797C18.6602 29.964 25.3759 36.6797 33.6602 36.6797Z" fill="#A3CEF1"/>
<path d="M28.8281 49.0002V44.1602C30.1481 44.4502 31.4881 44.6202 32.8281 44.6602V49.0002" fill="#274C77"/>
<path d="M17.3991 5.41016C8.41906 14.3902 8.41906 28.9502 17.3991 37.9402C26.3791 46.9302 40.9391 46.9202 49.9291 37.9402L47.0991 35.1102C39.6791 42.5302 27.6491 42.5302 20.2291 35.1102C12.8091 27.6902 12.8091 15.6602 20.2291 8.24016" fill="#6096BA"/>
<path d="M33.8281 49H27.8281C26.7236 49 25.8281 49.8954 25.8281 51C25.8281 52.1046 26.7236 53 27.8281 53H33.8281C34.9327 53 35.8281 52.1046 35.8281 51C35.8281 49.8954 34.9327 49 33.8281 49Z" fill="#606C38"/>
<path d="M26.8281 58H34.8281C37.0381 58 38.8281 59.79 38.8281 62H22.8281C22.8281 59.79 24.6181 58 26.8281 58Z" fill="#606C38"/>
<path d="M19.6992 16.1998L32.2492 28.7498C33.0292 29.5298 34.0492 29.9198 35.0792 29.9198C36.1092 29.9198 37.1292 29.5198 37.9092 28.7498C39.4692 27.1898 39.4692 24.6598 37.9092 23.0898L32.9592 18.1398C32.3692 17.5498 32.0792 16.7798 32.0792 16.0198C32.0792 15.2598 32.3692 14.4898 32.9592 13.8998C34.1292 12.7298 36.0292 12.7298 37.1992 13.8998L37.9092 14.6098C38.6892 15.3898 39.9592 15.3898 40.7392 14.6098L44.2792 11.0698C38.4192 5.2098 28.9192 5.2098 23.0692 11.0698C21.5592 12.5798 20.4392 14.3298 19.7092 16.1998H19.6992Z" fill="#606C38"/>
<path d="M26.2714 8.62012C25.1214 9.27012 24.0414 10.0901 23.0614 11.0701L17.4014 5.41012C16.6214 4.63012 16.6214 3.36012 17.4014 2.58012C18.1814 1.80012 19.4514 1.80012 20.2314 2.58012L26.2714 8.62012Z" fill="#274C77"/>
<path d="M46.7195 29.0703C46.0595 30.2203 45.2495 31.3003 44.2695 32.2803L49.9295 37.9403C50.3195 38.3303 50.8295 38.5303 51.3395 38.5203C51.8595 38.5203 52.3695 38.3303 52.7495 37.9403C53.5295 37.1603 53.5295 35.8903 52.7495 35.1103L46.7095 29.0703H46.7195Z" fill="#274C77"/>
<path d="M47.9402 28.8804C50.9602 22.8804 49.9802 15.3604 44.9802 10.3604C39.9802 5.36043 32.4602 4.38043 26.4602 7.40043L20.9302 1.88043C19.7602 0.71043 17.8602 0.71043 16.6902 1.88043C15.7702 2.81043 15.5902 4.19043 16.1202 5.30043C11.9502 9.76043 9.66016 15.5404 9.66016 21.6804C9.66016 27.8204 12.1602 34.1204 16.6902 38.6504C19.8102 41.7704 23.6502 43.9304 27.8302 44.9704V48.0104C26.1802 48.0104 24.8302 49.3604 24.8302 51.0104C24.8302 52.6604 26.1802 54.0104 27.8302 54.0104V57.0104H26.8302C24.0702 57.0104 21.8302 59.2504 21.8302 62.0104C21.8302 62.5604 22.2802 63.0104 22.8302 63.0104H38.8302C39.3802 63.0104 39.8302 62.5604 39.8302 62.0104C39.8302 59.2504 37.5902 57.0104 34.8302 57.0104H33.8302V54.0104C35.4802 54.0104 36.8302 52.6604 36.8302 51.0104C36.8302 49.3604 35.4802 48.0104 33.8302 48.0104V45.6804C39.9002 45.6404 45.6202 43.3504 50.0302 39.2204C50.4202 39.4104 50.8502 39.5204 51.2802 39.5204H51.3202C52.1602 39.5404 52.8802 39.2204 53.4502 38.6504C54.0202 38.0804 54.3302 37.3304 54.3302 36.5304C54.3302 35.7304 54.0202 34.9704 53.4502 34.4104L47.9302 28.8904L47.9402 28.8804ZM43.5602 31.5804C38.1002 37.0404 29.2202 37.0404 23.7602 31.5804C20.1102 27.9304 18.9102 22.7404 20.1502 18.0704L31.5402 29.4604C32.4802 30.4004 33.7302 30.9204 35.0802 30.9304C36.4202 30.9304 37.6702 30.4004 38.6102 29.4604C40.5602 27.5104 40.5602 24.3404 38.6102 22.3904L33.6602 17.4404C33.2802 17.0604 33.0802 16.5604 33.0802 16.0304C33.0802 15.5004 33.2902 14.9904 33.6602 14.6204C34.4402 13.8404 35.7102 13.8404 36.4902 14.6204L37.2002 15.3304C38.3302 16.4604 40.3102 16.4604 41.4402 15.3304L44.2302 12.5404C48.9902 18.0304 48.7802 26.3804 43.5602 31.6004V31.5804ZM44.2302 33.6704L45.6402 35.0804C38.5802 41.4004 27.7102 41.1904 20.9302 34.4104C14.1502 27.6304 13.9402 16.7604 20.2602 9.70043L21.6702 11.1104C16.1302 17.3904 16.3402 27.0004 22.3402 32.9904C25.4602 36.1104 29.5602 37.6704 33.6502 37.6704C37.4302 37.6704 41.2102 36.3204 44.2202 33.6604L44.2302 33.6704ZM33.6602 7.68043C36.9302 7.68043 40.2002 8.83043 42.8202 11.1004L40.0302 13.8904C39.6502 14.2604 38.9902 14.2604 38.6202 13.8904L37.9102 13.1804C36.3502 11.6204 33.8102 11.6204 32.2502 13.1804C31.5002 13.9304 31.0802 14.9404 31.0802 16.0104C31.0802 17.0804 31.5002 18.0804 32.2502 18.8404L37.2002 23.7904C38.3702 24.9604 38.3702 26.8604 37.2002 28.0304C36.6402 28.5904 35.8802 28.9104 35.0802 28.9104C34.2702 28.9104 33.5102 28.5904 32.9502 28.0304L20.8902 15.9704C21.5702 14.4504 22.5102 13.0204 23.7602 11.7704C26.4902 9.04043 30.0702 7.68043 33.6602 7.68043ZM18.1102 3.29043C18.5002 2.90043 19.1302 2.90043 19.5302 3.29043L24.6902 8.45043C24.1402 8.82043 23.6102 9.24043 23.1102 9.69043L18.1202 4.70043C17.7302 4.31043 17.7302 3.67043 18.1202 3.29043H18.1102ZM34.8402 59.0004C36.1402 59.0004 37.2602 59.8404 37.6702 61.0004H24.0102C24.4202 59.8404 25.5402 59.0004 26.8402 59.0004H34.8402ZM29.8402 57.0004V54.0004H31.8402V57.0004H29.8402ZM33.8402 50.0004C34.3902 50.0004 34.8402 50.4504 34.8402 51.0004C34.8402 51.5504 34.3902 52.0004 33.8402 52.0004H27.8402C27.2902 52.0004 26.8402 51.5504 26.8402 51.0004C26.8402 50.4504 27.2902 50.0004 27.8402 50.0004H33.8402ZM29.8402 48.0004V45.3704C30.5002 45.4804 31.1702 45.5504 31.8402 45.6004V48.0004H29.8402ZM18.1202 37.2304C9.78016 28.8904 9.57016 15.4804 17.4502 6.86043L18.8602 8.27043C11.7602 16.1104 11.9702 28.2504 19.5302 35.8104C23.4302 39.7104 28.5502 41.6604 33.6702 41.6604C38.4802 41.6604 43.2702 39.9204 47.0702 36.4804L48.4802 37.8904C39.8602 45.7704 26.4502 45.5604 18.1102 37.2204L18.1202 37.2304ZM52.0602 37.2304C51.8702 37.4204 51.6302 37.5204 51.3502 37.5204C51.3502 37.5204 51.3302 37.5204 51.3202 37.5204C51.0702 37.5204 50.8202 37.4204 50.6402 37.2304L45.6502 32.2404C46.1002 31.7304 46.5202 31.2004 46.8902 30.6504L52.0502 35.8104C52.2402 36.0004 52.3402 36.2504 52.3402 36.5204C52.3402 36.7904 52.2402 37.0404 52.0502 37.2304H52.0602Z" fill="black"/>
</svg>
