<svg width="172" height="220" viewBox="0 0 172 220" fill="none" xmlns="http://www.w3.org/2000/svg">
<path d="M171.968 219.374C164.53 193.299 139.243 172.08 106.955 165.08V165.43C106.955 174.18 99.868 181.224 91.1617 181.224H80.8805C72.1305 181.224 65.0867 174.136 65.0867 165.43V165.08C32.7555 172.08 7.51172 193.299 0.0742188 219.374H171.968Z" fill="#FBB03B"/>
<path d="M91.1609 181.266H80.8797C72.1297 181.266 65.0859 174.179 65.0859 165.473V142.548C65.0859 133.798 72.1734 126.754 80.8797 126.754H91.1609C99.9109 126.754 106.955 133.841 106.955 142.548V165.473C106.955 174.179 99.8672 181.266 91.1609 181.266Z" fill="#EDBB98"/>
<path d="M147.95 103.216C155.038 53.2531 140.994 38.7719 109.931 26.0844C114.481 21.4469 115.094 9.10938 113.956 8.71562C111.244 19.5219 103.675 23.9406 102.363 23.5469C105.119 11.1219 103.369 0.884375 101.838 0.578125C100.525 15.3656 94.8377 21.8844 93.7877 21.7094C97.9439 13.5281 96.7627 5.43437 96.7627 5.43437C91.2502 18.6906 87.0502 21.8406 85.1252 21.8844C88.2314 19.2156 88.8877 12.5219 87.5314 10.5094C84.1189 19.8719 77.6877 22.4531 76.3314 22.6719C48.8564 26.8719 14.7752 48.2656 23.9627 103.216C23.9627 103.216 72.8314 147.578 85.2564 119.359L102.625 112.578C115.006 140.797 147.95 103.216 147.95 103.216Z" fill="#3F2820"/>
<path d="M133.105 119.612C139.244 120.946 145.718 115.137 147.566 106.637C149.413 98.1369 145.934 90.1645 139.795 88.8301C133.656 87.4958 127.182 93.3048 125.334 101.805C123.487 110.305 126.966 118.278 133.105 119.612Z" fill="#F4C5A2"/>
<path d="M32.1938 88.8491C26.0547 90.1834 22.5758 98.1559 24.4234 106.656C26.271 115.156 32.7453 120.965 38.8844 119.631C45.0234 118.297 48.5023 110.324 46.6547 101.824C44.8071 93.3238 38.3328 87.5148 32.1938 88.8491Z" fill="#F4C5A2"/>
<path d="M86.132 159.347C113.17 159.347 135.088 133.766 135.088 102.21C135.088 70.6536 113.17 45.0723 86.132 45.0723C59.0942 45.0723 37.1758 70.6536 37.1758 102.21C37.1758 133.766 59.0942 159.347 86.132 159.347Z" fill="#F4C5A2"/>
<path d="M127.825 57.3656L114.263 47.0406C114.394 46.9094 114.481 46.7781 114.612 46.6469V31.8594H52.2687C52.0062 32.6031 51.7437 33.3469 51.525 34.1781C51.525 34.1781 51.2188 40.4344 58.0438 47.1281L44.525 57.4094L38.3125 87.1594L39.8438 102.822L43.9125 103.653C43.6938 93.5031 47.15 88.9969 47.15 88.9969C51.6125 83.7031 54.325 69.3531 54.325 69.3531C56.425 61.2594 64.9562 55.5719 64.9562 55.5719L66.7062 53.2531C72.3062 55.9219 91.5563 63.7531 106.431 54.2594L107.438 55.6156C107.438 55.6156 115.969 61.3031 118.069 69.3969C118.069 69.3969 120.781 83.7469 125.244 89.0406C125.244 89.0406 128.7 93.5469 128.481 103.697L132.55 102.866L134.081 87.2031L127.825 57.3656Z" fill="#3F2820"/>
</svg>
