<svg width="157" height="156" viewBox="0 0 157 156" fill="none" xmlns="http://www.w3.org/2000/svg">
<path d="M109.591 104.325C124.703 85.3125 132.016 69.7125 132.016 58.5C132.016 28.7625 108.128 4.875 78.3906 4.875C48.6531 4.875 24.7656 28.7625 24.7656 58.5C24.7656 70.2 32.0781 85.3125 47.1906 104.325C31.1031 106.762 5.26562 112.613 5.26562 126.75C5.26562 143.325 43.2906 151.125 78.3906 151.125C113.491 151.125 151.516 143.325 151.516 126.75C151.516 112.613 125.678 106.762 109.591 104.325Z" fill="#0F50A6"/>
<path d="M109.591 104.324C108.128 106.762 106.178 108.712 104.228 111.149C103.741 111.637 103.253 112.612 102.766 113.099C98.8656 117.487 95.4531 121.387 92.5281 124.312C92.0406 124.799 91.5531 125.774 91.0656 126.262C90.5781 126.262 90.5781 126.749 90.0906 126.749C88.1406 128.699 86.6781 130.649 85.2156 131.624C84.7281 132.112 84.7281 132.599 84.2406 132.599C83.2656 133.574 83.2656 133.574 83.2656 134.062C82.7781 134.549 82.2906 135.037 82.2906 135.037C80.8281 136.012 79.8531 136.499 78.3906 136.499C76.9281 136.499 75.9531 136.012 74.9781 135.037C74.9781 135.037 74.4906 134.549 74.0031 134.062C74.0031 134.062 73.5156 133.574 73.0281 133.087C72.5406 132.599 72.5406 132.599 72.0531 132.112C70.5906 130.649 69.1281 129.187 67.1781 127.237C67.1781 127.237 66.6906 126.749 66.2031 126.749C65.7156 126.262 65.2281 125.774 64.7406 124.799C61.8156 121.387 58.4031 117.974 54.5031 113.587C54.0156 113.099 53.5281 112.124 53.0406 111.637C51.0906 109.199 49.1406 106.762 47.1906 104.812C31.1031 106.762 5.26562 112.612 5.26562 126.749C5.26562 143.324 43.2906 151.124 78.3906 151.124C113.491 151.124 151.516 143.324 151.516 126.749C151.516 112.612 125.678 106.762 109.591 104.324Z" fill="#F58539"/>
<path d="M78.3906 24.375C62.3031 24.375 49.1406 37.5375 49.1406 53.625C49.1406 69.7125 62.3031 82.875 78.3906 82.875C94.4781 82.875 107.641 69.7125 107.641 53.625C107.641 37.5375 94.4781 24.375 78.3906 24.375Z" fill="#F58539"/>
</svg>
