<svg width="41" height="40" viewBox="0 0 41 40" fill="none" xmlns="http://www.w3.org/2000/svg">
<rect x="1" y="0.5" width="39" height="39" rx="9.5" fill="white"/>
<rect x="1" y="0.5" width="39" height="39" rx="9.5" stroke="#CDCED7"/>
<g clip-path="url(#clip0_157_9177)">
<path d="M12.517 25.841C12.6727 25.9973 12.792 26.186 12.8664 26.3937C12.9408 26.6014 12.9685 26.8229 12.9475 27.0425C12.8421 28.0589 12.6422 29.0632 12.3505 30.0425C14.443 29.558 15.721 28.997 16.3015 28.703C16.6308 28.5362 17.0099 28.4967 17.3665 28.592C18.3887 28.8645 19.4421 29.0017 20.5 29C26.494 29 31 24.7895 31 20C31 15.212 26.494 11 20.5 11C14.506 11 10 15.212 10 20C10 22.202 10.9255 24.245 12.517 25.841ZM11.7775 31.6985C11.4221 31.769 11.0656 31.8335 10.708 31.892C10.408 31.94 10.18 31.628 10.2985 31.349C10.4317 31.0349 10.5538 30.7162 10.6645 30.3935L10.669 30.3785C11.041 29.2985 11.344 28.0565 11.455 26.9C9.6145 25.055 8.5 22.64 8.5 20C8.5 14.201 13.873 9.5 20.5 9.5C27.127 9.5 32.5 14.201 32.5 20C32.5 25.799 27.127 30.5 20.5 30.5C19.3115 30.5016 18.1279 30.3473 16.9795 30.041C16.1995 30.4355 14.521 31.154 11.7775 31.6985Z" fill="black"/>
<path d="M19.099 18.14C18.8068 17.6849 18.3749 17.337 17.868 17.1486C17.3611 16.9601 16.8068 16.9412 16.2883 17.0948C15.7698 17.2483 15.3151 17.566 14.9927 18.0001C14.6702 18.4342 14.4973 18.9612 14.5 19.502C14.5003 19.9498 14.6208 20.3893 14.849 20.7746C15.0772 21.1599 15.4046 21.4769 15.7972 21.6924C16.1897 21.9079 16.6329 22.014 17.0805 21.9997C17.5281 21.9854 17.9636 21.8511 18.3415 21.611C18.145 22.1945 17.779 22.817 17.176 23.441C17.0607 23.5603 16.9974 23.7206 17.0002 23.8866C17.0016 23.9688 17.0192 24.0499 17.0519 24.1253C17.0847 24.2006 17.1319 24.2688 17.191 24.326C17.2501 24.3831 17.3199 24.428 17.3964 24.4582C17.4728 24.4883 17.5545 24.5032 17.6366 24.5018C17.8026 24.4989 17.9607 24.4303 18.076 24.311C20.305 22.001 20.0155 19.49 19.099 18.143V18.14ZM25.099 18.14C24.8068 17.6849 24.3749 17.337 23.868 17.1486C23.3612 16.9601 22.8068 16.9412 22.2883 17.0948C21.7698 17.2483 21.3151 17.566 20.9927 18.0001C20.6702 18.4342 20.4973 18.9612 20.5 19.502C20.5003 19.9498 20.6208 20.3893 20.849 20.7746C21.0772 21.1599 21.4046 21.4769 21.7972 21.6924C22.1897 21.9079 22.6329 22.014 23.0805 21.9997C23.5281 21.9854 23.9636 21.8511 24.3415 21.611C24.145 22.1945 23.779 22.817 23.176 23.441C23.1189 23.5001 23.074 23.5698 23.0438 23.6463C23.0137 23.7227 22.9988 23.8044 23.0002 23.8866C23.0016 23.9688 23.0192 24.0499 23.0519 24.1253C23.0847 24.2006 23.1319 24.2688 23.191 24.326C23.2501 24.3831 23.3199 24.428 23.3964 24.4582C23.4728 24.4883 23.5545 24.5032 23.6366 24.5018C23.7188 24.5004 23.7999 24.4828 23.8753 24.4501C23.9507 24.4173 24.0189 24.3701 24.076 24.311C26.305 22.001 26.0155 19.49 25.099 18.143V18.14Z" fill="black"/>
</g>
<defs>
<clipPath id="clip0_157_9177">
<rect width="24" height="24" fill="white" transform="translate(8.5 8)"/>
</clipPath>
</defs>
</svg>