<svg width="64" height="64" viewBox="0 0 64 64" fill="none" xmlns="http://www.w3.org/2000/svg">
<path d="M40.2286 38.79L22.1486 20.71L21.2386 22.63L34.2986 35.69C34.751 36.1435 35.0879 36.6991 35.2808 37.3099C35.4738 37.9208 35.5172 38.5691 35.4075 39.2002C35.2977 39.8313 35.038 40.4269 34.6501 40.9367C34.2622 41.4466 33.7576 41.8558 33.1786 42.13L23.5786 46.68C22.5084 47.1878 21.3395 47.4535 20.155 47.4582C18.9704 47.4629 17.7994 47.2064 16.7253 46.7071C15.6512 46.2077 14.7003 45.4777 13.9404 44.5691C13.1804 43.6605 12.6301 42.5955 12.3286 41.45L3.05859 61L43.3686 41.93L40.2286 38.79Z" fill="#CFF09E"/>
<path d="M41.2312 39.7898L29.9212 28.4798L19.7612 25.7598L16.2812 33.1098L41.2312 39.7898Z" fill="#79BD9A"/>
<path d="M34.3103 46.22L12.8003 40.46L9.32031 47.8L23.1403 51.51L34.3103 46.22Z" fill="#79BD9A"/>
<path d="M3.05859 61.0202L11.9686 56.8002L5.83859 55.1602L3.05859 61.0202Z" fill="#79BD9A"/>
<path d="M45.9995 43.15C46.0891 42.8133 46.0892 42.459 45.9997 42.1222C45.9103 41.7855 45.7344 41.4779 45.4895 41.23L22.8495 18.6C22.6016 18.3551 22.294 18.1793 21.9573 18.0898C21.6205 18.0003 21.2662 18.0004 20.9295 18.09C21.0068 17.7969 21.1467 17.524 21.3395 17.29C21.014 17.673 20.8445 18.1644 20.8649 18.6665C20.8853 19.1687 21.094 19.6448 21.4495 20L44.0695 42.63C44.4252 42.9883 44.9034 43.1988 45.4079 43.2192C45.9124 43.2396 46.4059 43.0684 46.7895 42.74C46.5585 42.9316 46.2891 43.0714 45.9995 43.15Z" fill="#CFF09E"/>
<path d="M59.61 4.46953L57.93 9.42953L61.06 13.6295L55.83 13.5595L52.8 17.8295L51.25 12.8295L46.25 11.2795L50.52 8.25953L50.45 3.01953L54.65 6.14953L59.61 4.46953Z" fill="#CFF09E"/>
<path d="M24.9983 16.4702C24.4296 15.9403 23.6774 15.6518 22.9002 15.6655C22.123 15.6792 21.3814 15.9941 20.8318 16.5437C20.2821 17.0934 19.9673 17.8349 19.9536 18.6121C19.9398 19.3893 20.2283 20.1415 20.7583 20.7102L20.9683 20.9202L18.2483 26.6602L15.3983 32.6602L4.96826 54.6602L2.15826 60.5902C2.09021 60.7416 2.06089 60.9075 2.07296 61.073C2.08503 61.2385 2.1381 61.3984 2.22739 61.5383C2.31668 61.6782 2.43938 61.7937 2.58443 61.8743C2.72948 61.9549 2.89232 61.9982 3.05826 62.0002C3.2075 62.0015 3.3549 61.9672 3.48826 61.9002L28.6483 50.0002L34.7283 47.1202L43.1483 43.1202L43.3583 43.3302C43.6329 43.625 43.9641 43.8614 44.3321 44.0253C44.7001 44.1893 45.0974 44.2775 45.5002 44.2846C45.903 44.2917 46.3031 44.2176 46.6767 44.0667C47.0502 43.9158 47.3895 43.6912 47.6744 43.4064C47.9593 43.1215 48.1839 42.7821 48.3348 42.4086C48.4856 42.035 48.5597 41.6349 48.5526 41.2321C48.5455 40.8293 48.4574 40.4321 48.2934 40.0641C48.1294 39.6961 47.893 39.3649 47.5983 39.0902L24.9983 16.4702ZM37.8883 37.8602L17.6983 32.4502L20.3083 26.9402L29.3983 29.3702L33.1583 33.1302L37.8883 37.8602ZM21.1783 25.1002L22.4483 22.4202L26.5683 26.5502L21.1783 25.1002ZM25.0783 49.4802L23.0783 50.4802L10.7783 47.1802L13.3883 41.6702L31.4583 46.5102L25.0783 49.4802ZM11.8783 55.7402L7.25826 54.5002L9.86826 49.0002L20.2483 51.7802L11.8783 55.7402ZM5.15826 58.9202L6.38826 56.3402L9.07826 57.0602L5.15826 58.9202ZM34.2083 45.1602L14.2083 39.8002L16.8183 34.2902L40.6983 40.6902L41.6483 41.6302L34.2083 45.1602ZM46.2083 41.9302C46.1153 42.0239 46.0047 42.0983 45.8828 42.1491C45.761 42.1999 45.6303 42.226 45.4983 42.226C45.3662 42.226 45.2355 42.1999 45.1137 42.1491C44.9918 42.0983 44.8812 42.0239 44.7883 41.9302L44.0783 41.2202L33.4683 30.6102L22.1483 19.3002C22.0545 19.2072 21.9801 19.0966 21.9294 18.9748C21.8786 18.8529 21.8525 18.7222 21.8525 18.5902C21.8525 18.4582 21.8786 18.3275 21.9294 18.2056C21.9801 18.0838 22.0545 17.9732 22.1483 17.8802C22.2412 17.7865 22.3518 17.7121 22.4737 17.6613C22.5955 17.6105 22.7262 17.5844 22.8583 17.5844C22.9903 17.5844 23.121 17.6105 23.2428 17.6613C23.3647 17.7121 23.4753 17.7865 23.5683 17.8802L46.1983 40.5102C46.292 40.6032 46.3664 40.7138 46.4172 40.8356C46.4679 40.9575 46.4941 41.0882 46.4941 41.2202C46.4941 41.3522 46.4679 41.4829 46.4172 41.6048C46.3664 41.7266 46.292 41.8372 46.1983 41.9302H46.2083Z" fill="#3B8686"/>
<path d="M45.9986 12.2302L50.4986 13.6302L51.8986 18.1302C51.9543 18.3084 52.0587 18.4675 52.2001 18.5895C52.3415 18.7114 52.5142 18.7913 52.6986 18.8202H52.8486C53.009 18.8211 53.1672 18.7834 53.3099 18.7103C53.4526 18.6372 53.5756 18.5308 53.6686 18.4002L56.3886 14.5602H61.0986C61.2856 14.5713 61.4715 14.5257 61.6321 14.4293C61.7927 14.333 61.9204 14.1904 61.9986 14.0202C62.07 13.8535 62.0946 13.6705 62.07 13.4908C62.0453 13.3111 61.9723 13.1416 61.8586 13.0002L59.0486 9.25021L60.5586 4.79021C60.6192 4.61321 60.629 4.42275 60.5867 4.24049C60.5445 4.05824 60.4519 3.89148 60.3196 3.75919C60.1874 3.6269 60.0206 3.53437 59.8383 3.49212C59.6561 3.44988 59.4656 3.45961 59.2886 3.52021L54.8286 5.00021L51.0486 2.22021C50.9014 2.11253 50.7276 2.04717 50.5459 2.03119C50.3642 2.01521 50.1816 2.04923 50.0178 2.12955C49.8541 2.20988 49.7154 2.33347 49.6169 2.48693C49.5183 2.64039 49.4636 2.81789 49.4586 3.00021L49.5186 7.71021L45.6686 10.4302C45.5082 10.5392 45.3829 10.6924 45.308 10.8713C45.2331 11.0502 45.2119 11.247 45.2469 11.4378C45.2818 11.6285 45.3715 11.805 45.505 11.9457C45.6385 12.0864 45.81 12.1852 45.9986 12.2302ZM51.0986 9.07021C51.2306 8.97624 51.3378 8.8516 51.411 8.70702C51.4842 8.56243 51.5211 8.40223 51.5186 8.24021V5.03021L54.0486 7.00021C54.1861 7.09481 54.345 7.15351 54.5109 7.17098C54.6768 7.18845 54.8445 7.16412 54.9986 7.10021L57.9986 6.10021L56.9986 9.10021C56.947 9.25421 56.9337 9.41846 56.9599 9.57876C56.986 9.73905 57.0508 9.89057 57.1486 10.0202L59.0686 12.5902H55.8586C55.6925 12.5816 55.5268 12.6146 55.3767 12.6862C55.2265 12.7578 55.0966 12.8657 54.9986 13.0002L53.1486 15.6002L52.1986 12.5402C52.1506 12.3848 52.0654 12.2435 51.9504 12.1285C51.8353 12.0135 51.694 11.9283 51.5386 11.8802L48.4786 10.8802L51.0986 9.07021Z" fill="#3B8686"/>
<path d="M30.5617 18.5399C30.369 18.649 30.2181 18.819 30.1325 19.0233C30.0468 19.2275 30.0314 19.4543 30.0886 19.6682C30.1458 19.8821 30.2724 20.071 30.4485 20.2052C30.6246 20.3394 30.8403 20.4114 31.0617 20.4099C31.2369 20.4111 31.4093 20.3663 31.5617 20.2799C33.0405 19.4264 34.3367 18.29 35.3763 16.9355C36.4159 15.5811 37.1785 14.0351 37.6205 12.3859C38.0625 10.7366 38.1753 9.0165 37.9525 7.32367C37.7296 5.63085 37.1755 3.99851 36.3217 2.51987C36.2592 2.40037 36.1731 2.29474 36.0687 2.20935C35.9643 2.12396 35.8437 2.06057 35.7142 2.023C35.5847 1.98542 35.4489 1.97443 35.315 1.9907C35.1811 2.00696 35.0519 2.05014 34.9352 2.11763C34.8184 2.18512 34.7165 2.27554 34.6356 2.38344C34.5546 2.49134 34.4964 2.61449 34.4643 2.74549C34.4322 2.87648 34.427 3.01262 34.4489 3.1457C34.4707 3.27878 34.5193 3.40606 34.5917 3.51987C36.0481 6.04628 36.4417 9.04761 35.686 11.8641C34.9303 14.6806 33.0871 17.0818 30.5617 18.5399Z" fill="#3B8686"/>
<path d="M61.9314 29.1296C61.9975 29.0154 62.0404 28.8893 62.0576 28.7586C62.0748 28.6278 62.0659 28.4949 62.0315 28.3676C61.9971 28.2402 61.9379 28.1209 61.8572 28.0166C61.7765 27.9122 61.676 27.8249 61.5614 27.7596C60.0828 26.9058 58.4504 26.3516 56.7576 26.1288C55.0648 25.9059 53.3447 26.0187 51.6954 26.4608C50.0462 26.9028 48.5002 27.6654 47.1458 28.7049C45.7913 29.7445 44.6549 31.0407 43.8014 32.5196C43.6688 32.7503 43.6333 33.0243 43.7027 33.2812C43.7721 33.5381 43.9407 33.7569 44.1714 33.8896C44.4022 34.0222 44.6761 34.0577 44.933 33.9883C45.19 33.9189 45.4088 33.7503 45.5414 33.5196C47.0044 31.0046 49.4041 29.1717 52.2154 28.422C55.0267 27.6724 58.0204 28.067 60.5414 29.5196C60.6576 29.5881 60.7864 29.6324 60.9201 29.6498C61.0539 29.6673 61.1898 29.6575 61.3196 29.621C61.4495 29.5846 61.5706 29.5223 61.6757 29.4378C61.7809 29.3534 61.8678 29.2485 61.9314 29.1296Z" fill="#3B8686"/>
<path d="M38.3505 25.7297C38.4439 25.8224 38.5547 25.8957 38.6766 25.9455C38.7984 25.9953 38.9289 26.0205 39.0605 26.0197C39.1921 26.0205 39.3226 25.9953 39.4444 25.9455C39.5662 25.8957 39.677 25.8224 39.7705 25.7297L46.7705 18.7297C46.9588 18.5414 47.0646 18.286 47.0646 18.0197C47.0646 17.7534 46.9588 17.498 46.7705 17.3097C46.5822 17.1214 46.3268 17.0156 46.0605 17.0156C45.7942 17.0156 45.5388 17.1214 45.3505 17.3097L38.3505 24.3097C38.2568 24.4027 38.1824 24.5133 38.1316 24.6351C38.0808 24.757 38.0547 24.8877 38.0547 25.0197C38.0547 25.1517 38.0808 25.2824 38.1316 25.4043C38.1824 25.5262 38.2568 25.6368 38.3505 25.7297Z" fill="#3B8686"/>
<path d="M27.6898 15.0002C27.8076 15.0468 27.9331 15.0705 28.0598 15.0702C28.26 15.0704 28.4558 15.0105 28.6216 14.8982C28.7874 14.7858 28.9157 14.6263 28.9898 14.4402L30.9898 9.44023C31.0384 9.31811 31.0624 9.1876 31.0606 9.05617C31.0587 8.92475 31.031 8.79497 30.979 8.67425C30.927 8.55354 30.8517 8.44425 30.7575 8.35262C30.6633 8.26099 30.5519 8.18882 30.4298 8.14024C30.3076 8.09165 30.1771 8.06759 30.0457 8.06943C29.9143 8.07128 29.7845 8.099 29.6638 8.151C29.5431 8.203 29.4338 8.27827 29.3421 8.3725C29.2505 8.46674 29.1784 8.57811 29.1298 8.70023L27.1298 13.7002C27.0811 13.8224 27.0569 13.9529 27.0587 14.0843C27.0605 14.2158 27.0882 14.3456 27.1402 14.4664C27.1922 14.5871 27.2675 14.6964 27.3618 14.788C27.4561 14.8796 27.5676 14.9517 27.6898 15.0002Z" fill="#3B8686"/>
<path d="M53.689 34.0899L48.689 36.0899C48.4841 36.1827 48.3165 36.3419 48.2132 36.5417C48.1099 36.7414 48.077 36.9702 48.1198 37.191C48.1626 37.4118 48.2785 37.6117 48.4489 37.7585C48.6193 37.9053 48.8343 37.9903 49.059 37.9999C49.1857 38.0018 49.3116 37.978 49.429 37.9299L54.429 35.9299C54.6756 35.8318 54.8732 35.6397 54.9782 35.3959C55.0832 35.1521 55.0871 34.8766 54.989 34.6299C54.8908 34.3833 54.6987 34.1857 54.4549 34.0807C54.2111 33.9757 53.9356 33.9718 53.689 34.0699V34.0899Z" fill="#3B8686"/>
<path d="M58.0586 24C58.3238 24 58.5782 23.8946 58.7657 23.7071C58.9532 23.5196 59.0586 23.2652 59.0586 23V22H60.0586C60.3238 22 60.5782 21.8946 60.7657 21.7071C60.9532 21.5196 61.0586 21.2652 61.0586 21C61.0586 20.7348 60.9532 20.4804 60.7657 20.2929C60.5782 20.1054 60.3238 20 60.0586 20H59.0586V19C59.0586 18.7348 58.9532 18.4804 58.7657 18.2929C58.5782 18.1054 58.3238 18 58.0586 18C57.7934 18 57.539 18.1054 57.3515 18.2929C57.1639 18.4804 57.0586 18.7348 57.0586 19V20H56.0586C55.7934 20 55.539 20.1054 55.3515 20.2929C55.1639 20.4804 55.0586 20.7348 55.0586 21C55.0586 21.2652 55.1639 21.5196 55.3515 21.7071C55.539 21.8946 55.7934 22 56.0586 22H57.0586V23C57.0586 23.2652 57.1639 23.5196 57.3515 23.7071C57.539 23.8946 57.7934 24 58.0586 24Z" fill="#3B8686"/>
<path d="M40.5287 7.73011C40.7149 7.91485 40.9663 8.019 41.2287 8.02011C41.3603 8.02087 41.4908 7.99564 41.6126 7.94588C41.7344 7.89611 41.8452 7.82279 41.9387 7.73011L42.6487 7.00011L43.3487 7.71011C43.4421 7.80279 43.5529 7.87611 43.6748 7.92588C43.7966 7.97564 43.9271 8.00087 44.0587 8.00011C44.1903 8.00087 44.3208 7.97564 44.4426 7.92588C44.5644 7.87611 44.6752 7.80279 44.7687 7.71011C44.8624 7.61714 44.9368 7.50654 44.9876 7.38468C45.0383 7.26283 45.0645 7.13212 45.0645 7.00011C45.0645 6.8681 45.0383 6.73739 44.9876 6.61553C44.9368 6.49367 44.8624 6.38307 44.7687 6.29011L44.0587 5.58011L44.7687 4.88011C44.957 4.6918 45.0628 4.43641 45.0628 4.17011C45.0628 3.90381 44.957 3.64841 44.7687 3.46011C44.5804 3.2718 44.325 3.16602 44.0587 3.16602C43.7924 3.16602 43.537 3.2718 43.3487 3.46011L42.6487 4.17011L41.9387 3.46011C41.7513 3.27386 41.4979 3.16931 41.2337 3.16931C40.9695 3.16931 40.716 3.27386 40.5287 3.46011C40.435 3.55307 40.3606 3.66367 40.3098 3.78553C40.259 3.90739 40.2329 4.0381 40.2329 4.17011C40.2329 4.30212 40.259 4.43282 40.3098 4.55468C40.3606 4.67654 40.435 4.78714 40.5287 4.88011L41.2287 5.58011L40.5287 6.29011C40.4319 6.38339 40.3549 6.49523 40.3023 6.61894C40.2498 6.74265 40.2227 6.87569 40.2227 7.01011C40.2227 7.14453 40.2498 7.27757 40.3023 7.40128C40.3549 7.52499 40.4319 7.63682 40.5287 7.73011Z" fill="#3B8686"/>
<path d="M46.0601 24.0002C46.0529 24.1315 46.0716 24.263 46.1152 24.3871C46.1588 24.5112 46.2264 24.6255 46.3141 24.7234C46.4019 24.8214 46.508 24.9011 46.6266 24.9581C46.7452 25.015 46.8738 25.048 47.0051 25.0552C47.1364 25.0624 47.2679 25.0437 47.392 25.0002C47.5161 24.9566 47.6304 24.889 47.7283 24.8012C47.8263 24.7135 47.906 24.6073 47.9629 24.4887C48.0199 24.3702 48.0529 24.2415 48.0601 24.1102C48.0747 23.845 47.9833 23.5849 47.8061 23.387C47.6289 23.1892 47.3803 23.0698 47.1151 23.0552C46.8499 23.0406 46.5897 23.132 46.3919 23.3092C46.194 23.4864 46.0747 23.735 46.0601 24.0002Z" fill="#3B8686"/>
<path d="M41.0586 16.0195C41.6109 16.0195 42.0586 15.5718 42.0586 15.0195C42.0586 14.4672 41.6109 14.0195 41.0586 14.0195C40.5063 14.0195 40.0586 14.4672 40.0586 15.0195C40.0586 15.5718 40.5063 16.0195 41.0586 16.0195Z" fill="#3B8686"/>
<path d="M30.0586 5.01953C30.6109 5.01953 31.0586 4.57182 31.0586 4.01953C31.0586 3.46725 30.6109 3.01953 30.0586 3.01953C29.5063 3.01953 29.0586 3.46725 29.0586 4.01953C29.0586 4.57182 29.5063 5.01953 30.0586 5.01953Z" fill="#3B8686"/>
<path d="M61.0586 35.0195C61.6109 35.0195 62.0586 34.5718 62.0586 34.0195C62.0586 33.4672 61.6109 33.0195 61.0586 33.0195C60.5063 33.0195 60.0586 33.4672 60.0586 34.0195C60.0586 34.5718 60.5063 35.0195 61.0586 35.0195Z" fill="#3B8686"/>
<path d="M37.0586 22.0195C37.6109 22.0195 38.0586 21.5718 38.0586 21.0195C38.0586 20.4672 37.6109 20.0195 37.0586 20.0195C36.5063 20.0195 36.0586 20.4672 36.0586 21.0195C36.0586 21.5718 36.5063 22.0195 37.0586 22.0195Z" fill="#3B8686"/>
</svg>
