<svg width="64" height="64" viewBox="0 0 64 64" fill="none" xmlns="http://www.w3.org/2000/svg">
<path d="M53.865 14.9297H10.135C8.95587 14.9297 8 15.8856 8 17.0647V46.9397C8 48.1188 8.95587 49.0747 10.135 49.0747H53.865C55.0441 49.0747 56 48.1188 56 46.9397V17.0647C56 15.8856 55.0441 14.9297 53.865 14.9297Z" fill="#D2423F"/>
<path d="M8.47043 17.5298C8.47043 16.9635 8.69537 16.4205 9.09576 16.0201C9.49615 15.6197 10.0392 15.3948 10.6054 15.3948C57.8354 15.3948 54.7704 15.2098 55.6054 15.8098C54.6854 14.5498 57.3454 14.9298 10.1504 14.9298C9.86922 14.9278 9.59039 14.9814 9.32995 15.0875C9.06951 15.1936 8.8326 15.3501 8.63282 15.548C8.43304 15.7459 8.27433 15.9814 8.16581 16.2408C8.05728 16.5002 8.00108 16.7785 8.00043 17.0598C8.00043 49.3398 7.64543 47.7548 8.88043 48.6548C8.29043 47.8498 8.47043 49.9498 8.47043 17.5298Z" fill="#DD6966"/>
<path d="M53.865 14.9297H52.365C52.9304 14.9297 53.4727 15.1539 53.8729 15.5532C54.2732 15.9526 54.4987 16.4943 54.5 17.0597V45.9197C54.5 46.4859 54.2751 47.029 53.8747 47.4294C53.4743 47.8298 52.9312 48.0547 52.365 48.0547H10.065C9.59 48.0543 9.12877 47.8951 8.75461 47.6025C8.38046 47.3099 8.11485 46.9006 8 46.4397V46.9397C8 47.5059 8.22494 48.049 8.62533 48.4494C9.02572 48.8498 9.56876 49.0747 10.135 49.0747H53.865C54.1454 49.0747 54.423 49.0195 54.682 48.9122C54.9411 48.8049 55.1764 48.6476 55.3747 48.4494C55.5729 48.2511 55.7302 48.0157 55.8375 47.7567C55.9448 47.4977 56 47.2201 56 46.9397V17.0597C55.9987 16.4943 55.7732 15.9526 55.3729 15.5532C54.9727 15.1539 54.4304 14.9297 53.865 14.9297Z" fill="#BA3B38"/>
<path d="M32.8148 14.9297H31.2148V49.0747H32.8148V14.9297Z" fill="#333333"/>
<path d="M32.8148 48.0547H31.2148V49.0697H32.8148V48.0547Z" fill="#333333"/>
<path d="M53.8672 45.8696V18.1246C53.8672 17.5364 53.3904 17.0596 52.8022 17.0596L11.2022 17.0596C10.614 17.0596 10.1372 17.5364 10.1372 18.1246V45.8696C10.1372 46.4578 10.614 46.9346 11.2022 46.9346H52.8022C53.3904 46.9346 53.8672 46.4578 53.8672 45.8696Z" fill="#EFD3B6"/>
<path d="M10.4993 18.4999C10.4993 18.2175 10.6115 17.9466 10.8112 17.7469C11.0109 17.5471 11.2818 17.4349 11.5643 17.4349C56.0643 17.4349 53.3043 17.3499 53.6993 17.5849C53.2443 16.8149 56.0343 17.0549 11.1993 17.0549C11.0594 17.0549 10.9209 17.0825 10.7917 17.136C10.6625 17.1895 10.5451 17.268 10.4462 17.3669C10.3473 17.4657 10.2689 17.5832 10.2153 17.7124C10.1618 17.8416 10.1343 17.9801 10.1343 18.1199C10.1343 48.0299 9.90426 46.3299 10.6643 46.7799C10.4243 46.3899 10.4993 48.0749 10.4993 18.4999Z" fill="#F7E9DA"/>
<path d="M52.8 17.0596H32V46.9396H52.8C53.0825 46.9396 53.3533 46.8274 53.5531 46.6276C53.7528 46.4279 53.865 46.157 53.865 45.8746V18.1296C53.8657 17.9893 53.8386 17.8503 53.7854 17.7205C53.7321 17.5907 53.6538 17.4727 53.5548 17.3733C53.4559 17.2738 53.3383 17.1949 53.2087 17.1411C53.0792 17.0873 52.9403 17.0596 52.8 17.0596Z" fill="#E8BC91"/>
<path d="M53.7156 17.5898C53.2606 16.8198 54.7956 17.0598 32.0156 17.0598V17.4398C54.7306 17.4398 53.3156 17.3548 53.7156 17.5898Z" fill="#EFD3B6"/>
<path d="M27.7813 30.4043H13.7812C13.516 30.4043 13.2617 30.2989 13.0741 30.1114C12.8866 29.9239 12.7812 29.6695 12.7812 29.4043C12.7812 29.1391 12.8866 28.8847 13.0741 28.6972C13.2617 28.5097 13.516 28.4043 13.7812 28.4043H27.7813C28.0465 28.4043 28.3008 28.5097 28.4884 28.6972C28.6759 28.8847 28.7812 29.1391 28.7812 29.4043C28.7812 29.6695 28.6759 29.9239 28.4884 30.1114C28.3008 30.2989 28.0465 30.4043 27.7813 30.4043Z" fill="#333333"/>
<path d="M27.7813 40.7793H13.7812C13.516 40.7793 13.2617 40.6739 13.0741 40.4864C12.8866 40.2989 12.7812 40.0445 12.7812 39.7793C12.7812 39.5141 12.8866 39.2597 13.0741 39.0722C13.2617 38.8847 13.516 38.7793 13.7812 38.7793H27.7813C28.0465 38.7793 28.3008 38.8847 28.4884 39.0722C28.6759 39.2597 28.7812 39.5141 28.7812 39.7793C28.7812 40.0445 28.6759 40.2989 28.4884 40.4864C28.3008 40.6739 28.0465 40.7793 27.7813 40.7793Z" fill="#333333"/>
<path d="M27.7813 35.5947H13.7812C13.516 35.5947 13.2617 35.4894 13.0741 35.3018C12.8866 35.1143 12.7812 34.8599 12.7812 34.5947C12.7812 34.3295 12.8866 34.0752 13.0741 33.8876C13.2617 33.7001 13.516 33.5947 13.7812 33.5947H27.7813C28.0465 33.5947 28.3008 33.7001 28.4884 33.8876C28.6759 34.0752 28.7812 34.3295 28.7812 34.5947C28.7812 34.8599 28.6759 35.1143 28.4884 35.3018C28.3008 35.4894 28.0465 35.5947 27.7813 35.5947Z" fill="#333333"/>
<path d="M27.7813 25.2197H13.7812C13.516 25.2197 13.2617 25.1144 13.0741 24.9268C12.8866 24.7393 12.7812 24.4849 12.7812 24.2197C12.7812 23.9545 12.8866 23.7002 13.0741 23.5126C13.2617 23.3251 13.516 23.2197 13.7812 23.2197H27.7813C28.0465 23.2197 28.3008 23.3251 28.4884 23.5126C28.6759 23.7002 28.7812 23.9545 28.7812 24.2197C28.7812 24.4849 28.6759 24.7393 28.4884 24.9268C28.3008 25.1144 28.0465 25.2197 27.7813 25.2197Z" fill="#333333"/>
<path d="M49.9297 30.4043H35.9297C35.6645 30.4043 35.4101 30.2989 35.2226 30.1114C35.035 29.9239 34.9297 29.6695 34.9297 29.4043C34.9297 29.1391 35.035 28.8847 35.2226 28.6972C35.4101 28.5097 35.6645 28.4043 35.9297 28.4043H49.9297C50.1949 28.4043 50.4493 28.5097 50.6368 28.6972C50.8243 28.8847 50.9297 29.1391 50.9297 29.4043C50.9297 29.6695 50.8243 29.9239 50.6368 30.1114C50.4493 30.2989 50.1949 30.4043 49.9297 30.4043Z" fill="#333333"/>
<path d="M49.9297 40.7793H35.9297C35.6645 40.7793 35.4101 40.6739 35.2226 40.4864C35.035 40.2989 34.9297 40.0445 34.9297 39.7793C34.9297 39.5141 35.035 39.2597 35.2226 39.0722C35.4101 38.8847 35.6645 38.7793 35.9297 38.7793H49.9297C50.1949 38.7793 50.4493 38.8847 50.6368 39.0722C50.8243 39.2597 50.9297 39.5141 50.9297 39.7793C50.9297 40.0445 50.8243 40.2989 50.6368 40.4864C50.4493 40.6739 50.1949 40.7793 49.9297 40.7793Z" fill="#333333"/>
<path d="M49.9297 35.5947H35.9297C35.6645 35.5947 35.4101 35.4894 35.2226 35.3018C35.035 35.1143 34.9297 34.8599 34.9297 34.5947C34.9297 34.3295 35.035 34.0752 35.2226 33.8876C35.4101 33.7001 35.6645 33.5947 35.9297 33.5947H49.9297C50.1949 33.5947 50.4493 33.7001 50.6368 33.8876C50.8243 34.0752 50.9297 34.3295 50.9297 34.5947C50.9297 34.8599 50.8243 35.1143 50.6368 35.3018C50.4493 35.4894 50.1949 35.5947 49.9297 35.5947Z" fill="#333333"/>
<path d="M49.9297 25.2197H35.9297C35.6645 25.2197 35.4101 25.1144 35.2226 24.9268C35.035 24.7393 34.9297 24.4849 34.9297 24.2197C34.9297 23.9545 35.035 23.7002 35.2226 23.5126C35.4101 23.3251 35.6645 23.2197 35.9297 23.2197H49.9297C50.1949 23.2197 50.4493 23.3251 50.6368 23.5126C50.8243 23.7002 50.9297 23.9545 50.9297 24.2197C50.9297 24.4849 50.8243 24.7393 50.6368 24.9268C50.4493 25.1144 50.1949 25.2197 49.9297 25.2197Z" fill="#333333"/>
<path d="M52.8 17.0597H51.47C51.7406 17.0556 52.002 17.1583 52.1976 17.3454C52.3931 17.5325 52.5071 17.7891 52.515 18.0597V44.5497C52.5071 44.8202 52.3931 45.0768 52.1976 45.264C52.002 45.4511 51.7406 45.5537 51.47 45.5497L32 46.0247V46.9347H52.8C53.0825 46.9347 53.3533 46.8225 53.5531 46.6228C53.7528 46.423 53.865 46.1521 53.865 45.8697V18.1297C53.8657 17.9894 53.8386 17.8504 53.7854 17.7206C53.7321 17.5908 53.6538 17.4728 53.5548 17.3734C53.4559 17.274 53.3383 17.1951 53.2087 17.1412C53.0792 17.0874 52.9403 17.0597 52.8 17.0597Z" fill="#E0A66D"/>
<path d="M32.0002 46.9404V46.0254C3.75518 47.2304 4.77018 46.9404 32.0002 46.9404Z" fill="#E8BC91"/>
</svg>
