<svg width="23" height="23" viewBox="0 0 23 23" fill="none" xmlns="http://www.w3.org/2000/svg">
<g clip-path="url(#clip0_15_11726)">
<path d="M20.125 0.71875C21.3138 0.71875 22.2812 1.68619 22.2812 2.875V20.125C22.2812 21.3138 21.3138 22.2812 20.125 22.2812H2.875C1.68619 22.2812 0.71875 21.3138 0.71875 20.125V2.875C0.71875 1.68619 1.68619 0.71875 2.875 0.71875H20.125ZM20.125 0H2.875C1.29375 0 0 1.29375 0 2.875V20.125C0 21.7062 1.29375 23 2.875 23H20.125C21.7062 23 23 21.7062 23 20.125V2.875C23 1.29375 21.7062 0 20.125 0Z" fill="#1E1F24"/>
<path d="M13 10.3V13.2H15.6C15.8 13.2 15.9 13.4 15.9 13.6L15.5 15.5C15.5 15.6 15.3 15.7 15.2 15.7H13V23H10V15.8H8.3C8.1 15.8 8 15.7 8 15.5V13.6C8 13.4 8.1 13.3 8.3 13.3H10V10C10 8.3 11.3 7 13 7H15.7C15.9 7 16 7.1 16 7.3V9.7C16 9.9 15.9 10 15.7 10H13.3C13.1 10 13 10.1 13 10.3Z" stroke="#1E1F24" strokeMiterlimit="10" strokeLinecap="round"/>
</g>
<defs>
<clipPath id="clip0_15_11726">
<rect width="23" height="23" fill="white"/>
</clipPath>
</defs>
</svg>
