<svg
									width="64"
									height="64"
									viewBox="0 0 64 64"
									fill="none"
									xmlns="http://www.w3.org/2000/svg">
									<path
										d="M44.2358 1.88281H21.6475C19.5683 1.88281 17.8828 3.56833 17.8828 5.64752V28.2358C17.8828 30.3149 19.5683 32.0005 21.6475 32.0005H44.2358C46.3149 32.0005 48.0005 30.3149 48.0005 28.2358V5.64752C48.0005 3.56833 46.3149 1.88281 44.2358 1.88281Z"
										fill="#FFEB3C"
									/>
									<path
										d="M44.2344 26.3533V7.52981C44.2344 6.49022 43.3916 5.64746 42.352 5.64746L23.5285 5.64746C22.4889 5.64746 21.6461 6.49022 21.6461 7.52981V26.3533C21.6461 27.3929 22.4889 28.2357 23.5285 28.2357H42.352C43.3916 28.2357 44.2344 27.3929 44.2344 26.3533Z"
										fill="#F3F4F2"
									/>
									<path
										d="M58.3529 32H35.7647C33.6855 32 32 33.6855 32 35.7647V58.3529C32 60.4321 33.6855 62.1176 35.7647 62.1176H58.3529C60.4321 62.1176 62.1176 60.4321 62.1176 58.3529V35.7647C62.1176 33.6855 60.4321 32 58.3529 32Z"
										fill="#F54337"
									/>
									<path
										d="M58.3516 56.4705V37.647C58.3516 36.6074 57.5088 35.7646 56.4692 35.7646H37.6457C36.6061 35.7646 35.7633 36.6074 35.7633 37.647V56.4705C35.7633 57.5101 36.6061 58.3529 37.6457 58.3529H56.4692C57.5088 58.3529 58.3516 57.5101 58.3516 56.4705Z"
										fill="#F3F4F2"
									/>
									<path
										d="M28.2358 32H5.64752C3.56833 32 1.88281 33.6855 1.88281 35.7647V58.3529C1.88281 60.4321 3.56833 62.1176 5.64752 62.1176H28.2358C30.3149 62.1176 32.0005 60.4321 32.0005 58.3529V35.7647C32.0005 33.6855 30.3149 32 28.2358 32Z"
										fill="#64B5F6"
									/>
									<path
										d="M28.2344 56.4705V37.647C28.2344 36.6074 27.3916 35.7646 26.352 35.7646H7.52849C6.4889 35.7646 5.64614 36.6074 5.64614 37.647V56.4705C5.64614 57.5101 6.4889 58.3529 7.52849 58.3529H26.352C27.3916 58.3529 28.2344 57.5101 28.2344 56.4705Z"
										fill="#F3F4F2"
									/>
									<path
										d="M32.402 21.1997C32.0992 21.1887 31.7949 20.8326 31.489 20.1314C31.2684 19.6274 31.0936 19.1045 30.9667 18.5691C30.6828 18.6114 30.2192 18.6538 29.5761 18.6961C28.9706 18.7385 28.5071 18.7879 28.1855 18.8444C28.0098 19.2663 27.7032 19.9001 27.2655 20.7455C27.1974 20.8729 27.0955 20.979 26.9709 21.0521C26.8464 21.1252 26.704 21.1624 26.5596 21.1597C26.3497 21.1599 26.147 21.0829 25.9902 20.9432C25.9094 20.8769 25.8448 20.7931 25.8012 20.6981C25.7576 20.6031 25.7361 20.4994 25.7385 20.395C25.7385 20.1989 26.0177 19.5361 26.5761 18.4067C26.5254 18.3029 26.502 18.188 26.5079 18.0726C26.5236 17.8891 26.7094 17.7455 27.0655 17.642C27.6098 16.7008 28.2145 15.7244 28.8796 14.7126C29.8365 13.2616 30.4263 12.5361 30.649 12.5361C31.071 12.5361 31.3526 12.791 31.4937 13.3008C31.5706 13.7103 31.6914 14.3252 31.8561 15.1455C32.0898 16.2436 32.3753 17.5055 32.7126 18.9314C32.7964 19.1893 32.8946 19.4422 33.0067 19.6891C33.1194 19.9218 33.1896 20.1728 33.2137 20.4303C33.2166 20.5359 33.1957 20.6409 33.1525 20.7375C33.1093 20.834 33.045 20.9196 32.9643 20.9879C32.8893 21.0587 32.8009 21.1138 32.7044 21.1502C32.6079 21.1866 32.5051 21.2034 32.402 21.1997ZM30.2585 15.3173C29.9604 15.8303 29.5486 16.5291 29.0232 17.4138C29.2889 17.3643 29.5578 17.3336 29.8279 17.322C30.2561 17.2953 30.5259 17.2742 30.6373 17.2585C30.5447 16.7534 30.4185 16.1024 30.2585 15.3055V15.3173Z"
										fill="#FFEB3C"
									/>
									<path
										d="M39.3699 21.3436C39.1942 21.3436 38.915 21.1734 38.5322 20.833C38.2273 20.9809 37.9129 21.1082 37.591 21.2142C37.3707 21.2918 37.1398 21.3354 36.9063 21.3436C35.984 21.3436 35.2914 21.0965 34.8287 20.6024C34.3659 20.1083 34.1354 19.3695 34.1369 18.386C34.1319 17.9413 34.2204 17.5006 34.3968 17.0924C34.5731 16.6842 34.8333 16.3177 35.1604 16.0165C35.4822 15.6976 35.8643 15.4461 36.2845 15.2768C36.7047 15.1075 37.1545 15.0238 37.6075 15.0307C38.045 15.0484 38.4745 15.1532 38.871 15.3389C39.4499 15.5852 39.7393 15.8714 39.7393 16.1977C39.7411 16.3291 39.6941 16.4565 39.6075 16.5554C39.5633 16.7434 39.5334 16.9346 39.5181 17.1271C39.4977 17.3562 39.4875 17.6244 39.4875 17.9318C39.4652 18.4581 39.5175 18.9849 39.6428 19.4965C39.6538 19.5311 39.7416 19.7279 39.9063 20.0871C40.0033 20.2646 40.0821 20.4515 40.1416 20.6448C40.1431 20.7407 40.1227 20.8357 40.0819 20.9226C40.0411 21.0094 39.9811 21.0858 39.9063 21.146C39.7578 21.2755 39.5669 21.3458 39.3699 21.3436ZM37.9463 17.466C37.9474 17.3252 37.956 17.1846 37.9722 17.0448C37.9895 16.8879 38.0154 16.7107 38.0499 16.513C37.9842 16.4796 37.9157 16.452 37.8452 16.4307C37.7956 16.415 37.7441 16.4063 37.6922 16.4048C37.4341 16.4049 37.179 16.4595 36.9434 16.5649C36.7079 16.6703 36.4972 16.8242 36.3252 17.0165C36.0091 17.3583 35.8089 17.7911 35.7531 18.2533C35.6974 18.7155 35.7888 19.1835 36.0146 19.5907C36.1082 19.7205 36.2334 19.8242 36.3783 19.8922C36.5233 19.9601 36.6831 19.99 36.8428 19.9789C37.0731 19.9803 37.3018 19.9405 37.5181 19.8613C37.7361 19.7794 37.9389 19.6617 38.1181 19.513C38.0211 18.8345 37.9629 18.1511 37.944 17.466H37.9463Z"
										fill="#FFEB3C"
									/>
									<path
										d="M14.6822 51.2211C13.5916 51.5851 12.4455 51.754 11.2963 51.72C11.1791 51.7182 11.0636 51.6917 10.9574 51.6422C10.8512 51.5927 10.7566 51.5214 10.6798 51.4329C10.5134 51.273 10.4162 51.0542 10.4092 50.8235V44.7294C10.3982 44.469 10.3888 44.2086 10.381 43.9482C10.3674 43.6992 10.3769 43.4495 10.4092 43.2023C10.4626 42.8431 10.7975 42.6251 11.4139 42.5482C11.8891 42.4455 12.3752 42.4028 12.861 42.4211C13.6114 42.431 14.3395 42.6781 14.941 43.127C15.7253 43.6713 16.1175 44.3513 16.1175 45.167C16.1316 45.5525 16.0508 45.9355 15.8822 46.2823C15.7048 46.5797 15.4752 46.8428 15.2045 47.0588C15.5919 47.252 15.9299 47.5313 16.1928 47.8753C16.491 48.2105 16.664 48.6387 16.6822 49.087C16.6822 49.5968 16.4045 50.0792 15.8492 50.5341C15.5001 50.825 15.1059 51.057 14.6822 51.2211ZM12.861 43.9764C12.3669 43.9764 12.0704 43.9764 11.9716 43.9764V45.1953V46.4023C12.2317 46.4406 12.4948 46.454 12.7575 46.4423C13.9292 46.3498 14.5151 45.9192 14.5151 45.1505C14.5151 44.8792 14.3426 44.6172 13.9975 44.3647C13.6712 44.1146 13.272 43.9783 12.861 43.9764ZM13.5339 48.0376C13.1857 48.0376 12.6649 48.0243 11.9716 47.9976V50.1458C12.6995 50.1001 13.4201 49.9731 14.1198 49.767C14.7943 49.5756 15.1277 49.3686 15.1198 49.1458C15.1088 48.8509 14.8924 48.589 14.4704 48.36C14.1833 48.1902 13.8647 48.0805 13.5339 48.0376Z"
										fill="#64B5F6"
									/>
									<path
										d="M20.333 51.6866C19.8108 51.6886 19.2929 51.5929 18.8059 51.4042C18.7386 51.4729 18.658 51.5271 18.569 51.5635C18.48 51.6 18.3845 51.6178 18.2883 51.616C18.0907 51.6196 17.8996 51.5452 17.7565 51.4089C17.6847 51.3435 17.6278 51.2634 17.5897 51.1741C17.5515 51.0848 17.533 50.9884 17.5354 50.8913C17.5354 50.7987 17.5409 50.6583 17.5518 50.4701C17.5628 50.2819 17.5683 50.1415 17.5683 50.0489V43.5289C17.5637 43.2723 17.627 43.0191 17.7518 42.7948C17.8109 42.6718 17.9038 42.5681 18.0196 42.496C18.1355 42.4239 18.2695 42.3864 18.4059 42.3877C18.8154 42.3877 19.0201 42.6097 19.0201 43.0536C19.0172 43.1324 19.0101 43.2109 18.9989 43.2889C18.9876 43.3669 18.9806 43.4454 18.9777 43.5242V45.7242C19.2365 45.5779 19.5103 45.4595 19.7942 45.3713C20.038 45.2953 20.2917 45.2556 20.5471 45.2536C20.9618 45.2401 21.374 45.3215 21.7524 45.4916C22.1308 45.6616 22.4654 45.9158 22.7307 46.2348C23.2519 46.8584 23.5279 47.6506 23.5071 48.463C23.516 48.8804 23.4408 49.2952 23.286 49.6829C23.1311 50.0706 22.8999 50.4231 22.6059 50.7195C22.3158 51.0307 21.9636 51.2775 21.572 51.4441C21.1805 51.6107 20.7584 51.6933 20.333 51.6866ZM20.5518 46.7454C20.3127 46.7548 20.078 46.8132 19.8624 46.9171C19.5529 47.0605 19.2581 47.2339 18.9824 47.4348C18.9824 47.7987 18.9824 48.6128 18.9824 49.8771C19.4056 50.0787 19.8648 50.1938 20.333 50.216C20.5563 50.2227 20.7786 50.1825 20.9853 50.0977C21.1921 50.013 21.3787 49.8857 21.533 49.7242C21.6894 49.5593 21.8116 49.365 21.8924 49.1525C21.9731 48.9401 22.0109 48.7137 22.0036 48.4866C22.0206 48.0427 21.8844 47.6065 21.6177 47.2513C21.4932 47.0878 21.3317 46.9562 21.1463 46.8674C20.961 46.7787 20.7572 46.7352 20.5518 46.7407V46.7454Z"
										fill="#64B5F6"
									/>
									<path
										d="M46.8012 45.1343C46.6327 45.1345 46.4684 45.082 46.3312 44.9841C46.1941 44.8862 46.091 44.7478 46.0365 44.5884C45.995 44.4615 45.9121 44.3521 45.8012 44.2778C45.6528 44.2409 45.4996 44.2274 45.3471 44.2378C44.864 44.2378 44.3071 44.6135 43.6765 45.3649C42.7934 46.4143 42.3518 47.3962 42.3518 48.3107C42.3441 48.7104 42.4947 49.0969 42.7706 49.386C42.8965 49.5279 43.0513 49.6412 43.2246 49.7183C43.3979 49.7954 43.5857 49.8346 43.7753 49.8331C44.1788 49.8271 44.5749 49.7246 44.9306 49.5343C45.0687 49.4621 45.3596 49.2747 45.8036 48.9719C45.9995 48.8148 46.2331 48.7118 46.4812 48.6731C46.5911 48.6715 46.7001 48.6931 46.801 48.7365C46.902 48.7799 46.9926 48.8441 47.0671 48.9249C47.1439 49.0004 47.2034 49.0916 47.2418 49.1922C47.2801 49.2928 47.2962 49.4006 47.289 49.508C47.2819 49.6155 47.2516 49.7201 47.2003 49.8148C47.149 49.9095 47.0779 49.992 46.9918 50.0566C45.9393 50.9445 44.8671 51.3884 43.7753 51.3884C43.3654 51.3955 42.9587 51.3153 42.5822 51.153C42.2057 50.9907 41.8681 50.7501 41.5918 50.4472C41.0384 49.8747 40.7332 49.107 40.7424 48.3107C40.7424 47.0276 41.3032 45.7178 42.4247 44.3813C43.3785 43.2472 44.3534 42.6802 45.3495 42.6802C45.5189 42.6802 45.671 42.6856 45.8059 42.6966C45.9269 42.7059 46.0472 42.7231 46.1659 42.7484C46.2466 42.6705 46.3421 42.6095 46.4468 42.5691C46.5515 42.5287 46.6632 42.5096 46.7753 42.5131C47.1659 42.5131 47.4075 42.7374 47.5 43.186C47.5701 43.5575 47.6032 43.9351 47.5989 44.3131C47.6001 44.5005 47.5416 44.6835 47.4318 44.8355C47.3603 44.9343 47.2651 45.0135 47.1548 45.0658C47.0446 45.118 46.923 45.1416 46.8012 45.1343Z"
										fill="#F54337"
									/>
									<path
										d="M50.9656 51.6145C50.1962 51.639 49.4439 51.384 48.8479 50.8969C48.5547 50.6547 48.3209 50.3484 48.1647 50.0017C48.0084 49.6549 47.9339 49.277 47.9467 48.8969C47.9771 48.0496 48.2589 47.2306 48.7561 46.5439C49.3695 45.6169 50.0816 45.1533 50.8926 45.1533C51.3739 45.172 51.8472 45.2814 52.2879 45.4757C52.9358 45.7392 53.2597 46.0435 53.2597 46.3886C53.2602 46.5736 53.1904 46.752 53.0644 46.8874C52.9985 46.964 52.9164 47.0248 52.824 47.0655C52.7315 47.1062 52.6312 47.1258 52.5303 47.1227C52.3087 47.0994 52.1002 47.0063 51.935 46.8569C51.6258 46.6567 51.26 46.5625 50.8926 46.5886C50.5977 46.5886 50.2777 46.878 49.9326 47.4569C49.6448 47.888 49.4745 48.3868 49.4385 48.9039C49.4319 49.0842 49.4681 49.2635 49.5441 49.4271C49.6202 49.5907 49.734 49.734 49.8761 49.8451C50.1919 50.0759 50.5773 50.1913 50.9679 50.1721C51.3004 50.1495 51.6229 50.0488 51.9091 49.878C52.1264 49.7415 52.365 49.6421 52.615 49.5839C52.7151 49.584 52.8141 49.605 52.9057 49.6455C52.9972 49.686 53.0793 49.7452 53.1467 49.8192C53.2163 49.8849 53.2717 49.964 53.3098 50.0518C53.3478 50.1396 53.3676 50.2341 53.3679 50.3298C53.3679 50.6278 53.0424 50.9267 52.3914 51.2263C51.9475 51.4512 51.4623 51.5833 50.9656 51.6145Z"
										fill="#F54337"
									/>
								</svg>