<svg width="180" height="208" viewBox="0 0 180 208" fill="none" xmlns="http://www.w3.org/2000/svg">
<path d="M107.507 8.81561C107.507 8.81561 81.9133 -12.675 45.5539 11.4969C45.5539 11.4969 19.5539 29.1687 21.8695 75.9687C21.8695 75.9687 13.8258 97.4187 0.785156 94.7375C0.785156 94.7375 16.1414 104.853 21.5039 105.747C21.5039 105.747 10.007 110.987 2.32891 107.656C2.32891 107.656 20.732 118.056 31.4977 118.016C31.4977 118.016 14.6789 124.516 5.86328 119.844C5.86328 119.844 18.457 131.341 38.8914 128.009C38.8914 128.009 23.8195 136.216 16.9133 137.597C16.9133 137.597 50.307 148.322 61.8039 125.328L106.491 57.9312L119.288 19.175L107.507 8.81561Z" fill="#3F2820"/>
<path d="M102.512 6.37969C102.512 6.37969 160.362 0.00155735 157.924 78.0828C157.924 78.0828 143.177 118.383 146.184 131.423C146.184 131.423 130.421 135.242 121.077 117.977L97.8398 35.9141C97.8398 35.9141 98.0023 10.6047 102.512 6.37969Z" fill="#3F2820"/>
<path d="M97.6758 168.554H87.357C78.582 168.554 71.4727 161.444 71.4727 152.669V129.675C71.4727 120.9 78.582 113.791 87.357 113.791H97.6758C106.451 113.791 113.56 120.9 113.56 129.675V152.669C113.56 161.444 106.451 168.554 97.6758 168.554Z" fill="#EDBB98"/>
<path d="M113.559 151.816V152.182C113.559 160.957 106.45 168.066 97.6751 168.066H87.3564C78.5814 168.066 71.472 160.957 71.472 152.182V151.816C38.4032 158.966 12.6876 180.985 5.78136 207.838C5.70011 208.204 49.5345 207.838 92.4751 207.838C135.416 207.838 179.291 208.204 179.169 207.838C172.344 180.945 146.588 158.966 113.559 151.816Z" fill="#F985EB"/>
<path d="M142.621 101.825C149.154 103.246 156.047 97.0562 158.015 88.0012C159.983 78.9462 156.282 70.4544 149.748 69.0343C143.215 67.6141 136.322 73.8034 134.354 82.8585C132.386 91.9135 136.087 100.405 142.621 101.825Z" fill="#F4C5A2"/>
<path d="M35.2924 70.0946C28.7588 71.5148 25.0577 80.0066 27.0259 89.0616C28.994 98.1166 35.8861 104.306 42.4198 102.886C48.9534 101.466 52.6545 92.9739 50.6863 83.9189C48.7182 74.8638 41.8261 68.6745 35.2924 70.0946Z" fill="#F4C5A2"/>
<path d="M92.6789 145.154C121.443 145.154 144.76 117.944 144.76 84.3785C144.76 50.8134 121.443 23.6035 92.6789 23.6035C63.9152 23.6035 40.5977 50.8134 40.5977 84.3785C40.5977 117.944 63.9152 145.154 92.6789 145.154Z" fill="#F4C5A2"/>
<path d="M113.562 35.9122C113.562 35.9122 98.693 62.6029 69.9711 68.656C69.9711 68.656 72.8555 63.9435 73.6273 55.8591C73.6273 55.8591 53.8023 62.481 50.6742 83.931C50.6742 83.931 49.8617 95.4685 52.9086 101.359C52.9086 101.359 43.118 86.206 45.1492 73.531C45.1492 73.531 34.9523 65.1622 28.7773 75.1154C28.7773 75.1154 62.8617 0.568483 114.78 29.3716L113.562 35.9122Z" fill="#3F2820"/>
<path d="M113.56 35.9117C113.56 35.9117 133.141 47.693 130.054 68.6555C130.054 68.6555 132.857 67.3148 135.051 60.0836C135.051 60.0836 137.366 70.0773 132.37 82.7117C132.37 82.7117 140.007 75.3992 140.413 71.9461C140.413 71.9461 138.87 93.518 134.279 98.8398C134.279 98.8398 143.176 83.2398 146.223 68.9805C146.223 68.9805 143.663 31.0773 102.551 24.293L113.56 35.9117Z" fill="#3F2820"/>
<path d="M92.9242 178.912C98.3987 178.912 102.837 176.402 102.837 173.305C102.837 170.209 98.3987 167.699 92.9242 167.699C87.4497 167.699 83.0117 170.209 83.0117 173.305C83.0117 176.402 87.4497 178.912 92.9242 178.912Z" fill="#110102"/>
<path d="M71.5138 151.816L92.9231 167.091L78.5419 184.316C78.5419 184.276 65.5013 163.638 71.5138 151.816Z" fill="#F471EA"/>
<path d="M113.562 151.816L92.1523 167.091L106.534 184.316C106.534 184.276 119.534 163.638 113.562 151.816Z" fill="#F471EA"/>
<path d="M108.075 207.838L97.025 176.922H87.9656L76.875 207.838H92.475H108.075Z" fill="#110102"/>
</svg>
