<svg width="278" height="258" viewBox="0 0 278 258" fill="none" xmlns="http://www.w3.org/2000/svg">
<path d="M132.554 187.238H25.1904C24.3484 187.238 23.5409 186.904 22.9455 186.311C22.3501 185.717 22.0156 184.912 22.0156 184.073V33.6217C22.023 32.7871 22.3607 31.9891 22.9553 31.4016C23.5499 30.814 24.3532 30.4843 25.1904 30.4844H132.554C132.971 30.4844 133.384 30.5662 133.769 30.7253C134.154 30.8844 134.504 31.1175 134.799 31.4114C135.094 31.7053 135.328 32.0542 135.487 32.4382C135.647 32.8222 135.729 33.2337 135.729 33.6494V184.073C135.729 184.488 135.647 184.9 135.487 185.284C135.328 185.668 135.094 186.017 134.799 186.311C134.504 186.604 134.154 186.838 133.769 186.997C133.384 187.156 132.971 187.238 132.554 187.238ZM25.1904 30.5952C24.3857 30.5967 23.6144 30.916 23.0454 31.4833C22.4764 32.0505 22.1561 32.8194 22.1546 33.6217V184.073C22.1561 184.875 22.4764 185.644 23.0454 186.211C23.6144 186.778 24.3857 187.097 25.1904 187.099H132.554C133.359 187.097 134.13 186.778 134.699 186.211C135.268 185.644 135.588 184.875 135.59 184.073V33.6217C135.588 32.8194 135.268 32.0505 134.699 31.4833C134.13 30.916 133.359 30.5967 132.554 30.5952H25.1904Z" fill="#EBEBEB"/>
<path d="M252.816 187.238H145.452C144.61 187.238 143.803 186.904 143.207 186.311C142.612 185.717 142.277 184.912 142.277 184.073V33.6217C142.285 32.7871 142.622 31.9891 143.217 31.4016C143.812 30.814 144.615 30.4843 145.452 30.4844H252.816C253.658 30.4844 254.465 30.8178 255.061 31.4114C255.656 32.0049 255.99 32.81 255.99 33.6494V184.073C255.99 184.912 255.656 185.717 255.061 186.311C254.465 186.904 253.658 187.238 252.816 187.238ZM145.452 30.5952C144.647 30.5967 143.876 30.916 143.307 31.4833C142.738 32.0505 142.418 32.8194 142.416 33.6217V184.073C142.418 184.875 142.738 185.644 143.307 186.211C143.876 186.778 144.647 187.097 145.452 187.099H252.816C253.62 187.097 254.392 186.778 254.961 186.211C255.53 185.644 255.85 184.875 255.851 184.073V33.6217C255.85 32.8194 255.53 32.0505 254.961 31.4833C254.392 30.916 253.62 30.5967 252.816 30.5952H145.452Z" fill="#EBEBEB"/>
<path d="M138.025 42.6797H140.293L125.02 132.48H122.746L138.025 42.6797Z" fill="#E0E0E0"/>
<path d="M161.108 57.5096H136.633L136.855 56.207H161.33L161.108 57.5096Z" fill="#E0E0E0"/>
<path d="M158.452 73.1463H133.977L134.193 71.8438H158.669L158.452 73.1463Z" fill="#E0E0E0"/>
<path d="M155.788 88.7909H131.312L131.535 87.4883H156.01L155.788 88.7909Z" fill="#E0E0E0"/>
<path d="M153.124 104.428H128.648L128.871 103.125H153.346L153.124 104.428Z" fill="#E0E0E0"/>
<path d="M150.467 120.068H125.992L126.215 118.766H150.69L150.467 120.068Z" fill="#E0E0E0"/>
<path d="M162.494 42.6797H164.768L149.494 132.48H147.215L162.494 42.6797Z" fill="#E0E0E0"/>
<path d="M244.086 128.464L241.084 131.236C240.623 131.664 240.079 131.992 239.484 132.199C238.89 132.406 238.259 132.488 237.631 132.439C202.297 129.8 176.41 61.0296 162.254 47.2C161.818 46.7776 161.472 46.2714 161.238 45.712C161.004 45.1527 160.886 44.5518 160.891 43.9456C160.896 43.3394 161.024 42.7406 161.268 42.1853C161.512 41.63 161.866 41.1298 162.31 40.7148C175.298 40.7426 203.654 128.464 244.086 128.464Z" fill="#EBEBEB"/>
<path d="M160.451 44.2969C172.411 44.2969 198.47 128.848 235.6 128.848C232.464 130.594 222.206 131.825 215.228 130.134C178.098 130.134 151.116 44.2969 139.156 44.2969H160.451Z" fill="#E0E0E0"/>
<path d="M219.5 128.468L216.498 131.239C216.037 131.668 215.493 131.996 214.898 132.203C214.304 132.41 213.673 132.491 213.045 132.442C177.711 129.832 151.824 61.0608 137.668 47.2313C137.232 46.8089 136.886 46.3027 136.652 45.7433C136.418 45.1839 136.3 44.583 136.305 43.9768C136.31 43.3707 136.438 42.7718 136.682 42.2165C136.926 41.6613 137.281 41.161 137.724 40.7461C150.74 40.7461 179.101 128.468 219.5 128.468Z" fill="#EBEBEB"/>
<path d="M123.028 124.127C116.745 118.817 113.871 121.783 112.581 126.289C112.892 115.336 111.68 99.3394 103.129 91.2467C89.3569 78.2154 88.4784 103.485 92.009 111.14C82.557 89.5229 66.8167 77.1456 53.9453 78.875C34.1461 81.5356 62.2853 124 62.2853 124C62.2853 124 39.7617 111.412 37.0762 126.976C34.3907 142.541 55.8579 150.561 55.8579 150.561C55.8579 150.561 39.2446 150.633 40.5179 161.159C41.7911 171.685 64.8985 172.982 64.8985 172.982C87.511 175.709 107.382 170.832 124.774 159.081C126.181 153.15 130.557 130.502 123.028 124.127Z" fill="#F0F0F0"/>
<path d="M165.252 125.296C171.218 118.534 174.059 121.51 175.405 126.405C174.849 114.127 175.694 95.9964 183.806 85.8252C196.855 69.4514 198.262 97.7424 194.998 106.794C203.661 81.2966 218.645 65.4162 231.138 65.7432C250.354 66.2476 224.027 117.514 224.027 117.514C224.027 117.514 245.544 100.503 248.491 117.686C251.438 134.869 230.816 146.559 230.816 146.559C230.816 146.559 246.901 144.552 245.894 156.536C244.888 168.52 222.542 172.887 222.542 172.887C199.024 177.122 178.218 176.767 164.307 164.767C162.817 158.31 158.097 133.4 165.252 125.296Z" fill="#F5F5F5"/>
<path d="M194.642 134.275C187.72 129.392 178.824 133.693 176.756 135.605C180.459 129.846 197.478 105.546 189.266 103.7C180.831 101.81 172.775 110.158 171.98 119.387C173.092 106.261 176.984 82.9145 164.518 87.116C153.587 90.7965 153.815 114.614 153.815 114.614C153.815 114.614 146.631 88.9064 139.998 102.043C135.667 110.59 142.178 126.376 142.178 126.376C142.178 126.376 133.321 114.598 131.514 126.038C129.551 138.571 138.569 153.359 138.569 153.359C146.103 160.327 157.902 160.809 171.868 157.987C178.479 147.844 200.347 138.305 194.642 134.275Z" fill="#EBEBEB"/>
<path d="M25.5776 185.904C27.6126 181.575 33.1893 181.209 34.7405 181.569C31.31 179.773 16.1312 172.573 19.6507 169.375C23.2591 166.093 29.5642 167.95 32.5443 172.262C28.2854 166.138 19.8286 155.756 27.1344 154.331C33.5396 153.09 40.1115 164.863 40.1115 164.863C40.1115 164.863 36.4252 150.213 43.3696 154.836C47.8955 157.829 49.1187 167.396 49.1187 167.396C49.1187 167.396 50.1695 159.137 54.2617 164.259C58.7486 169.868 58.465 179.668 58.465 179.668C56.7192 185.211 50.025 200.177 42.3688 202.671C36.2806 199.545 23.9096 189.473 25.5776 185.904Z" fill="#E0E0E0"/>
<path d="M219.243 152.266C224.036 152.172 227.4 160.53 227.811 167.16C228.49 163.352 231.915 151.146 236.468 149.766C241.672 148.186 241.9 160.298 238.692 164.422C243.274 158.541 250.657 147.366 254.216 153.89C257.335 159.605 248.066 169.41 248.066 169.41C248.066 169.41 260.949 161.489 258.63 169.482C257.129 174.681 248.361 178.733 248.361 178.733C248.361 178.733 256.579 177.237 252.92 182.674C248.912 188.639 239.454 191.327 239.454 191.327C233.644 191.327 217.309 189.498 212.599 182.979C213.756 176.222 208.891 152.471 219.243 152.266Z" fill="#E0E0E0"/>
<path d="M31.5977 209.112C31.5977 187.373 78.5296 178.371 136.426 178.371C194.322 178.371 241.254 187.351 241.254 209.112C241.254 235.075 194.322 249.73 136.426 249.73C78.5296 249.73 31.5977 235.075 31.5977 209.112Z" fill="#F58539"/>
<path opacity="0.2" d="M136.425 178.371C87.0243 178.371 45.5967 184.923 34.5156 200.36C45.5911 219.621 87.0187 230.291 136.425 230.291C185.831 230.291 227.259 219.616 238.334 200.36C227.253 184.923 185.825 178.371 136.425 178.371Z" fill="black"/>
<path d="M31.5977 184.823C31.5977 163.084 78.5296 154.082 136.426 154.082C194.322 154.082 241.254 163.084 241.254 184.823C241.254 210.786 194.322 225.441 136.426 225.441C78.5296 225.441 31.5977 210.786 31.5977 184.823Z" fill="#F58539"/>
<path opacity="0.6" d="M224.784 178.858C224.651 174.734 221.193 171.43 214.343 168.759C212.247 167.944 209.739 167.772 206.987 167.65C204.222 167.606 201.465 167.362 198.736 166.919C196.348 166.362 194.012 165.606 191.752 164.657C189.151 163.58 186.424 162.835 183.635 162.44C181.15 162.168 178.536 162.523 175.851 162.889C173.251 163.33 170.614 163.515 167.978 163.443C165.52 163.293 163.024 162.612 160.483 161.935C157.942 161.259 155.24 160.572 152.532 160.505C150.002 160.433 147.434 160.96 144.826 161.503C142.249 162.127 139.615 162.489 136.964 162.584C134.267 162.485 131.586 162.114 128.963 161.475C126.35 160.921 123.77 160.428 121.229 160.494C118.567 160.655 115.933 161.121 113.379 161.886C110.749 162.567 108.169 163.288 105.623 163.443C102.815 163.609 100.035 163.21 97.3325 162.85C94.736 162.501 92.2007 162.185 89.7932 162.451C87.1236 162.818 84.5093 163.51 82.0092 164.513C79.4127 165.472 76.944 166.475 74.531 166.93C71.6146 167.384 68.6699 167.636 65.7184 167.683C63.1274 167.8 60.7589 167.994 58.7573 168.759C51.7739 171.442 48.1933 174.751 48.0821 178.875C47.9864 179.319 47.938 179.772 47.9375 180.227C47.9375 193.53 87.5636 204.294 136.447 204.294C185.331 204.294 224.957 193.524 224.957 180.227C224.949 179.766 224.891 179.307 224.784 178.858Z" fill="white"/>
<path d="M148.886 194.279C147.218 194.424 145.55 194.507 143.882 194.623C142.214 194.739 140.574 194.867 138.956 195.116C138.15 195.221 137.352 195.374 136.565 195.576C135.81 195.743 135.089 196.039 134.436 196.452C134.308 196.529 134.198 196.632 134.112 196.754C134.027 196.877 133.969 197.015 133.941 197.162C133.981 197.492 134.148 197.795 134.408 198.004C135.028 198.538 135.728 198.972 136.482 199.29C135.622 199.177 134.797 198.88 134.063 198.42C133.849 198.285 133.664 198.108 133.521 197.899C133.377 197.69 133.278 197.454 133.229 197.206C133.201 196.923 133.263 196.637 133.407 196.391C133.53 196.168 133.692 195.969 133.885 195.804C134.231 195.497 134.623 195.246 135.047 195.061C135.447 194.877 135.857 194.718 136.276 194.584C137.103 194.346 137.944 194.161 138.795 194.03C140.475 193.802 142.171 193.715 143.866 193.769C145.55 193.809 147.229 193.98 148.886 194.279Z" fill="white"/>
<path d="M145.738 194.882C145.74 195.569 145.536 196.241 145.154 196.812C144.772 197.384 144.229 197.829 143.592 198.092C142.956 198.356 142.256 198.425 141.58 198.291C140.905 198.158 140.284 197.827 139.797 197.341C139.31 196.856 138.978 196.237 138.844 195.563C138.71 194.89 138.779 194.192 139.043 193.557C139.307 192.923 139.754 192.381 140.328 192C140.901 191.62 141.575 191.417 142.263 191.418C143.185 191.418 144.069 191.783 144.721 192.433C145.372 193.082 145.738 193.963 145.738 194.882Z" fill="#F58539"/>
<path d="M141.679 193.614C141.123 194.002 140.428 194.018 140.184 193.653C139.939 193.287 140.211 192.683 140.79 192.295C141.368 191.907 142.041 191.89 142.285 192.256C142.53 192.622 142.257 193.231 141.679 193.614Z" fill="white"/>
<path d="M140.453 194.932C140.225 194.932 140.047 194.771 140.064 194.627C140.08 194.483 140.28 194.383 140.508 194.411C140.736 194.439 140.914 194.572 140.898 194.716C140.881 194.86 140.67 194.96 140.453 194.932Z" fill="white"/>
<path opacity="0.8" d="M160.685 182.998C160.957 183.58 161.049 184.23 160.951 184.864C160.852 185.499 160.567 186.091 160.131 186.564C159.696 187.037 159.129 187.371 158.503 187.523C157.877 187.675 157.22 187.639 156.615 187.419C156.01 187.199 155.483 186.805 155.103 186.287C154.722 185.769 154.504 185.15 154.476 184.508C154.448 183.867 154.611 183.231 154.946 182.682C155.28 182.133 155.77 181.695 156.354 181.424C157.138 181.061 158.034 181.023 158.846 181.318C159.658 181.613 160.319 182.217 160.685 182.998Z" fill="#F58539"/>
<path d="M156.357 184.086C156.102 184.685 155.584 185.045 155.206 184.879C154.828 184.713 154.723 184.103 154.984 183.504C155.245 182.906 155.757 182.546 156.135 182.706C156.513 182.867 156.613 183.471 156.357 184.086Z" fill="white"/>
<path d="M156.591 182.666C156.447 182.5 156.413 182.295 156.519 182.206C156.625 182.118 156.819 182.173 156.964 182.334C157.108 182.494 157.142 182.7 157.042 182.794C156.941 182.888 156.736 182.827 156.591 182.666Z" fill="white"/>
<path opacity="0.8" d="M121.312 170.36C121.289 170.884 121.11 171.39 120.798 171.813C120.486 172.236 120.056 172.557 119.561 172.737C119.066 172.916 118.529 172.945 118.017 172.82C117.506 172.695 117.043 172.421 116.688 172.034C116.332 171.647 116.099 171.164 116.019 170.645C115.939 170.126 116.015 169.595 116.237 169.12C116.46 168.644 116.819 168.244 117.269 167.972C117.719 167.699 118.24 167.566 118.766 167.588C119.115 167.603 119.459 167.687 119.776 167.834C120.094 167.982 120.379 168.19 120.615 168.448C120.852 168.705 121.035 169.006 121.155 169.335C121.274 169.663 121.328 170.011 121.312 170.36Z" fill="#263238"/>
<path d="M117.778 169.529C117.367 169.867 116.855 169.933 116.666 169.673C116.477 169.412 116.611 168.924 117.022 168.564C117.434 168.204 117.945 168.16 118.134 168.42C118.323 168.681 118.19 169.19 117.778 169.529Z" fill="white"/>
<path d="M118.486 168.587C118.441 168.415 118.486 168.254 118.602 168.227C118.719 168.199 118.836 168.315 118.88 168.487C118.925 168.659 118.88 168.82 118.764 168.848C118.647 168.875 118.53 168.759 118.486 168.587Z" fill="white"/>
<path d="M125.791 174.086C124.491 174.481 123.153 174.743 121.799 174.867C120.438 174.992 119.068 174.992 117.707 174.867C116.318 174.769 114.956 174.434 113.682 173.875C113.346 173.721 113.039 173.511 112.775 173.254C112.627 173.11 112.511 172.936 112.436 172.744C112.402 172.638 112.381 172.528 112.375 172.417C112.38 172.308 112.401 172.2 112.436 172.096C112.6 171.754 112.871 171.476 113.209 171.303C113.358 171.217 113.512 171.139 113.67 171.07L114.149 170.898C113.868 171.079 113.601 171.279 113.348 171.497C113.109 171.679 112.932 171.931 112.842 172.218C112.781 172.462 112.937 172.661 113.159 172.838C113.402 173.021 113.672 173.165 113.96 173.265C114.568 173.484 115.195 173.645 115.833 173.747C116.481 173.868 117.134 173.955 117.79 174.008C119.103 174.141 120.431 174.18 121.766 174.185C123.1 174.191 124.435 174.141 125.791 174.086Z" fill="white"/>
<path d="M69.1454 172.739C67.394 173.016 65.6537 173.293 63.9356 173.603C63.0794 173.792 62.2232 173.953 61.3892 174.185C60.5509 174.395 59.7264 174.656 58.9205 174.967C58.1259 175.252 57.3652 175.624 56.652 176.075C55.9525 176.505 55.3656 177.094 54.9396 177.794C54.5422 178.507 54.4424 179.347 54.6616 180.133C54.896 180.965 55.3182 181.733 55.8959 182.378C55.1595 181.836 54.5832 181.107 54.2279 180.266C54.0471 179.824 53.9606 179.349 53.974 178.872C53.9874 178.395 54.1004 177.926 54.3057 177.494C54.7264 176.644 55.3652 175.919 56.1572 175.394C56.9124 174.875 57.7283 174.451 58.5869 174.13C60.2725 173.512 62.0277 173.102 63.8133 172.91C65.5826 172.703 67.3663 172.645 69.1454 172.739Z" fill="white"/>
<path d="M183.102 190.855C183.725 190.829 184.348 190.829 184.97 190.855C185.599 190.855 186.221 190.894 186.844 190.955C188.132 191.031 189.396 191.337 190.575 191.859C190.911 192.024 191.205 192.263 191.437 192.557C191.571 192.738 191.657 192.949 191.688 193.172C191.719 193.395 191.694 193.621 191.615 193.832C191.462 194.187 191.221 194.498 190.914 194.735C190.648 194.968 190.346 195.155 190.019 195.29C188.842 195.759 187.627 196.13 186.388 196.398C183.951 196.939 181.484 197.334 178.999 197.579C176.521 197.823 174.033 197.944 171.543 197.939C174.017 197.673 176.475 197.385 178.921 196.986C181.367 196.587 183.803 196.171 186.188 195.578C187.372 195.312 188.532 194.951 189.657 194.497C190.141 194.326 190.548 193.99 190.808 193.549C190.841 193.471 190.852 193.386 190.841 193.302C190.829 193.218 190.795 193.139 190.742 193.072C190.59 192.878 190.401 192.716 190.186 192.596C189.107 192.076 187.959 191.714 186.777 191.52C186.171 191.404 185.565 191.299 184.954 191.193L183.102 190.855Z" fill="white"/>
<path d="M97.6078 148.868C97.3054 149.419 96.9315 149.927 96.4958 150.381C95.922 149.886 95.479 149.258 95.2058 148.552C95.2632 149.405 95.496 150.237 95.8897 150.996C94.8888 151.916 93.7664 152.696 92.5537 153.313C91.9205 152.621 91.5032 151.76 91.3528 150.835C91.2055 151.821 91.3028 152.828 91.6363 153.768L91.4473 153.851C88.4004 155.209 84.4973 155.514 81.6228 155.475C81.6435 154.415 81.3805 153.368 80.861 152.443C81.0566 153.459 80.9303 154.511 80.4996 155.453C78.7705 155.392 77.6196 155.248 77.6196 155.248C77.6196 155.248 80.0771 151.922 78.081 148.596C75.5123 144.328 75.6569 139.994 79.9548 139.938C81.7729 132.893 92.0978 135.227 93.5879 141.174C94.3122 144.014 95.6883 146.648 97.6078 148.868Z" fill="#263238"/>
<path d="M91.9012 157.341L92.5795 156.875L93.2967 156.348C93.7749 155.994 94.2419 155.617 94.6979 155.24C95.6092 154.479 96.4691 153.658 97.2721 152.784C98.0483 151.928 98.753 151.011 99.3794 150.041C99.9745 149.106 100.454 148.103 100.808 147.053V148.261C100.485 147.187 100.104 146.131 99.6685 145.096C99.2181 143.988 98.7622 142.879 98.2841 141.771L96.8551 138.445C96.3881 137.336 95.8988 136.228 95.4429 135.086C95.3311 134.815 95.3236 134.512 95.4218 134.235C95.5201 133.959 95.7171 133.728 95.9753 133.587C96.2334 133.447 96.5345 133.406 96.821 133.473C97.1075 133.54 97.3592 133.709 97.5279 133.95C98.2451 134.958 98.9068 135.984 99.5851 137.015C100.263 138.046 100.881 139.105 101.514 140.163C102.148 141.222 102.743 142.303 103.321 143.411C103.95 144.567 104.496 145.766 104.956 146.998C105.079 147.339 105.098 147.709 105.012 148.062L104.973 148.2C104.607 149.653 104.046 151.049 103.305 152.352C102.6 153.615 101.765 154.802 100.814 155.894C99.895 156.972 98.895 157.978 97.8226 158.904C97.2666 159.358 96.7439 159.796 96.1546 160.217C95.871 160.428 95.5986 160.639 95.2928 160.838C94.987 161.038 94.7368 161.215 94.342 161.448C93.8023 161.785 93.1503 161.895 92.5294 161.753C91.9084 161.611 91.3695 161.229 91.031 160.691C90.6926 160.153 90.5825 159.503 90.7248 158.884C90.8671 158.265 91.2503 157.728 91.79 157.391L91.9012 157.341Z" fill="#FFB573"/>
<path d="M96.7772 137.065L93.8359 135.552L96.4436 131.91C96.4436 131.91 98.7009 133.185 98.7176 135.652L96.7772 137.065Z" fill="#FFB573"/>
<path d="M93.0578 131.983L93.9474 131.262C94.203 131.056 94.5237 130.946 94.8525 130.953C95.1813 130.961 95.497 131.084 95.7433 131.301L96.4439 131.911L93.8362 135.552L92.7242 133.773C92.5536 133.485 92.4933 133.145 92.5546 132.816C92.616 132.486 92.7947 132.191 93.0578 131.983Z" fill="#FFB573"/>
<path d="M92.0241 183.669C88.7548 184.046 85.5022 184.484 82.2886 185.066C80.6873 185.376 79.086 185.698 77.5348 186.147C76.7655 186.358 76.0098 186.615 75.2718 186.917C74.9261 187.072 74.5949 187.258 74.2822 187.472C74.1494 187.558 74.0295 187.662 73.9263 187.782C73.8429 187.882 73.8207 187.954 73.8262 187.97C73.848 188.041 73.8883 188.104 73.943 188.153C74.0601 188.259 74.191 188.349 74.3322 188.419C74.6643 188.594 75.0125 188.737 75.3719 188.846C76.1363 189.078 76.9143 189.264 77.7016 189.401C79.2917 189.689 80.9152 189.838 82.5443 189.983C85.8025 190.226 89.0829 190.332 92.3744 190.376C89.0959 190.759 85.7938 190.903 82.4943 190.808C80.8344 190.766 79.1784 190.627 77.5348 190.393C76.6984 190.264 75.8718 190.079 75.0606 189.838C74.6322 189.712 74.217 189.545 73.8207 189.34C73.5954 189.225 73.3876 189.08 73.2035 188.907C73.0724 188.799 72.9653 188.665 72.8889 188.514C72.8124 188.362 72.7684 188.196 72.7595 188.027C72.7506 187.858 72.7771 187.688 72.8372 187.53C72.8974 187.371 72.9899 187.227 73.109 187.106C73.2722 186.916 73.4591 186.749 73.665 186.607C74.0381 186.365 74.4326 186.157 74.8437 185.986C75.6272 185.669 76.4316 185.406 77.2512 185.199C78.8625 184.795 80.4963 184.486 82.144 184.273C85.4181 183.831 88.7203 183.629 92.0241 183.669Z" fill="white"/>
<path d="M93.6367 182.19C95.1175 181.718 96.6378 181.381 98.1792 181.181C99.7331 180.96 101.306 180.902 102.872 181.009C103.671 181.074 104.463 181.215 105.235 181.43C105.632 181.549 106.018 181.705 106.386 181.896C106.788 182.094 107.143 182.375 107.426 182.722C107.581 182.912 107.695 183.133 107.759 183.37C107.823 183.607 107.836 183.854 107.798 184.097C107.7 184.535 107.474 184.934 107.148 185.244C106.56 185.784 105.859 186.187 105.096 186.425C105.732 186.011 106.296 185.496 106.764 184.9C106.968 184.644 107.092 184.334 107.12 184.008C107.122 183.869 107.095 183.731 107.04 183.603C106.985 183.475 106.905 183.36 106.803 183.265C106.28 182.83 105.654 182.536 104.985 182.412C104.267 182.241 103.536 182.129 102.8 182.079C101.292 181.971 99.7787 181.948 98.2682 182.012C96.7448 182.062 95.1935 182.151 93.6367 182.19Z" fill="white"/>
<path d="M83.8594 187.853C87.0677 187.796 90.2693 187.537 93.4448 187.077C95.0183 186.828 96.5918 186.567 98.1263 186.19C98.888 186.002 99.6553 185.813 100.389 185.575C100.756 185.453 101.118 185.326 101.451 185.182C101.608 185.115 101.76 185.039 101.907 184.954L102.068 184.849C102.107 184.849 102.113 184.782 102.068 184.893C102.007 185.013 101.99 185.15 102.018 185.281C102.037 185.367 102.075 185.446 102.13 185.514C101.994 185.444 101.853 185.387 101.707 185.342C101.35 185.233 100.989 185.143 100.623 185.071C99.8666 184.915 99.0771 184.805 98.2931 184.699C96.7197 184.466 95.1239 184.333 93.5282 184.145C90.3312 183.84 87.1175 183.591 83.8983 183.253C87.1216 182.93 90.362 182.81 93.6005 182.892C95.224 182.892 96.842 183.025 98.4711 183.175C99.2884 183.253 100.1 183.369 100.923 183.519C101.349 183.594 101.771 183.694 102.185 183.818C102.428 183.885 102.663 183.977 102.886 184.095C103.06 184.179 103.217 184.296 103.347 184.439C103.495 184.592 103.591 184.789 103.621 184.999C103.651 185.21 103.613 185.425 103.514 185.614C103.411 185.805 103.264 185.97 103.086 186.096C102.976 186.178 102.861 186.252 102.741 186.318C102.537 186.431 102.328 186.532 102.113 186.623C101.701 186.789 101.301 186.928 100.901 187.049C100.108 187.293 99.3022 187.495 98.4877 187.654C96.8807 187.967 95.256 188.181 93.6227 188.297C90.3627 188.569 87.081 188.42 83.8594 187.853Z" fill="white"/>
<path d="M99.0205 162.348C99.7489 166.705 100.483 173.866 100.549 185.168C97.0022 188.272 84.4867 188.328 80.1165 187.319C81.0506 183.672 81.6844 176.516 79.1213 164.726C78.3317 161.106 80.4723 157.487 83.7527 156.888H83.8417C86.5138 156.382 89.2161 156.051 91.9315 155.896H92.0149C95.4454 155.819 98.4145 158.573 99.0205 162.348Z" fill="#F58539"/>
<path opacity="0.3" d="M99.0205 162.348C99.7489 166.705 100.483 173.866 100.549 185.168C97.0022 188.272 84.4867 188.328 80.1165 187.319C81.0506 183.672 81.6844 176.516 79.1213 164.726C78.3317 161.106 80.4723 157.487 83.7527 156.888H83.8417C86.5138 156.382 89.2161 156.051 91.9315 155.896H92.0149C95.4454 155.819 98.4145 158.573 99.0205 162.348Z" fill="black"/>
<g opacity="0.4">
<path d="M100.536 183.702C100.536 183.608 100.536 183.508 100.536 183.414C95.1375 185.631 86.4862 186.186 80.4758 185.631L80.4258 185.897C81.9047 186.041 83.5394 186.119 85.2519 186.119C90.456 186.119 96.3552 185.41 100.536 183.702Z" fill="#F58539"/>
<path d="M100.494 181.097C100.494 180.997 100.494 180.908 100.494 180.809C95.2284 183.026 86.805 183.647 80.7891 183.17C80.7891 183.259 80.7891 183.347 80.7891 183.436C82.0845 183.541 83.4912 183.602 84.9591 183.602C90.2133 183.602 96.257 182.865 100.494 181.097Z" fill="#F58539"/>
<path d="M100.423 178.482C100.423 178.388 100.423 178.293 100.423 178.199C95.2356 180.416 86.9456 181.082 80.9297 180.66C80.9297 180.754 80.9297 180.843 80.9297 180.937C82.0862 181.021 83.326 181.065 84.616 181.065C89.9591 181.087 96.1307 180.328 100.423 178.482Z" fill="#F58539"/>
<path d="M100.321 175.925V175.637C95.1722 177.854 86.9322 178.569 80.9219 178.186C80.9219 178.281 80.9219 178.375 80.9219 178.464C81.9838 178.536 83.1125 178.574 84.2579 178.574C89.69 178.574 95.9784 177.793 100.321 175.925Z" fill="#F58539"/>
<path d="M100.182 173.361V173.078C95.0227 175.295 86.7939 176.049 80.7891 175.689C80.7891 175.778 80.7891 175.877 80.7891 175.966C81.7899 176.027 82.8518 176.06 83.9471 176.06C89.4071 176.06 95.7844 175.262 100.182 173.361Z" fill="#F58539"/>
<path d="M100.003 170.81C100.003 170.716 100.003 170.622 100.003 170.527C94.8155 172.772 86.5422 173.537 80.543 173.177C80.543 173.271 80.543 173.365 80.5708 173.454C81.5438 173.515 82.5724 173.548 83.6399 173.548C89.1054 173.548 95.5605 172.733 100.003 170.81Z" fill="#F58539"/>
<path d="M99.7821 168.276C99.7821 168.187 99.7821 168.093 99.7543 168.004C94.5001 170.254 86.1713 171.03 80.2109 170.664C80.2109 170.759 80.2387 170.853 80.2499 170.942C81.2173 171.003 82.2459 171.036 83.319 171.036C88.79 171.036 95.2897 170.21 99.7821 168.276Z" fill="#F58539"/>
<path d="M99.5244 165.772L99.491 165.5C94.1423 167.756 85.7244 168.532 79.8086 168.15L79.8586 168.421C80.8483 168.488 81.9103 168.526 83.0167 168.526C88.4488 168.504 94.9707 167.695 99.5244 165.772Z" fill="#F58539"/>
<path d="M99.1706 163.29C99.1706 163.201 99.1428 163.112 99.1316 163.023C93.6606 165.274 85.1538 166.039 79.3047 165.629C79.3047 165.717 79.3436 165.812 79.3603 165.9C80.4 165.972 81.5176 166.017 82.6963 166.017C88.095 166.017 94.5891 165.18 99.1706 163.29Z" fill="#F58539"/>
<path d="M98.642 160.89C98.642 160.807 98.5808 160.724 98.5474 160.641C92.9874 162.797 84.6474 163.528 78.9651 163.113C78.9595 163.203 78.9595 163.294 78.9651 163.384C80.0215 163.462 81.1891 163.506 82.3845 163.506C87.661 163.517 94.0383 162.714 98.642 160.89Z" fill="#F58539"/>
<path d="M97.4893 158.704L97.3059 158.477C92.0016 160.272 84.7236 160.938 79.436 160.649L79.3359 160.915C80.1977 160.971 81.1151 160.993 82.0659 160.993C87.0032 160.993 92.9357 160.295 97.4893 158.704Z" fill="#F58539"/>
<path d="M95.3502 156.77C95.2335 156.703 95.1167 156.631 94.9944 156.57C90.4499 157.704 85.7787 158.253 81.0944 158.205L80.8164 158.477H81.7505C86.3385 158.493 90.9094 157.919 95.3502 156.77Z" fill="#F58539"/>
</g>
<path d="M84.7868 149.702C85.2816 152.474 85.4595 155.245 84.1641 156.814C84.1641 156.814 87.0275 162.107 91.7368 163.332C94.0497 160.561 92.5152 155.882 92.5152 155.882C89.8964 154.979 89.9353 153.438 90.2912 151.11L86.1545 148.444C85.4429 147.917 84.6089 148.688 84.7868 149.702Z" fill="#FFB573"/>
<path opacity="0.2" d="M90.2862 151.111L86.1496 148.445C85.6269 151.577 85.816 153.112 87.4562 153.949C88.3645 154.373 89.3917 154.471 90.364 154.227C89.9971 153.406 90.0749 152.37 90.2862 151.111Z" fill="black"/>
<path d="M80.0668 145.407C81.3901 149.181 81.9517 151.465 84.6872 152.845C88.8071 154.913 93.6833 151.687 93.6666 147.557C93.6666 143.843 91.4815 138.29 86.8055 137.918C82.1296 137.547 78.7547 141.626 80.0668 145.407Z" fill="#FFB573"/>
<path d="M82.394 139.97C84.062 141.827 84.479 146.438 81.1542 147.619C78.1851 144.959 77.5068 139.881 82.394 139.97Z" fill="#263238"/>
<path d="M91.0177 142.665C91.1789 142.981 91.4736 143.153 91.6849 143.048C91.8962 142.943 91.924 142.604 91.7627 142.288C91.6015 141.973 91.3068 141.801 91.1011 141.906C90.8954 142.011 90.8564 142.349 91.0177 142.665Z" fill="#263238"/>
<path d="M91.0391 141.948L91.7396 141.344C91.7396 141.344 91.3393 142.669 91.0391 141.948Z" fill="#263238"/>
<path d="M87.2599 143.644C87.4211 143.96 87.7158 144.131 87.9215 144.026C88.1272 143.921 88.1661 143.583 88.0049 143.267C87.8437 142.951 87.549 142.785 87.3433 142.884C87.1375 142.984 87.0986 143.333 87.2599 143.644Z" fill="#263238"/>
<path d="M87.293 142.929L87.9713 142.336C87.9713 142.336 87.5821 143.65 87.293 142.929Z" fill="#263238"/>
<path d="M85.8704 143.048C85.9068 143.036 85.9394 143.015 85.9649 142.987C85.9903 142.959 86.0076 142.924 86.0149 142.887C86.0546 142.63 86.1542 142.385 86.3058 142.174C86.4575 141.962 86.6568 141.788 86.8879 141.667C86.9312 141.641 86.9634 141.6 86.9787 141.551C86.9939 141.503 86.9912 141.45 86.9709 141.404C86.9506 141.357 86.9142 141.32 86.8683 141.298C86.8224 141.276 86.7701 141.271 86.7211 141.285C86.4268 141.433 86.1724 141.649 85.979 141.915C85.7855 142.181 85.6587 142.49 85.6091 142.815C85.6024 142.85 85.605 142.886 85.6167 142.92C85.6284 142.954 85.6488 142.984 85.6757 143.007C85.7027 143.031 85.7353 143.047 85.7705 143.054C85.8056 143.061 85.8419 143.059 85.8759 143.048H85.8704Z" fill="#263238"/>
<path d="M91.7398 140.573C91.7812 140.559 91.8178 140.534 91.8454 140.501C91.8785 140.456 91.8923 140.4 91.884 140.345C91.8757 140.29 91.8458 140.24 91.8009 140.207C91.5441 140.001 91.241 139.86 90.9175 139.796C90.5941 139.733 90.2601 139.748 89.9439 139.841C89.8919 139.86 89.8493 139.898 89.8254 139.948C89.8015 139.998 89.7981 140.055 89.816 140.107C89.836 140.158 89.8747 140.2 89.9243 140.223C89.9738 140.247 90.0305 140.251 90.0829 140.235C90.3342 140.165 90.5987 140.156 90.8541 140.209C91.1095 140.262 91.3485 140.375 91.5507 140.54C91.5781 140.558 91.6091 140.571 91.6417 140.576C91.6743 140.582 91.7077 140.581 91.7398 140.573Z" fill="#263238"/>
<path d="M90.3086 143.309C91.0076 144.016 91.8009 144.624 92.666 145.116C92.5345 145.333 92.3569 145.519 92.1456 145.661C91.9342 145.802 91.6944 145.896 91.4428 145.936L90.3086 143.309Z" fill="#ED893E"/>
<path d="M79.9613 149.105C80.5658 149.663 81.3613 149.971 82.1853 149.964C83.2139 149.92 83.2473 148.856 82.5634 147.963C81.9462 147.176 80.673 146.25 79.8334 146.722C78.9938 147.193 79.1606 148.39 79.9613 149.105Z" fill="#FFB573"/>
<path d="M92.1127 146.886C92.1127 146.886 90.8061 146.747 87.2422 147.324C87.7982 148.515 88.7045 148.826 90.5281 148.51C92.3518 148.194 92.1127 146.886 92.1127 146.886Z" fill="#263238"/>
<path d="M91.9465 146.887C91.9335 147.039 91.8811 147.184 91.7943 147.31C91.7075 147.435 91.5894 147.536 91.4517 147.602C90.3987 147.771 89.3316 147.836 88.2658 147.796C88.0903 147.805 87.9156 147.765 87.762 147.68C87.6085 147.595 87.4824 147.468 87.3984 147.314C88.8982 147.033 90.4206 146.89 91.9465 146.887Z" fill="white"/>
<path d="M91.3542 147.52C90.3851 147.419 89.4062 147.468 88.4519 147.664C88.1974 147.767 87.9762 147.937 87.8125 148.157C88.3685 148.667 89.2192 148.756 90.5258 148.534C91.0226 148.482 91.4841 148.254 91.8268 147.891C91.6869 147.747 91.5279 147.622 91.3542 147.52Z" fill="white"/>
<path d="M83.1526 157.031C78.9603 158.14 78.2153 161.122 78.9548 164.52C79.1104 165.235 79.4162 166.138 79.5497 166.82C79.5497 166.842 87.456 165.811 83.1526 157.031Z" fill="#FFB573"/>
<path d="M93.5703 156.043C94.5266 158.781 97.4901 164.219 99.0191 162.345C98.4854 159.158 96.7451 156.57 93.5703 156.043Z" fill="#FFB573"/>
<path d="M83.1668 162.263C82.1716 163.028 81.2041 163.676 80.2033 164.341C79.2025 165.007 78.1962 165.627 77.162 166.22C75.0964 167.428 72.9655 168.522 70.7791 169.496L70.6401 169.557H70.5845C69.8284 169.802 69.0288 169.885 68.2382 169.801C67.6183 169.74 67.0057 169.619 66.409 169.441C65.3464 169.126 64.3152 168.714 63.3287 168.21C62.3942 167.747 61.4848 167.234 60.6043 166.675C59.7259 166.121 58.8919 165.528 58.0579 164.857C57.8293 164.678 57.6742 164.422 57.6214 164.137C57.5687 163.852 57.6219 163.557 57.7712 163.308C57.9205 163.06 58.1556 162.874 58.4325 162.785C58.7093 162.697 59.0091 162.712 59.2755 162.828H59.3144C60.1929 163.194 61.1047 163.588 62.011 163.937C62.9173 164.286 63.818 164.619 64.7132 164.901C65.5647 165.184 66.4364 165.403 67.3208 165.555C67.6876 165.621 68.0601 165.651 68.4328 165.644C68.643 165.653 68.8523 165.613 69.0444 165.528L68.8498 165.611C70.8236 164.502 72.7418 163.394 74.6711 162.169C75.6275 161.559 76.5727 160.949 77.5123 160.317C78.4519 159.685 79.3971 159.037 80.2923 158.427L80.3312 158.399C80.5868 158.213 80.8766 158.079 81.1841 158.005C81.4915 157.931 81.8107 157.918 82.1233 157.966C82.4359 158.015 82.7359 158.124 83.006 158.289C83.2762 158.453 83.5112 158.668 83.6978 158.923C83.8843 159.178 84.0187 159.467 84.0933 159.773C84.1679 160.08 84.1811 160.398 84.1323 160.71C84.0835 161.021 83.9737 161.321 83.8089 161.59C83.6442 161.859 83.4279 162.093 83.1724 162.279L83.1668 162.263Z" fill="#FFB573"/>
<path d="M61.5881 163.92L59.6198 160.633L56.9844 164.014C56.9844 164.014 57.6905 165.832 60.1647 165.849L61.5881 163.92Z" fill="#FFB573"/>
<path d="M56.4689 160.035L55.7183 161.061C55.5243 161.324 55.4301 161.647 55.4525 161.973C55.4749 162.299 55.6124 162.606 55.8406 162.84L56.986 164.015L59.6214 160.634L58.4149 159.742C58.1174 159.524 57.7457 159.433 57.3811 159.488C57.0165 159.543 56.6885 159.74 56.4689 160.035Z" fill="#FFB573"/>
<path d="M80.0273 140.578C82.218 141.382 87.8113 140.867 88.6398 140.456C88.1909 140.124 87.7014 139.85 87.1831 139.642C87.1831 139.642 90.2911 139.891 89.8185 138.605C89.3459 137.319 85.6429 136.643 83.9805 137.325C82.3181 138.006 80.3943 139.542 80.0273 140.578Z" fill="#263238"/>
<path d="M158.13 145.611L157.524 145.378L156.968 145.151C156.607 144.996 156.262 144.829 155.917 144.669C155.222 144.331 154.55 143.981 153.877 143.61C152.535 142.857 151.249 142.009 150.029 141.071C148.775 140.116 147.608 139.052 146.543 137.89C145.436 136.684 144.477 135.352 143.685 133.921L143.574 133.716C143.339 133.296 143.234 132.815 143.274 132.336C143.403 130.974 143.622 129.622 143.93 128.289C144.197 127.02 144.514 125.779 144.836 124.548C145.509 122.087 146.243 119.67 147.144 117.276C147.28 116.91 147.544 116.605 147.887 116.417C148.23 116.229 148.63 116.169 149.013 116.25C149.396 116.33 149.737 116.545 149.975 116.856C150.213 117.166 150.331 117.551 150.307 117.941C150.157 120.446 149.907 122.929 149.679 125.407L149.34 129.077C149.29 129.686 149.245 130.279 149.212 130.867L149.179 131.721C149.179 131.998 149.179 132.236 149.179 132.497L148.767 130.911C150.163 132.857 151.897 134.537 153.888 135.872C154.923 136.596 155.998 137.262 157.107 137.868C157.663 138.178 158.219 138.477 158.775 138.749L159.631 139.154L160.048 139.342L160.415 139.503L160.599 139.586C161.398 139.914 162.034 140.546 162.366 141.342C162.698 142.138 162.699 143.032 162.37 143.829C162.04 144.626 161.407 145.259 160.608 145.59C159.81 145.922 158.913 145.923 158.114 145.594L158.13 145.611Z" fill="#FF8B7B"/>
<path d="M149.169 120.337L151.782 117.948L148.062 114.922C148.062 114.922 146.089 116.873 146.767 119.417L149.169 120.337Z" fill="#FF8B7B"/>
<path d="M151.649 114.078L150.375 113.524C150.074 113.391 149.735 113.37 149.42 113.464C149.104 113.557 148.832 113.759 148.652 114.034L148.062 114.932L151.782 117.958L152.422 115.741C152.52 115.418 152.496 115.069 152.354 114.762C152.211 114.456 151.96 114.212 151.649 114.078Z" fill="#FF8B7B"/>
<path d="M169.021 140.739L170.011 140.65L171.045 140.55C171.74 140.478 172.43 140.395 173.125 140.295C174.509 140.112 175.905 139.885 177.25 139.636C178.596 139.386 179.941 139.081 181.253 138.71C182.528 138.35 183.781 137.919 185.006 137.418L184.756 137.557C185.406 137.195 186.011 136.758 186.558 136.254C187.214 135.7 187.892 135.046 188.548 134.375C189.204 133.705 189.877 133.028 190.544 132.336C191.211 131.643 191.884 130.922 192.551 130.246L192.59 130.213C192.865 129.971 193.213 129.826 193.579 129.801C193.945 129.776 194.309 129.872 194.615 130.074C194.921 130.276 195.151 130.572 195.271 130.918C195.39 131.264 195.392 131.639 195.276 131.986C194.875 132.956 194.431 133.854 193.952 134.758C193.474 135.661 192.952 136.548 192.39 137.424C191.816 138.321 191.191 139.183 190.516 140.007C189.755 140.976 188.858 141.83 187.853 142.546L187.77 142.601L187.603 142.684C186.169 143.438 184.683 144.086 183.155 144.624C181.665 145.14 180.149 145.576 178.612 145.932C177.094 146.293 175.565 146.57 174.036 146.791C173.269 146.897 172.502 146.985 171.729 147.063C170.956 147.141 170.211 147.202 169.344 147.235C168.481 147.292 167.631 147.006 166.98 146.438C166.33 145.87 165.932 145.068 165.874 144.208C165.817 143.348 166.104 142.501 166.674 141.852C167.243 141.204 168.048 140.807 168.91 140.75L169.021 140.739Z" fill="#FF8B7B"/>
<path d="M191.316 132.091L192.095 128.648L196.582 130.356C196.582 130.356 195.87 133.033 193.312 133.681L191.316 132.091Z" fill="#FF8B7B"/>
<path d="M195.506 126.645L196.735 127.648C196.98 127.847 197.15 128.124 197.216 128.432C197.282 128.741 197.239 129.063 197.096 129.344L196.585 130.358L192.098 128.651L193.543 126.85C193.658 126.707 193.8 126.589 193.961 126.501C194.122 126.414 194.299 126.359 194.482 126.34C194.664 126.321 194.849 126.338 195.024 126.39C195.2 126.442 195.364 126.529 195.506 126.645Z" fill="#FF8B7B"/>
<path d="M159.016 169.612C162.316 169.565 165.614 169.76 168.885 170.194C170.533 170.407 172.166 170.717 173.778 171.12C174.595 171.328 175.398 171.591 176.18 171.907C176.593 172.077 176.99 172.284 177.364 172.528C177.571 172.668 177.758 172.836 177.92 173.027C178.039 173.148 178.131 173.292 178.191 173.45C178.251 173.609 178.278 173.778 178.27 173.947C178.261 174.116 178.218 174.281 178.143 174.433C178.067 174.585 177.961 174.719 177.831 174.828C177.645 175.001 177.435 175.146 177.208 175.261C176.814 175.467 176.401 175.634 175.974 175.759C175.161 176 174.332 176.185 173.494 176.314C171.851 176.549 170.195 176.688 168.535 176.729C165.237 176.824 161.937 176.68 158.66 176.297C161.952 176.253 165.232 176.147 168.49 175.904C170.114 175.759 171.743 175.61 173.333 175.322C174.12 175.183 174.898 174.998 175.663 174.767C176.022 174.659 176.37 174.516 176.702 174.34C176.841 174.268 176.97 174.179 177.086 174.074C177.143 174.026 177.186 173.963 177.208 173.891C177.191 173.821 177.156 173.757 177.108 173.703C177.003 173.585 176.884 173.48 176.752 173.393C176.44 173.179 176.108 172.993 175.763 172.838C175.024 172.537 174.269 172.28 173.5 172.068C171.949 171.619 170.347 171.297 168.74 170.959C165.532 170.433 162.28 169.989 159.016 169.612Z" fill="white"/>
<path d="M154.961 168.176C153.354 168.176 151.758 168.082 150.163 168.016C148.567 167.949 146.982 167.877 145.403 167.877C144.608 167.877 143.819 167.877 143.035 167.91C142.262 167.937 141.492 168.025 140.733 168.171C140.409 168.225 140.105 168.36 139.849 168.564C139.788 168.636 139.777 168.681 139.849 168.819C139.946 168.958 140.064 169.082 140.199 169.185C140.844 169.632 141.538 170.003 142.267 170.294C141.459 170.17 140.677 169.912 139.954 169.529C139.752 169.417 139.573 169.269 139.426 169.091C139.34 168.972 139.284 168.833 139.265 168.686C139.25 168.527 139.289 168.366 139.376 168.232C139.516 168.026 139.708 167.86 139.932 167.75C140.126 167.649 140.329 167.565 140.538 167.5C142.127 167.098 143.765 166.922 145.403 166.979C147.013 167.003 148.621 167.116 150.218 167.317C151.814 167.515 153.397 167.802 154.961 168.176Z" fill="white"/>
<path d="M167.183 174.122C163.969 174.728 160.684 174.865 157.431 174.527C155.794 174.38 154.168 174.123 152.566 173.756C151.754 173.573 150.952 173.347 150.164 173.08C149.769 172.942 149.369 172.798 148.969 172.615C148.757 172.52 148.551 172.415 148.351 172.299C148.236 172.234 148.127 172.16 148.023 172.077C147.867 171.964 147.732 171.826 147.623 171.667C147.503 171.492 147.441 171.284 147.446 171.072C147.451 170.86 147.522 170.655 147.651 170.486C147.783 170.316 147.95 170.176 148.14 170.076C148.366 169.956 148.602 169.858 148.846 169.782C149.286 169.649 149.703 169.561 150.114 169.477C150.942 169.322 151.782 169.211 152.572 169.128C154.206 168.984 155.83 168.868 157.453 168.845C160.701 168.763 163.951 168.883 167.183 169.206C163.953 169.544 160.734 169.793 157.531 170.098C155.93 170.27 154.334 170.409 152.755 170.652C151.965 170.758 151.182 170.869 150.42 171.024C150.056 171.098 149.696 171.19 149.341 171.301C149.201 171.345 149.065 171.403 148.935 171.473C148.891 171.473 148.874 171.528 148.935 171.44C149.001 171.341 149.036 171.225 149.035 171.107C149.036 171.006 149.009 170.906 148.958 170.819C148.913 170.758 148.957 170.819 148.985 170.819C149.039 170.864 149.097 170.905 149.158 170.941C149.291 171.018 149.452 171.101 149.614 171.179C149.958 171.339 150.311 171.481 150.67 171.606C151.398 171.872 152.154 172.083 152.894 172.299C154.417 172.72 155.985 173.025 157.553 173.302C160.736 173.834 163.956 174.109 167.183 174.122Z" fill="white"/>
<path d="M152.041 143.321C151.001 147.257 149.567 155.477 149.461 171.086C153.731 174.411 167.097 174.672 172.363 173.591C172.857 170.387 172.068 160.526 175.982 146.431C176.127 145.92 176.168 145.385 176.101 144.859C176.034 144.332 175.861 143.824 175.593 143.366C175.324 142.907 174.966 142.508 174.539 142.19C174.112 141.873 173.625 141.645 173.108 141.52C171.996 141.259 170.778 141.004 169.566 140.81C166.346 140.27 163.097 139.915 159.836 139.746C158.574 139.746 157.328 139.779 156.261 139.862C155.285 139.932 154.354 140.302 153.598 140.921C152.842 141.541 152.298 142.38 152.041 143.321Z" fill="#FF8B7B"/>
<path d="M168.434 133.129C167.839 136.078 167.628 139.564 169.185 141.249C166.222 142.888 163.039 144.094 159.733 144.83C156.953 141.887 158.832 140.296 158.832 140.296C161.979 139.331 162.224 137.125 161.801 134.636L166.805 131.782C167.645 131.222 168.651 132.048 168.434 133.129Z" fill="#FF8B7B"/>
<path opacity="0.2" d="M168.431 133.128C168.654 132.02 167.642 131.221 166.797 131.781L161.793 134.641C162.045 135.741 162.005 136.888 161.676 137.967C162.662 138.205 163.692 138.205 164.678 137.967C165.957 137.676 167.118 137.01 168.014 136.055C168.093 135.072 168.232 134.094 168.431 133.128Z" fill="black"/>
<path d="M166.208 125.018C166.536 127.429 164.462 128.51 163.717 128.898C163.511 128.687 163.834 128.061 163.834 128.061C163.834 128.061 162.382 129.912 160.442 129.098C158.463 126.77 158.585 125.916 159.68 124.37C159.563 124.494 159.406 124.575 159.236 124.598C159.066 124.621 158.893 124.585 158.746 124.497C158.989 124.386 159.207 124.227 159.386 124.028C159.565 123.83 159.701 123.597 159.786 123.344C160.264 121.77 161.482 121.254 162.688 121.537C162.132 120.545 162.577 120.512 162.577 120.512C162.577 120.512 164.017 121.942 165.129 122.08C166.241 122.219 166.208 125.018 166.208 125.018Z" fill="#263238"/>
<path d="M172.738 128.283C171.626 132.412 171.176 134.895 168.357 136.564C164.114 139.08 158.666 136.009 158.382 131.575C158.126 127.606 160.022 121.515 164.987 120.778C169.952 120.04 173.872 124.159 172.738 128.283Z" fill="#FF8B7B"/>
<path d="M170.759 123.999C168.579 125.108 168.868 127.414 168.98 128.24C169.269 128.289 169.602 127.685 169.602 127.685C169.602 127.685 168.757 130.235 170.536 131.366C173.583 131.665 174.245 130.673 174.901 128.894C174.867 129.073 174.877 129.257 174.931 129.431C174.986 129.605 175.082 129.763 175.212 129.891C175.182 129.45 175.268 129.009 175.462 128.611C175.93 127.746 176.574 125.745 175.64 124.919C175.953 124.904 176.255 124.804 176.514 124.629C176.773 124.454 176.979 124.211 177.108 123.927C177.108 123.927 174.545 124.077 173.772 123.218C172.999 122.359 170.759 123.999 170.759 123.999Z" fill="#263238"/>
<path d="M164.942 126.93C164.798 127.274 164.492 127.484 164.264 127.385C164.036 127.285 163.969 126.925 164.119 126.581C164.27 126.237 164.57 126.027 164.798 126.126C165.026 126.226 165.092 126.586 164.942 126.93Z" fill="#263238"/>
<path d="M160.856 126.157C160.706 126.506 160.406 126.711 160.178 126.617C159.95 126.523 159.883 126.157 160.034 125.808C160.184 125.459 160.484 125.254 160.712 125.353C160.94 125.453 161.007 125.825 160.856 126.157Z" fill="#263238"/>
<path d="M166.798 126.084C166.758 126.075 166.721 126.056 166.692 126.027C166.663 125.999 166.642 125.963 166.631 125.923C166.572 125.651 166.448 125.397 166.27 125.182C166.092 124.966 165.865 124.797 165.608 124.687C165.58 124.678 165.555 124.663 165.533 124.644C165.511 124.625 165.493 124.601 165.48 124.575C165.467 124.549 165.459 124.52 165.457 124.491C165.456 124.462 165.46 124.432 165.469 124.405C165.479 124.377 165.493 124.351 165.513 124.329C165.532 124.307 165.556 124.289 165.582 124.277C165.608 124.264 165.637 124.256 165.666 124.254C165.696 124.253 165.725 124.257 165.753 124.266C166.079 124.401 166.368 124.612 166.596 124.881C166.825 125.15 166.985 125.469 167.065 125.813C167.079 125.87 167.069 125.93 167.039 125.981C167.009 126.032 166.961 126.069 166.904 126.084H166.798Z" fill="#263238"/>
<path d="M159.811 123.996C159.771 123.986 159.735 123.966 159.706 123.937C159.677 123.909 159.657 123.873 159.647 123.833C159.637 123.794 159.639 123.752 159.651 123.714C159.663 123.675 159.686 123.64 159.717 123.613C159.975 123.372 160.287 123.196 160.628 123.1C160.968 123.004 161.327 122.99 161.674 123.059C161.702 123.067 161.729 123.08 161.753 123.098C161.776 123.116 161.796 123.139 161.81 123.165C161.825 123.191 161.834 123.219 161.837 123.249C161.84 123.278 161.838 123.308 161.829 123.336C161.813 123.392 161.775 123.438 161.724 123.466C161.673 123.494 161.613 123.501 161.557 123.486C161.283 123.433 161 123.445 160.732 123.521C160.463 123.597 160.216 123.735 160.011 123.924C159.987 123.951 159.955 123.973 159.92 123.985C159.885 123.998 159.848 124.001 159.811 123.996Z" fill="#263238"/>
<path d="M161.666 126.801C160.972 127.607 160.169 128.314 159.281 128.902C159.439 129.124 159.642 129.309 159.878 129.445C160.115 129.581 160.377 129.664 160.649 129.689L161.666 126.801Z" fill="#FF5652"/>
<path d="M172.883 132.443C172.274 133.082 171.446 133.468 170.564 133.524C169.452 133.552 169.346 132.416 170.008 131.412C170.609 130.525 171.899 129.445 172.827 129.888C173.756 130.331 173.683 131.623 172.883 132.443Z" fill="#FF8B7B"/>
<path d="M159.686 130.856C159.686 130.856 161.282 130.668 165.641 131.039C164.996 132.176 163.929 133.051 161.693 132.846C159.458 132.641 159.686 130.856 159.686 130.856Z" fill="#263238"/>
<path d="M162.838 132.01C161.987 131.888 161.118 132.013 160.336 132.37C160.732 132.656 161.204 132.82 161.693 132.842C162.542 132.964 163.409 132.839 164.189 132.481C163.795 132.196 163.325 132.032 162.838 132.01Z" fill="#FF5652"/>
<path d="M159.895 130.838C159.925 130.992 159.998 131.135 160.107 131.248C160.215 131.362 160.353 131.443 160.506 131.481C161.801 131.591 163.102 131.602 164.398 131.514C164.6 131.521 164.8 131.479 164.983 131.394C165.166 131.308 165.325 131.18 165.449 131.021C163.604 130.833 161.748 130.772 159.895 130.838Z" fill="white"/>
<path opacity="0.2" d="M157.375 170.577C157.375 170.837 157.492 171.053 157.681 171.064C157.87 171.076 158.037 170.876 158.059 170.621C158.081 170.366 157.942 170.144 157.753 170.133C157.564 170.122 157.392 170.322 157.375 170.577Z" fill="black"/>
<path opacity="0.2" d="M153.455 149.331C153.41 149.586 153.527 149.813 153.716 149.841C153.905 149.868 154.089 149.685 154.133 149.43C154.178 149.175 154.055 148.948 153.866 148.92C153.677 148.893 153.499 149.103 153.455 149.331Z" fill="black"/>
<path opacity="0.2" d="M165.651 150.55C165.619 150.652 165.629 150.762 165.678 150.858C165.727 150.953 165.811 151.025 165.913 151.06C166.102 151.087 166.291 150.904 166.33 150.649C166.361 150.547 166.352 150.437 166.303 150.341C166.254 150.246 166.17 150.174 166.068 150.139C165.879 150.112 165.685 150.295 165.651 150.55Z" fill="black"/>
<path d="M171.492 124.827C168.329 124.827 164.02 122.898 164.02 122.898C164.579 122.522 165.241 122.329 165.916 122.344C164.103 121.712 161.329 122.704 159.961 122.116C161.751 121.418 160.928 120.038 163.936 119.949C162.324 118.946 163.82 117.965 163.82 117.965C163.82 117.965 163.992 119.75 167.189 119.955C170.386 120.16 172.426 119.606 173.75 120.997C175.307 122.626 174.361 124.788 171.492 124.827Z" fill="#263238"/>
<path d="M175.544 121.535C175.544 121.535 174.559 123.896 172.652 123.314L174.065 124.029C176.166 122.816 175.544 121.535 175.544 121.535Z" fill="#263238"/>
<path d="M209.186 152.981C209.186 156.146 209.703 159.776 211.66 161.184C208.957 163.486 205.937 165.39 202.692 166.838C199.217 164.388 200.824 162.359 200.824 162.359C203.86 160.696 203.649 158.396 202.698 155.918L207.224 151.95C207.98 151.201 209.186 151.872 209.186 152.981Z" fill="#B55B52"/>
<path d="M198.87 147.402C198.792 147.79 198.52 148.067 198.264 148.011C198.009 147.956 197.87 147.601 197.947 147.213C198.025 146.825 198.298 146.554 198.553 146.604C198.809 146.653 198.948 147.014 198.87 147.402Z" fill="#263238"/>
<path d="M198.658 143.96C198.645 143.913 198.645 143.863 198.658 143.816C198.685 143.76 198.732 143.717 198.79 143.695C198.849 143.673 198.913 143.675 198.97 143.699C199.313 143.842 199.616 144.065 199.853 144.35C200.09 144.635 200.254 144.973 200.332 145.335C200.337 145.365 200.335 145.396 200.328 145.425C200.321 145.455 200.308 145.483 200.29 145.508C200.272 145.533 200.249 145.553 200.223 145.569C200.197 145.585 200.168 145.596 200.137 145.601C200.077 145.607 200.016 145.591 199.966 145.555C199.917 145.519 199.883 145.466 199.871 145.407C199.803 145.119 199.666 144.853 199.473 144.63C199.279 144.407 199.034 144.234 198.759 144.126C198.732 144.107 198.709 144.082 198.692 144.053C198.674 144.025 198.663 143.993 198.658 143.96Z" fill="#263238"/>
<path d="M198.731 148.172C198.185 149.144 197.508 150.037 196.719 150.827C196.926 151.023 197.174 151.172 197.444 151.263C197.715 151.354 198.003 151.385 198.287 151.353L198.731 148.172Z" fill="#A02724"/>
<path d="M212.607 147.122C212.301 151.612 212.379 154.25 209.827 156.545C205.985 160.009 199.735 157.964 198.523 153.485C197.411 149.456 198.112 142.799 203.066 141.008C208.02 139.218 212.913 142.638 212.607 147.122Z" fill="#B55B52"/>
<path d="M200.825 149.224C199.763 148.116 200.058 145.898 200.681 145.062C199.407 144.225 199.063 142.961 199.502 141.425C199.941 139.89 201.242 138.327 203.95 138.266C205.59 138.251 207.179 138.828 208.426 139.89C209.295 139.524 210.234 139.355 211.177 139.396C212.12 139.437 213.041 139.688 213.874 140.128C216.749 141.63 217.611 146.27 215.092 147.85C216.332 151.247 212.067 156.347 208.976 157.228C205.885 158.109 199.763 156.197 200.825 149.224Z" fill="#263238"/>
<path d="M202.2 149.658C202.011 150.556 201.486 151.349 200.732 151.875C199.77 152.507 199.025 151.542 199.064 150.301C199.108 149.192 199.659 147.501 200.732 147.38C201.805 147.258 202.461 148.483 202.2 149.658Z" fill="#B55B52"/>
<path d="M193.924 166.884C193.674 171.146 193.924 179.904 197.06 195.984L221.146 193.811C220.99 190.414 218.116 180.436 219.2 165.105C219.24 164.55 219.167 163.994 218.987 163.468C218.807 162.942 218.522 162.458 218.15 162.044C217.778 161.631 217.326 161.296 216.822 161.06C216.317 160.824 215.77 160.691 215.213 160.67C214.029 160.626 212.717 160.615 211.427 160.67C208 160.779 204.582 161.088 201.191 161.596C199.884 161.834 198.617 162.15 197.538 162.455C196.549 162.727 195.669 163.3 195.021 164.094C194.374 164.888 193.99 165.863 193.924 166.884Z" fill="#B55B52"/>
<path opacity="0.2" d="M196.713 170.465C195.601 172.017 194.733 173.369 194.027 174.539C194.177 176.828 194.439 179.527 194.861 182.737C196.507 179.439 197.719 174.35 196.713 170.465Z" fill="black"/>
<path d="M198.101 195.89C198.101 195.89 196.5 212.879 198.985 220.833C203.094 233.958 206.931 250.127 206.931 250.127L210.823 248.902C210.823 248.902 211.518 232.634 208.437 219.813C207.503 204.531 212.619 194.609 212.619 194.609L198.101 195.89Z" fill="#B55B52"/>
<path d="M212.524 250.658C212.002 249.339 210.656 247 210.751 243.547C210.751 243.547 205.419 244.617 205.747 245.975C206.303 248.436 204.84 252.792 201.126 253.058C199.458 253.18 200.387 254.777 201.604 254.777C205.28 254.777 207.22 253.724 208.91 253.424C210.35 253.169 210.917 253.302 212.085 253.108C213.036 252.948 212.891 251.59 212.524 250.658Z" fill="#B55B52"/>
<path d="M207.941 195.581C207.941 195.581 211.761 216.356 214.191 221.234C217.949 228.745 237.343 236.682 237.343 236.682L238.216 232.73C238.216 232.73 228.764 224.077 223.015 217.914C222.705 209.786 221.668 201.702 219.918 193.758L207.941 195.581Z" fill="#B55B52"/>
<path d="M241.379 232.638C238.836 232.193 236.45 231.103 234.451 229.473C234.451 229.473 231.96 234.495 233.233 235.065C237.125 236.806 237.048 240.825 237.554 244.488C237.782 246.124 240.589 244.488 240.512 243.274C240.272 239.616 240.267 239.478 241.101 237.981C241.813 236.701 242.274 236.346 242.858 235.326C243.347 234.461 243.086 232.998 241.379 232.638Z" fill="#B55B52"/>
<path d="M217.58 161.602C218.736 162.4 219.754 163.182 220.799 164.03C221.844 164.878 222.845 165.754 223.829 166.685C224.846 167.632 225.808 168.637 226.709 169.695C227.171 170.249 227.627 170.803 228.071 171.452C228.553 172.142 228.97 172.875 229.317 173.641C229.53 174.111 229.696 174.602 229.812 175.104C229.869 175.353 229.912 175.605 229.94 175.858C229.976 176.093 229.996 176.33 230.001 176.568C230.033 177.415 229.968 178.263 229.806 179.095C229.523 180.532 229.079 181.932 228.483 183.269C227.389 185.757 225.988 188.099 224.313 190.242C224.062 190.56 223.707 190.78 223.309 190.861C222.912 190.942 222.498 190.88 222.143 190.686C221.787 190.491 221.512 190.177 221.366 189.8C221.221 189.422 221.215 189.005 221.349 188.624L221.377 188.546C222.217 186.274 222.93 183.957 223.512 181.606C223.778 180.543 223.948 179.458 224.018 178.364C224.035 177.932 224.009 177.499 223.94 177.072C223.929 176.993 223.91 176.915 223.885 176.839C223.869 176.777 223.848 176.716 223.824 176.656C223.774 176.543 223.714 176.433 223.646 176.329C223.417 175.959 223.161 175.607 222.878 175.276C222.561 174.888 222.194 174.484 221.8 174.085C221.01 173.286 220.132 172.483 219.231 171.707C218.33 170.931 217.391 170.149 216.451 169.39C215.511 168.63 214.505 167.86 213.588 167.173L213.538 167.134C213.174 166.869 212.867 166.536 212.633 166.153C212.399 165.77 212.243 165.345 212.174 164.901C212.104 164.458 212.123 164.006 212.23 163.57C212.336 163.134 212.527 162.723 212.792 162.361C213.058 161.999 213.392 161.693 213.776 161.459C214.161 161.226 214.587 161.071 215.032 161.002C215.476 160.933 215.93 160.952 216.367 161.057C216.804 161.163 217.216 161.354 217.58 161.619V161.602Z" fill="#B55B52"/>
<path d="M222.709 186.438L220.129 189.109L224.227 192.041C224.227 192.041 226.167 189.869 225.283 187.241L222.709 186.438Z" fill="#B55B52"/>
<path d="M219.103 192.892L221.138 194.145C221.397 194.303 221.705 194.362 222.003 194.31C222.302 194.258 222.572 194.098 222.762 193.862L224.229 192.022L220.132 189.09L218.731 191.141C218.636 191.279 218.571 191.435 218.539 191.599C218.507 191.763 218.508 191.932 218.543 192.096C218.577 192.259 218.645 192.414 218.741 192.551C218.838 192.688 218.961 192.804 219.103 192.892Z" fill="#B55B52"/>
<path d="M200.548 167.776L200.47 168.115L200.409 168.386L200.275 168.896C200.181 169.229 200.081 169.545 199.975 169.866C199.77 170.498 199.53 171.108 199.28 171.706C198.777 172.896 198.196 174.052 197.54 175.165C196.895 176.271 196.182 177.335 195.405 178.352C195.032 178.868 194.621 179.356 194.215 179.843C193.809 180.331 193.387 180.769 192.92 181.279C191.791 182.422 190.413 183.29 188.894 183.818C187.649 184.271 186.362 184.603 185.052 184.81C183.816 185.01 182.568 185.132 181.316 185.176C180.077 185.228 178.837 185.2 177.602 185.093C177.202 185.053 176.828 184.874 176.546 184.588C176.265 184.302 176.093 183.926 176.06 183.526C176.028 183.127 176.137 182.728 176.369 182.401C176.601 182.073 176.941 181.837 177.329 181.734H177.413C179.564 181.218 181.687 180.593 183.773 179.86C184.73 179.519 185.66 179.106 186.553 178.624C187.214 178.296 187.796 177.831 188.26 177.26C188.538 176.867 188.883 176.412 189.172 175.986C189.461 175.559 189.773 175.115 190.04 174.661L190.462 173.99L190.851 173.303C191.124 172.854 191.352 172.383 191.602 171.923C192.069 170.991 192.514 170.049 192.897 169.101C193.098 168.63 193.264 168.148 193.453 167.682C193.537 167.449 193.615 167.211 193.687 166.989L193.859 166.435L193.965 166.086C194.223 165.244 194.797 164.534 195.568 164.105C196.339 163.675 197.246 163.56 198.101 163.783C198.955 164.006 199.69 164.549 200.151 165.3C200.612 166.05 200.765 166.95 200.576 167.81L200.548 167.776Z" fill="#B55B52"/>
<path d="M180.066 182.046L176.808 180.277L175.062 184.989C175.062 184.989 177.676 186.28 179.983 184.739L180.066 182.046Z" fill="#B55B52"/>
<path d="M172.848 181.69L172.798 183.142C172.785 183.501 172.896 183.853 173.111 184.14C173.326 184.427 173.634 184.633 173.982 184.722L175.05 184.988L176.795 180.277L174.488 180.177C174.281 180.169 174.074 180.202 173.879 180.273C173.684 180.345 173.506 180.454 173.353 180.595C173.201 180.735 173.078 180.904 172.991 181.092C172.904 181.28 172.856 181.483 172.848 181.69Z" fill="#B55B52"/>
<path d="M207.125 192.646L208.092 194.896C208.092 194.896 209.555 209.446 211.156 214.562C221.82 215.371 223.199 211.94 223.199 211.94L222.015 203.487C222.015 203.487 223.599 197.013 221.459 191.398C212.101 192.108 207.125 192.646 207.125 192.646Z" fill="#263238"/>
<path opacity="0.2" d="M210.573 204.076C210.156 203.699 209.645 203.44 209.094 203.328C209.544 206.715 210.122 210.406 210.734 212.989C211.963 210.595 212.836 206.039 210.573 204.076Z" fill="black"/>
<path d="M196.145 193.813L196.739 195.986C196.739 195.986 195.438 209.1 196.739 214.277C203.512 216.977 208.933 214.599 208.933 214.599C209.644 212.592 209.516 206.933 210.979 203.89C210.979 203.89 214.042 198.014 212.163 192.211C202.8 192.943 196.145 193.813 196.145 193.813Z" fill="#263238"/>
<path d="M139.933 91.3112L139.222 91.2613C139.393 88.9089 139.289 86.5446 138.91 84.2163L139.611 84.1055C139.996 86.487 140.104 88.9049 139.933 91.3112Z" fill="#F58539"/>
<path d="M137.8 79.6312C136.327 75.0823 133.784 70.9506 130.383 67.5809L130.889 67.082C134.366 70.5313 136.967 74.7573 138.478 79.4094L137.8 79.6312Z" fill="#F58539"/>
<path d="M108.814 117.73C124.681 117.73 137.543 104.907 137.543 89.0894C137.543 73.2719 124.681 60.4492 108.814 60.4492C92.9481 60.4492 80.0859 73.2719 80.0859 89.0894C80.0859 104.907 92.9481 117.73 108.814 117.73Z" fill="#F58539"/>
<path opacity="0.9" d="M126.051 106.27C137.27 95.0854 138.649 78.3255 129.13 68.8357C119.611 59.3459 102.799 60.7199 91.5798 71.9046C80.3606 83.0893 78.9823 99.8492 88.5014 109.339C98.0204 118.829 114.832 117.455 126.051 106.27Z" fill="white"/>
<path d="M115.838 96.0884C127.057 84.9037 133.008 72.7027 129.13 68.8366C125.252 64.9706 113.014 70.9035 101.795 82.0882C90.5754 93.2729 84.6242 105.474 88.5022 109.34C92.3801 113.206 104.619 107.273 115.838 96.0884Z" fill="#F58539"/>
</svg>
