<svg width="156" height="156" viewBox="0 0 156 156" fill="none" xmlns="http://www.w3.org/2000/svg">
<path d="M77.9961 148.695C117.036 148.695 148.684 140.511 148.684 130.414C148.684 120.318 117.036 112.133 77.9961 112.133C38.9565 112.133 7.30859 120.318 7.30859 130.414C7.30859 140.511 38.9565 148.695 77.9961 148.695Z" fill="#FFEBE5"/>
<path d="M77.9961 138.945C104.92 138.945 126.746 135.126 126.746 130.414C126.746 125.702 104.92 121.883 77.9961 121.883C51.0722 121.883 29.2461 125.702 29.2461 130.414C29.2461 135.126 51.0722 138.945 77.9961 138.945Z" fill="#F58539"/>
<path d="M131.621 60.9421C131.626 51.3114 129.037 41.857 124.127 33.5722C119.217 25.2874 112.166 18.4778 103.715 13.8589C95.264 9.23997 85.7252 6.98214 76.1005 7.32258C66.4758 7.66302 57.1204 10.5892 49.017 15.7936C40.9137 20.9981 34.3614 28.2888 30.0486 36.8999C25.7358 45.511 23.8216 55.1246 24.5071 64.7309C25.1926 74.3372 28.4525 83.5816 33.9443 91.4931C39.4361 99.4045 46.9571 105.691 55.7174 109.692L74.7786 128.802C75.6682 129.584 76.8119 130.015 77.9961 130.015C79.1803 130.015 80.324 129.584 81.2136 128.802L100.275 109.692C109.621 105.423 117.544 98.5593 123.101 89.9167C128.659 81.2742 131.616 71.2171 131.621 60.9421Z" fill="#0F50A6"/>
<path d="M77.9961 104.82C102.228 104.82 121.871 85.1768 121.871 60.9453C121.871 36.7138 102.228 17.0703 77.9961 17.0703C53.7646 17.0703 34.1211 36.7138 34.1211 60.9453C34.1211 85.1768 53.7646 104.82 77.9961 104.82Z" fill="white"/>
<path d="M99.9336 55.7778V34.1328H90.1836V48.7091L99.9336 55.7778Z" fill="#E43E15"/>
<path d="M99.9336 51.5853V85.3203H56.0586V51.5853L77.9961 34.1328L99.9336 51.5853Z" fill="#F58539"/>
<path d="M82.8711 68.2578H73.1211V85.3203H82.8711V68.2578Z" fill="#E43E15"/>
<path d="M105.736 59.3049C106.164 59.649 106.697 59.8379 107.247 59.8411C107.756 59.8447 108.254 59.6884 108.671 59.3943C109.087 59.1002 109.4 58.683 109.567 58.2015C109.734 57.7199 109.745 57.1982 109.6 56.7097C109.455 56.2212 109.161 55.7904 108.758 55.478L79.5081 32.2243C79.0778 31.8842 78.5453 31.6992 77.9969 31.6992C77.4484 31.6992 76.9159 31.8842 76.4856 32.2243L47.2356 55.478C46.7281 55.8788 46.4007 56.4648 46.3252 57.1071C46.2498 57.7493 46.4326 58.3952 46.8334 58.9027C47.2342 59.4102 47.8202 59.7376 48.4625 59.8131C49.1047 59.8885 49.7506 59.7057 50.2581 59.3049L77.9969 37.3674L105.736 59.3049Z" fill="#E43E15"/>
</svg>
