<svg width="23" height="23" viewBox="0 0 23 23" fill="none" xmlns="http://www.w3.org/2000/svg">
<path d="M20.125 0.71875C21.3138 0.71875 22.2812 1.68619 22.2812 2.875V20.125C22.2812 21.3138 21.3138 22.2812 20.125 22.2812H2.875C1.68619 22.2812 0.71875 21.3138 0.71875 20.125V2.875C0.71875 1.68619 1.68619 0.71875 2.875 0.71875H20.125ZM20.125 0H2.875C1.29375 0 0 1.29375 0 2.875V20.125C0 21.7062 1.29375 23 2.875 23H20.125C21.7062 23 23 21.7062 23 20.125V2.875C23 1.29375 21.7062 0 20.125 0Z" fill="#1E1F24"/>
<path d="M12 17C14.7614 17 17 14.7614 17 12C17 9.23858 14.7614 7 12 7C9.23858 7 7 9.23858 7 12C7 14.7614 9.23858 17 12 17Z" stroke="#1E1F24" strokeMiterlimit="10"/>
<path d="M19.9375 5.5C19.9375 6.29391 19.2939 6.9375 18.5 6.9375C17.7061 6.9375 17.0625 6.29391 17.0625 5.5C17.0625 4.70609 17.7061 4.0625 18.5 4.0625C19.2939 4.0625 19.9375 4.70609 19.9375 5.5Z" fill="#1E1F24" stroke="#1E1F24" strokeWidth="0.125"/>
</svg>
