<svg width="185" height="184" viewBox="0 0 185 184" fill="none" xmlns="http://www.w3.org/2000/svg">
<path d="M54.4109 61.2717L23.8672 30.7279C40.795 11.7759 65.2667 0 92.4985 0C126.538 0 156.346 18.5839 172.17 45.9998C174.93 50.7838 177.322 55.9357 179.162 61.2717H54.4109Z" fill="#0A9D49"/>
<path d="M184.497 92.0013C184.497 102.857 182.657 113.161 179.161 122.729H54.4102V61.2734H179.161C182.657 71.0254 184.497 81.3293 184.497 92.0013Z" fill="white"/>
<path d="M179.162 122.726C177.322 128.062 174.93 133.214 172.17 137.998C156.346 165.597 126.538 183.997 92.4985 183.997C65.2667 183.997 40.795 172.221 23.8672 153.269L54.4109 122.726H179.162Z" fill="#E81E25"/>
<path d="M54.4114 61.2694V122.725L23.8678 153.269C19.6358 148.485 15.9558 143.517 12.8279 137.997C10.0679 133.213 7.67592 128.061 5.83594 122.725C2.33998 113.157 0.5 102.853 0.5 91.9973C0.5 81.3254 2.33998 71.0214 5.65194 61.2694C7.49192 55.9335 9.8839 50.7815 12.6439 45.9975C15.7718 40.4775 19.6358 35.3256 23.6838 30.7256L54.4114 61.2694Z" fill="#020202"/>
</svg>
