<svg width="23" height="23" viewBox="0 0 23 23" fill="none" xmlns="http://www.w3.org/2000/svg">
<g clip-path="url(#clip0_15_11731)">
<path d="M20.125 0.71875C21.3138 0.71875 22.2812 1.68619 22.2812 2.875V20.125C22.2812 21.3138 21.3138 22.2812 20.125 22.2812H2.875C1.68619 22.2812 0.71875 21.3138 0.71875 20.125V2.875C0.71875 1.68619 1.68619 0.71875 2.875 0.71875H20.125ZM20.125 0H2.875C1.29375 0 0 1.29375 0 2.875V20.125C0 21.7062 1.29375 23 2.875 23H20.125C21.7062 23 23 21.7062 23 20.125V2.875C23 1.29375 21.7062 0 20.125 0Z" fill="#1E1F24"/>
<path d="M17.4648 17.1933V12.7823C17.4648 10.419 16.2034 9.31936 14.5208 9.31936C13.1631 9.31936 12.5551 10.0661 12.2165 10.5901V9.49977H9.65922C9.693 10.2221 9.65922 17.1933 9.65922 17.1933H12.2165V12.8966C12.2165 12.6673 12.2331 12.4373 12.3006 12.2734C12.4853 11.8141 12.9058 11.3383 13.6123 11.3383C14.5381 11.3383 14.9083 12.0434 14.9083 13.0777V17.194L17.4648 17.1933ZM6.96463 8.44967C7.85588 8.44967 8.41147 7.85814 8.41147 7.11998C8.39494 6.3653 7.85588 5.79102 6.98116 5.79102C6.10644 5.79102 5.53503 6.3653 5.53503 7.11998C5.53503 7.85886 6.08991 8.44967 6.94882 8.44967H6.96463ZM8.24328 17.1933V9.49977H5.68669V17.1933H8.24328Z" fill="#1E1F24"/>
</g>
<defs>
<clipPath id="clip0_15_11731">
<rect width="23" height="23" fill="white"/>
</clipPath>
</defs>
</svg>
