<svg width="224" height="224" viewBox="0 0 224 224" fill="none" xmlns="http://www.w3.org/2000/svg">
<g clip-path="url(#clip0_347_37075)">
<path d="M35.5153 43.084C34.3953 43.084 6.57031 64.364 6.57031 109.584C6.57031 156.16 33.5991 180.704 35.1303 180.888C36.6616 181.071 49.5066 169.005 49.5066 168.043C49.5066 167.08 25.9253 150.026 25.9253 110.923C25.9253 71.819 49.3141 57.259 49.3141 55.929C49.3141 55.124 38.5866 43.084 35.5153 43.084Z" fill="#191919"/>
<path d="M35.2528 187.924C34.9194 187.924 34.5862 187.904 34.2553 187.863C32.8203 187.688 30.6503 187.416 24.8141 180.924C20.7865 176.379 17.2358 171.432 14.2178 166.162C7.54156 154.639 -0.429688 135.476 -0.429688 109.603C-0.429688 84.35 7.82156 66.2812 14.7428 55.58C17.864 50.704 21.5145 46.1878 25.6278 42.1138C31.7528 36.0938 33.9403 36.0938 35.5153 36.0938C38.5691 36.0938 41.8153 37.4675 48.5528 44.3188C56.3141 52.1938 56.3141 53.8475 56.3141 55.9388C56.3141 59.1938 54.4066 60.97 52.5603 62.685C47.7041 67.2087 32.9253 80.9638 32.9253 110.95C32.9253 131.443 39.7591 148.575 53.2341 161.796C54.7653 163.301 56.5066 165.007 56.5066 168.079C56.5066 170.607 56.5066 172.287 45.8141 181.72C40.8091 186.13 38.2103 187.924 35.2528 187.924ZM35.9878 51.625C29.4603 57.7938 13.5703 76.2738 13.5703 109.603C13.5703 144.191 29.0578 164.727 35.6816 171.972C37.0291 170.809 38.5516 169.417 39.9253 168.122C25.9953 152.722 18.9253 133.507 18.9253 110.941C18.9253 88.6113 25.9778 69.9825 39.9253 55.5013C38.6303 54.1537 37.2128 52.7362 35.9878 51.625Z" fill="#191919"/>
<path d="M65.4249 68.7773C64.0687 68.7773 46.4462 79.8986 46.0612 109.797C45.6674 140.466 63.3162 155.612 64.4362 155.805C65.5562 155.997 76.8962 144.115 76.8962 143.152C76.8962 142.19 63.3512 132.792 64.0512 112.099C64.8212 89.4798 77.0887 81.8148 77.0887 80.8523C77.0887 79.8898 67.1487 68.7773 65.4249 68.7773Z" fill="#191919"/>
<path d="M64.5134 162.802C64.1087 162.8 63.7048 162.765 63.3059 162.697C56.8746 161.629 48.7284 147.909 48.6496 147.778C44.1521 140.148 38.8321 127.338 39.0246 109.698C39.2521 92.2506 44.9134 80.6569 49.6296 74.0156C52.6309 69.7806 59.7971 61.7656 65.3796 61.7656C68.6609 61.7656 71.2684 63.5156 76.9909 69.6406C83.4046 76.5094 84.0784 78.3206 84.0784 80.8144C84.0784 83.8856 82.2496 85.7056 81.0421 86.9394C78.4171 89.5644 71.5746 96.3806 71.0409 112.314C70.8115 116.889 71.5688 121.459 73.2612 125.715C74.9536 129.971 77.5416 133.813 80.8496 136.981C82.2146 138.389 83.9209 140.139 83.9209 143.106C83.9209 146.072 82.6434 147.813 77.9359 152.853C75.6273 155.359 73.1947 157.748 70.6471 160.011C69.4746 161.052 67.3746 162.802 64.5134 162.802ZM65.1084 77.4631C60.8821 81.4006 53.2959 91.0869 53.0596 109.838C52.8146 129.062 60.2871 140.997 64.7496 146.404C65.7296 145.424 66.7621 144.348 67.7071 143.342C60.3053 134.566 56.509 123.308 57.0846 111.842C57.6446 95.3744 63.6996 85.5919 67.9784 80.4906C67.0509 79.4756 66.0359 78.3994 65.1084 77.4631Z" fill="#191919"/>
<path d="M188.483 43.084C189.603 43.084 217.428 64.364 217.428 109.584C217.428 156.16 190.4 180.704 188.868 180.888C187.337 181.071 174.492 169.005 174.492 168.043C174.492 167.08 198.073 150.026 198.073 110.923C198.073 71.819 174.685 57.2327 174.685 55.9115C174.685 55.124 185.412 43.084 188.483 43.084Z" fill="#191919"/>
<path d="M188.737 187.923C185.78 187.923 183.19 186.173 178.185 181.71C167.492 172.269 167.492 170.598 167.492 168.069C167.492 165.006 169.242 163.3 170.765 161.786C184.24 148.539 191.073 131.433 191.073 110.94C191.073 80.954 176.295 67.1902 171.438 62.6752C169.592 60.9252 167.685 59.1752 167.685 55.929C167.685 53.8377 167.685 52.1927 175.446 44.309C182.192 37.4577 185.43 36.084 188.483 36.084C190.05 36.084 192.202 36.084 198.371 42.104C202.484 46.178 206.135 50.6942 209.256 55.5702C216.177 66.2802 224.428 84.3402 224.428 109.593C224.428 135.466 216.466 154.629 209.781 166.153C206.762 171.42 203.212 176.363 199.185 180.905C193.348 187.389 191.178 187.66 189.735 187.844C189.404 187.891 189.071 187.918 188.737 187.923ZM184.073 168.13C185.438 169.425 186.97 170.816 188.317 171.98C194.941 164.779 210.428 144.199 210.428 109.61C210.428 76.2815 194.538 57.8015 188.011 51.6327C186.786 52.744 185.386 54.1615 184.091 55.509C198.012 69.9902 205.091 88.619 205.091 110.949C205.065 133.506 198.012 152.721 184.073 168.121V168.13Z" fill="#191919"/>
<path d="M158.578 68.7773C159.934 68.7773 177.557 79.8986 177.942 109.797C178.335 140.466 160.687 155.612 159.567 155.805C158.447 155.997 147.107 144.115 147.107 143.152C147.107 142.19 160.652 132.792 159.952 112.099C159.182 89.4798 146.914 81.8148 146.914 80.8523C146.914 79.8898 156.854 68.7773 158.578 68.7773Z" fill="#191919"/>
<path d="M159.486 162.8C156.598 162.8 154.533 161.05 153.361 160.044C150.813 157.781 148.381 155.392 146.072 152.886C141.365 147.838 140.087 146.061 140.087 143.139C140.087 140.216 141.793 138.379 143.158 137.014C146.458 133.845 149.038 130.004 150.724 125.752C152.41 121.499 153.163 116.934 152.932 112.365C152.39 96.4227 145.521 89.5627 142.931 86.9902C141.723 85.7827 139.895 83.9627 139.895 80.8652C139.895 78.3714 140.568 76.5602 146.982 69.6914C152.705 63.5664 155.312 61.8164 158.593 61.8164C164.185 61.8164 171.342 69.8314 174.343 74.0664C179.06 80.7164 184.721 92.3014 184.948 109.749C185.176 127.389 179.856 140.19 175.323 147.829C175.245 147.969 167.09 161.68 160.667 162.748C160.275 162.797 159.88 162.814 159.486 162.8ZM156.292 143.331C157.237 144.338 158.27 145.414 159.25 146.394C163.721 140.995 171.185 129.051 170.94 109.871C170.703 91.0764 163.117 81.3989 158.891 77.4964C157.963 78.4327 156.948 79.5089 156.021 80.5327C160.308 85.6689 166.355 95.4077 166.915 111.884C167.479 123.335 163.683 134.575 156.292 143.34V143.331Z" fill="#191919"/>
<path d="M132.187 112.099C132.187 125.372 123.288 137.01 108.746 136.135C95.8222 135.356 85.3047 125.372 85.3047 112.099C85.3047 98.8249 94.7197 88.4123 108.746 88.0623C122.597 87.7211 132.187 98.8249 132.187 112.099Z" fill="#191919"/>
<path d="M110.304 143.174C109.651 143.174 108.989 143.154 108.318 143.113C91.2031 142.081 78.2969 128.746 78.2969 112.094C78.2969 94.5944 91.0281 81.4694 108.563 81.0582C112.483 80.916 116.392 81.5682 120.053 82.9757C123.715 84.3832 127.054 86.5168 129.869 89.2482C132.858 92.2459 135.221 95.8079 136.821 99.727C138.42 103.646 139.225 107.844 139.188 112.077C139.188 121.317 135.688 129.927 129.563 135.702C124.362 140.606 117.452 143.286 110.304 143.174ZM109.368 95.0494H108.913C99.1306 95.2944 92.2881 102.303 92.2881 112.086C92.2881 121.221 99.5419 128.553 109.149 129.131C111.102 129.323 113.074 129.099 114.933 128.473C116.793 127.847 118.499 126.834 119.938 125.499C123.263 122.367 125.188 117.476 125.188 112.077C125.229 109.711 124.801 107.36 123.926 105.161C123.052 102.962 121.75 100.959 120.096 99.2669C118.675 97.8922 116.997 96.8119 115.157 96.0881C113.318 95.3643 111.353 95.0113 109.377 95.0494H109.368Z" fill="#191919"/>
<path d="M35.5153 43.084C34.3953 43.084 6.57031 64.364 6.57031 109.584C6.57031 156.16 33.5991 180.704 35.1303 180.888C36.6616 181.071 49.5066 169.005 49.5066 168.043C49.5066 167.08 25.9253 150.026 25.9253 110.923C25.9253 71.819 49.3141 57.259 49.3141 55.929C49.3141 55.124 38.5866 43.084 35.5153 43.084Z" fill="white"/>
<path d="M65.4249 68.7773C64.0687 68.7773 46.4462 79.8986 46.0612 109.797C45.6674 140.466 63.3162 155.612 64.4362 155.805C65.5562 155.997 76.8962 144.115 76.8962 143.152C76.8962 142.19 63.3512 132.792 64.0512 112.099C64.8212 89.4798 77.0887 81.8148 77.0887 80.8523C77.0887 79.8898 67.1487 68.7773 65.4249 68.7773Z" fill="white"/>
<path d="M188.483 43.084C189.603 43.084 217.428 64.364 217.428 109.584C217.428 156.16 190.4 180.704 188.868 180.888C187.337 181.071 174.492 169.005 174.492 168.043C174.492 167.08 198.073 150.026 198.073 110.923C198.073 71.819 174.685 57.2327 174.685 55.9115C174.685 55.124 185.412 43.084 188.483 43.084Z" fill="white"/>
<path d="M158.578 68.7773C159.934 68.7773 177.557 79.8986 177.942 109.797C178.335 140.466 160.687 155.612 159.567 155.805C158.447 155.997 147.107 144.115 147.107 143.152C147.107 142.19 160.652 132.792 159.952 112.099C159.182 89.4798 146.914 81.8148 146.914 80.8523C146.914 79.8898 156.854 68.7773 158.578 68.7773Z" fill="white"/>
<path d="M132.187 112.099C132.187 125.372 123.288 137.01 108.746 136.135C95.8222 135.356 85.3047 125.372 85.3047 112.099C85.3047 98.8249 94.7197 88.4123 108.746 88.0623C122.597 87.7211 132.187 98.8249 132.187 112.099Z" fill="#0F50A6"/>
</g>
<defs>
<clipPath id="clip0_347_37075">
<rect width="224" height="224" fill="white"/>
</clipPath>
</defs>
</svg>
