<svg width="41" height="40" viewBox="0 0 41 40" fill="none" xmlns="http://www.w3.org/2000/svg">
<rect x="1" y="0.5" width="39" height="39" rx="9.5" fill="#FDFDFE"/>
<rect x="1" y="0.5" width="39" height="39" rx="9.5" stroke="#CDCED7"/>
<g clip-path="url(#clip0_157_9202)">
<path d="M20.5 10C16.635 10 13.5 13.135 13.5 17C13.5 22.25 20.5 30 20.5 30C20.5 30 27.5 22.25 27.5 17C27.5 13.135 24.365 10 20.5 10ZM20.5 19.5C19.12 19.5 18 18.38 18 17C18 15.62 19.12 14.5 20.5 14.5C21.88 14.5 23 15.62 23 17C23 18.38 21.88 19.5 20.5 19.5Z" fill="black"/>
</g>
<defs>
<clipPath id="clip0_157_9202">
<rect width="24" height="24" fill="white" transform="translate(8.5 8)"/>
</clipPath>
</defs>
</svg>