<svg xmlns="http://www.w3.org/2000/svg" id="Layer_1" version="1.1" viewBox="365.8 364.2 791.3 796">
  <!-- Generator: Adobe Illustrator 29.1.0, SVG Export Plug-In . SVG Version: 2.1.0 Build 142)  -->
  <defs>
    <style>
      .st0 {
        fill: #f38c35;
      }

      .st1 {
        fill: #373a3b;
      }
    </style>
  </defs>
  <path className="st1" d="M749.9,364.2v284.1h-71.7v-269.3c22.4-8.6,46.6-13.7,71.7-14.8Z"/>
  <path className="st1" d="M778.6,554.6h71.7v254.4c-20.4,8.6-42.3,14.4-65.2,16.9-2.1.3-4.3.5-6.5.6v-271.9Z"/>
  <path className="st0" d="M529.4,596.3c0,111.4,78.9,204.4,183.9,226.1v-69.9c-67.2-20.2-116.1-82.5-116.1-156.2s32.5-112.6,80.9-140.9v-74.9c-86.9,33.1-148.7,117.2-148.7,215.8ZM820.3,444.7c60.4,23.9,103,82.8,103,151.7s-29,106.7-73.1,135.9v76.8c82.8-35.1,140.8-117.1,140.8-212.7s-72.4-196.6-170.8-223v71.4Z"/>
  <g>
    <path className="st1" d="M365.8,1103.6h5.2v46h-5.2v-46Z"/>
    <path className="st1" d="M383.6,1115.6h5.1v5.9c2.2-3.7,5.8-6.6,11.6-6.6s13,5.5,13,13.6v21.1h-5.1v-19.8c0-6.3-3.4-10.2-9.4-10.2s-10.2,4.3-10.2,10.6v19.4h-5.1v-33.9Z"/>
    <path className="st1" d="M425.8,1140.5v-20.5h-4.7v-4.5h4.7v-10.2h5.1v10.2h10.8v4.5h-10.8v19.8c0,4.1,2.3,5.6,5.7,5.6s3.2-.3,4.9-1.2v4.3c-1.8.9-3.7,1.4-6.1,1.4-5.4,0-9.6-2.7-9.6-9.6Z"/>
    <path className="st1" d="M464.5,1145.9c4.7,0,7.9-1.9,10.7-4.8l3.2,2.8c-3.4,3.8-7.5,6.4-14,6.4-9.3,0-16.9-7.2-16.9-17.7s6.9-17.7,16.3-17.7,15.8,8,15.8,18,0,1,0,1.8h-26.9c.7,7.2,6,11.3,11.9,11.3ZM474.4,1130.6c-.6-6.2-4.1-11.4-10.8-11.4s-10.3,4.9-11,11.4h21.9Z"/>
    <path className="st1" d="M488.4,1115.6h5.1v8.9c2.5-5.6,7.4-9.7,13.9-9.5v5.4h-.4c-7.4,0-13.5,5.3-13.5,15.6v13.5h-5.1v-33.9Z"/>
    <path className="st1" d="M515,1115.6h5.1v5.9c2.2-3.7,5.8-6.6,11.6-6.6s13,5.5,13,13.6v21.1h-5.1v-19.8c0-6.3-3.4-10.2-9.4-10.2s-10.2,4.3-10.2,10.6v19.4h-5.1v-33.9Z"/>
    <path className="st1" d="M552.9,1139.7h0c0-7.4,5.9-11.2,14.5-11.2s7.4.6,10.4,1.4v-1.1c0-6-3.7-9.2-10-9.2s-7.2,1-10.3,2.4l-1.5-4.1c3.7-1.7,7.4-2.9,12.3-2.9s8.5,1.3,11,3.7,3.5,5.6,3.5,10v20.7h-5v-5.1c-2.4,3-6.2,5.8-12.2,5.8s-12.7-3.6-12.7-10.6ZM577.8,1137.1v-3.2c-2.5-.7-5.8-1.4-9.9-1.4-6.3,0-9.9,2.8-9.9,6.8h0c0,4.4,3.9,6.9,8.5,6.9s11.3-3.7,11.3-9.1Z"/>
    <path className="st1" d="M594.9,1140.5v-20.5h-4.7v-4.5h4.7v-10.2h5.1v10.2h10.8v4.5h-10.8v19.8c0,4.1,2.3,5.6,5.7,5.6s3.2-.3,4.9-1.2v4.3c-1.8.9-3.7,1.4-6.1,1.4-5.4,0-9.6-2.7-9.6-9.6Z"/>
    <path className="st1" d="M619.8,1102.6h5.8v5.6h-5.8v-5.6ZM620.1,1115.6h5.1v33.9h-5.1v-33.9Z"/>
    <path className="st1" d="M634.8,1132.7h0c0-9.7,7.5-17.9,17.7-17.9s17.7,8,17.7,17.6h0c0,9.7-7.5,17.9-17.8,17.9s-17.6-8-17.6-17.6ZM665,1132.7h0c0-7.4-5.4-13.4-12.6-13.4s-12.4,6-12.4,13.1h0c0,7.4,5.4,13.3,12.5,13.3s12.5-5.9,12.5-13.1Z"/>
    <path className="st1" d="M679.3,1115.6h5.1v5.9c2.2-3.7,5.8-6.6,11.6-6.6s13,5.5,13,13.6v21.1h-5.1v-19.8c0-6.3-3.4-10.2-9.4-10.2s-10.2,4.3-10.2,10.6v19.4h-5.1v-33.9Z"/>
    <path className="st1" d="M717.2,1139.7h0c0-7.4,5.9-11.2,14.5-11.2s7.4.6,10.4,1.4v-1.1c0-6-3.7-9.2-10-9.2s-7.2,1-10.3,2.4l-1.5-4.1c3.7-1.7,7.4-2.9,12.3-2.9s8.5,1.3,11,3.7,3.5,5.6,3.5,10v20.7h-5v-5.1c-2.4,3-6.2,5.8-12.2,5.8s-12.7-3.6-12.7-10.6ZM742.1,1137.1v-3.2c-2.5-.7-5.8-1.4-9.9-1.4-6.3,0-9.9,2.8-9.9,6.8h0c0,4.4,3.9,6.9,8.5,6.9s11.3-3.7,11.3-9.1Z"/>
    <path className="st1" d="M758.2,1101.6h5.1v47.9h-5.1v-47.9Z"/>
    <path className="st1" d="M807.7,1108.4h-15.4v-4.8h36.1v4.8h-15.4v41.2h-5.3v-41.2Z"/>
    <path className="st1" d="M831.4,1115.6h5.1v8.9c2.5-5.6,7.4-9.7,13.9-9.5v5.4h-.4c-7.4,0-13.5,5.3-13.5,15.6v13.5h-5.1v-33.9Z"/>
    <path className="st1" d="M853.8,1139.7h0c0-7.4,5.9-11.2,14.5-11.2s7.4.6,10.4,1.4v-1.1c0-6-3.7-9.2-10-9.2s-7.2,1-10.3,2.4l-1.5-4.1c3.7-1.7,7.4-2.9,12.3-2.9s8.5,1.3,11,3.7,3.5,5.6,3.5,10v20.7h-5v-5.1c-2.4,3-6.2,5.8-12.2,5.8s-12.7-3.6-12.7-10.6ZM878.7,1137.1v-3.2c-2.5-.7-5.8-1.4-9.9-1.4-6.3,0-9.9,2.8-9.9,6.8h0c0,4.4,3.9,6.9,8.5,6.9s11.3-3.7,11.3-9.1Z"/>
    <path className="st1" d="M892.4,1132.7h0c0-11.2,8.1-17.8,16.2-17.8s10.4,3.4,13,7.2v-20.5h5.1v47.9h-5.1v-6.8c-2.8,4.1-6.8,7.5-13,7.5s-16.2-6.4-16.2-17.6ZM921.8,1132.6h0c0-7.9-6-13.2-12.3-13.2s-11.9,4.9-11.9,13.1h0c0,8.1,5.5,13.3,11.9,13.3s12.3-5.3,12.3-13.1Z"/>
    <path className="st1" d="M938.1,1102.6h5.8v5.6h-5.8v-5.6ZM938.4,1115.6h5.1v33.9h-5.1v-33.9Z"/>
    <path className="st1" d="M955.2,1115.6h5.1v5.9c2.2-3.7,5.8-6.6,11.6-6.6s13,5.5,13,13.6v21.1h-5.1v-19.8c0-6.3-3.4-10.2-9.4-10.2s-10.2,4.3-10.2,10.6v19.4h-5.1v-33.9Z"/>
    <path className="st1" d="M995.3,1155.5l2.3-3.9c3.9,2.8,8.2,4.3,13.1,4.3,7.5,0,12.3-4.1,12.3-12.1v-4c-3,3.9-7.1,7.2-13.3,7.2s-16-6.1-16-15.9h0c0-10,7.9-16.1,16-16.1s10.5,3.2,13.3,6.8v-6.1h5.1v28c0,5.3-1.6,9.3-4.3,12s-7.5,4.5-12.9,4.5-10.9-1.6-15.4-4.7ZM1023.1,1131h0c0-7.1-6-11.6-12.5-11.6s-11.8,4.5-11.8,11.4h0c0,7,5.4,11.7,11.8,11.7s12.5-4.7,12.5-11.5Z"/>
    <path className="st1" d="M1057.8,1126.7h0c0-13.1,9.7-23.9,23.2-23.9s13.3,3,17.9,7.3l-3.5,3.8c-3.9-3.7-8.2-6.3-14.4-6.3-10.2,0-17.8,8.3-17.8,18.8h0c0,10.8,7.7,19.1,17.8,19.1s10.4-2.4,14.8-6.6l3.4,3.3c-4.8,4.9-10,8.1-18.4,8.1-13.3,0-23-10.4-23-23.6Z"/>
    <path className="st1" d="M1104.6,1132.7h0c0-9.7,7.5-17.9,17.7-17.9s17.7,8,17.7,17.6h0c0,9.7-7.5,17.9-17.8,17.9s-17.6-8-17.6-17.6ZM1134.8,1132.7h0c0-7.4-5.4-13.4-12.6-13.4s-12.4,6-12.4,13.1h0c0,7.4,5.4,13.3,12.5,13.3s12.5-5.9,12.5-13.1Z"/>
    <path className="st1" d="M1147.2,1142.7h6v6.9h-6v-6.9Z"/>
  </g>
  <g>
    <path className="st1" d="M396.9,1003.3h102.5v-35.7c-32.2.3-81.4.3-102.5.3v-18.4h-30.1v131h154.6v-35.4h-124.4v-41.8Z"/>
    <rect className="st1" x="366.8" y="894.2" width="154.6" height="35.4"/>
    <path className="st1" d="M820.9,1003.3h102.5v-35.7c-32.2.3-81.4.3-102.5.3v-18.4h-30.1v131h154.6v-35.4h-124.4v-41.8Z"/>
    <rect className="st1" x="790.7" y="894.2" width="154.6" height="35.4"/>
    <rect className="st1" x="998.6" y="949.6" width="29.9" height="131"/>
    <polygon className="st1" points="1127.1 894.2 1127.1 1045.1 1045.6 894.2 998.6 894.2 998.6 929.5 1029.8 929.5 1110.1 1080.5 1157.1 1080.5 1157.1 894.2 1127.1 894.2"/>
    <polygon className="st1" points="706.2 929.5 706.2 949.5 737.4 949.5 737.4 929.5 737.4 894.3 706.2 894.3 605.9 894.3 574.7 894.3 574.7 929.5 605.9 929.5 706.2 929.5"/>
    <polygon className="st1" points="737.4 969.5 706.2 969.5 605.9 969.5 605.9 949.6 574.7 949.6 574.7 969.5 574.7 1004.7 605.9 1004.7 706.2 1004.7 706.2 1044.7 605.9 1044.7 605.9 1024.7 574.7 1024.7 574.7 1044.7 574.7 1079.8 605.9 1079.8 706.2 1079.8 737.4 1079.8 737.4 1044.7 737.4 1004.7 737.4 1004.7 737.4 1004.7 737.4 969.5 737.4 969.5 737.4 969.5"/>
  </g>
</svg>