
<svg xmlns="http://www.w3.org/2000/svg" id="Layer_1" version="1.1" viewBox="417.1 262.2 687.5 873.6">
  <!-- Generator: Adobe Illustrator 29.1.0, SVG Export Plug-In . SVG Version: 2.1.0 Build 142)  -->
  <defs>
    <style>
      .st0 {
        font-family: GESSTwoMedium-Medium, 'GE SS Two';
        font-size: 66.6px;
        font-weight: 500;
      }

      .st0, .st1 {
        fill: #373a3b;
      }

      .st2 {
        fill: #f38c35;
      }
    </style>
  </defs>
  <path className="st1" d="M747,262.2v355.6h-89.8v-337c28.1-10.7,58.3-17.2,89.8-18.5Z"/>
  <path className="st1" d="M782.9,500.6h89.8v318.4c-25.6,10.8-52.9,18-81.7,21.1-2.7.3-5.4.6-8.1.8v-340.3Z"/>
  <path className="st2" d="M471,552.8c0,139.4,98.8,255.8,230.2,282.9v-87.5c-84.1-25.3-145.3-103.2-145.3-195.5s40.7-140.9,101.2-176.4v-93.8c-108.8,41.4-186.1,146.7-186.1,270.2ZM835.1,363c75.6,29.9,129,103.7,129,189.8s-36.3,133.6-91.4,170.1v96.1c103.6-43.9,176.3-146.6,176.3-266.2s-90.7-246.1-213.8-279.2v89.3Z"/>
  <text className="st0" transform="translate(930.3 1022.8)"><tspan x="0" y="0">شركة</tspan></text>
  <g>
    <path className="st1" d="M511.3,953.5v49.7c0,7.5-1,13.9-3.1,19v34.6c5-2.4,9.5-5.6,13.4-9.5,10.4-10.4,15.6-25.1,15.6-44.1v-49.7h-25.8ZM443,1007.4c0-7.3,1.4-16.1,4.3-26.2h-24.1c-3.5,11.3-5.3,21.4-5.3,30.3s2.7,21.3,8.2,29.1c5.5,7.7,12.7,13.4,21.7,17,9,3.6,18.9,5.4,29.8,5.4s14.6-.8,20.8-2.5v-26.2c-5.2,3.3-12.2,4.9-20.8,4.9-23,0-34.5-10.6-34.5-31.7ZM487.8,938.3c-2.8-2.7-6.3-4-10.3-4s-7.4,1.4-10.3,4c-2.9,2.7-4.3,5.9-4.3,9.7s1.4,7,4.3,9.7c2.8,2.7,6.3,4,10.3,4s7.4-1.4,10.3-4c2.9-2.7,4.3-5.9,4.3-9.7s-1.4-7-4.3-9.7Z"/>
    <path className="st1" d="M555.2,904.3v118.8h25.8v-118.8h-25.8Z"/>
    <path className="st1" d="M826.7,999.1c-6,0-10.5-1.7-13.4-5.1-2.9-3.4-4.4-8.6-4.4-15.6v-38.8h-25.8v38.8c0,7.2-1.3,12.5-3.9,15.8-2.6,3.3-6.7,4.9-12.3,4.9h-14.4v-59.6h-25.8v63.8c0,12.3-2.7,21.4-8.2,27.2-5.5,5.8-14,8.7-25.5,8.7-23,0-34.5-10.6-34.5-31.9s1.4-16.1,4.3-26.2h-24.1c-3.5,11.1-5.3,21.2-5.3,30.3s2.7,21.5,8.2,29.2c5.5,7.7,12.7,13.4,21.7,17,9,3.6,18.9,5.4,29.8,5.4,15.4,0,28-3.4,37.7-10.3,9.8-6.8,16.3-16.7,19.6-29.7h20c5.9,0,11.4-1.2,16.3-3.5,5-2.3,9.1-5.6,12.6-10,5.8,8.9,16,13.4,30.7,13.4v-24h-3.2ZM839.5,934.2v40.4h.1s0,48.4,0,48.4h25.7v-88.9h-25.8Z"/>
    <path className="st1" d="M883.5,904.3v118.8h25.8v-118.8h-25.8Z"/>
  </g>
  <g>
    <path className="st1" d="M455.5,1113.9v5.6h-22.2c-4,0-7.2-.5-9.5-1.6-2.3-1-4-2.8-5.1-5.2-1-2.4-1.6-5.7-1.6-10s.5-7.4,1.5-9.9c1-2.4,2.6-4.2,4.9-5.2,2.3-1.1,5.4-1.6,9.4-1.6s4.6,0,7.9.3c3.4.2,5.8.4,7.3.5v27.1h7.3ZM424.4,1109.4c.7,1.6,1.8,2.8,3.3,3.5,1.5.7,3.6,1,6.3,1h8.1v-21.8c-3.5-.3-6.3-.4-8.3-.4s-4.6.4-6.1,1.1c-1.5.7-2.6,1.9-3.2,3.5-.7,1.6-1,3.7-1,6.5s.3,5.1,1,6.7ZM427.3,1074.2h5.6v6.4h-5.6v-6.4ZM436.1,1074.2h5.5v6.4h-5.5v-6.4Z"/>
    <path className="st1" d="M471.5,1086.7v32.8h-16v-5.6h9.8v-27.2h6.2ZM461.2,1124.7h5.6v6.3h-5.6v-6.3ZM470,1124.7h5.5v6.3h-5.5v-6.3Z"/>
    <path className="st1" d="M480.8,1135.6h-1.6v-5.6c1.4.1,2.6.2,3.5.2,2,0,3.5-.8,4.5-2.4,1-1.6,1.5-3.8,1.5-6.6v-34.4h6.2v33.1c0,5.2-.9,9.1-2.7,11.8-1.8,2.7-4.5,4.1-8.1,4.1s-2.1,0-3.3-.2Z"/>
    <path className="st1" d="M645.2,1113.9v5.6h-140.2v-46.7h6.2v41.1h134Z"/>
    <path className="st1" d="M678.5,1113.9v5.6h-39.3v-5.6h25.8v-16.1c0-4.2-2.1-6.3-6.4-6.3s-6.5.4-13.6,1l-.2-4.4c2.4-.6,5-1.1,8-1.5,3-.4,5.4-.6,7.3-.6,3.5,0,6.2.8,8.1,2.5,2,1.7,3,4.5,3,8.6v16.8h7.3ZM656,1124.7h6v6.4h-6v-6.4Z"/>
    <path className="st1" d="M704.3,1113.9v5.6h-25.8v-5.6h9.8v-27.2h6.2v27.2h9.8ZM684.2,1074.2h5.6v6.4h-5.6v-6.4ZM693,1074.2h5.5v6.4h-5.5v-6.4Z"/>
    <path className="st1" d="M718.6,1072.8v46.7h-14.3v-5.6h8.1v-41.1h6.2Z"/>
    <path className="st1" d="M730,1072.8h6.2v46.7h-6.2v-46.7Z"/>
    <path className="st1" d="M805.5,1113.9v5.6h-22.2c-4,0-7.2-.5-9.5-1.6-2.3-1-4-2.8-5.1-5.2-1-2.4-1.6-5.7-1.6-10s.5-7.4,1.5-9.9c1-2.4,2.6-4.2,4.9-5.2,2.3-1.1,5.4-1.6,9.4-1.6s4.6,0,7.9.3c3.4.2,5.8.4,7.3.5v27.1h7.3ZM774.4,1109.4c.7,1.6,1.8,2.8,3.3,3.5,1.5.7,3.6,1,6.3,1h8.1v-21.8c-3.5-.3-6.3-.4-8.3-.4s-4.6.4-6.1,1.1c-1.5.7-2.6,1.9-3.2,3.5-.7,1.6-1,3.7-1,6.5s.3,5.1,1,6.7ZM777.3,1074.2h5.6v6.4h-5.6v-6.4ZM786.1,1074.2h5.5v6.4h-5.5v-6.4Z"/>
    <path className="st1" d="M831.3,1113.9v5.6h-25.8v-5.6h9.8v-27.2h6.2v27.2h9.8ZM811.2,1124.7h5.6v6.3h-5.6v-6.3ZM820,1124.7h5.5v6.3h-5.5v-6.3Z"/>
    <path className="st1" d="M877.7,1113.9v5.6h-2.6c-.8,0-1.6-.3-2.5-.8-.9-.5-1.6-1.1-2.2-1.9v2.7h-39.2v-5.6h10.6c-.6-3.6-.9-7.1-.9-10.6s.2-5.5.6-8.4c.4-2.8.8-5.2,1.3-7.1,1.2-.5,2.8-.9,4.9-1.3,2.1-.4,4.3-.6,6.7-.6,5.7,0,9.8,1.3,12.2,4,2.5,2.7,3.7,7,3.7,13.1v8.1c.5.8,1.1,1.4,1.9,1.9.8.5,1.7.8,2.8.8h2.6ZM847.5,1109.2c.2,1.9.4,3.5.6,4.7h16.1v-11c0-4-.8-6.9-2.5-8.7-1.7-1.8-4.4-2.7-8-2.7s-3.7.2-5.5.6c-.7,4-1,7.7-1,11.2s0,3.9.3,5.9Z"/>
    <path className="st1" d="M892,1072.8v46.7h-14.3v-5.6h8.1v-41.1h6.2Z"/>
    <path className="st1" d="M915.9,1113.9v5.6h-12.5v-46.7h6.2v41.1h6.2Z"/>
    <path className="st1" d="M915.9,1113.9h16.4v5.6h-16.4v-5.6Z"/>
    <path className="st1" d="M932.3,1113.9h16.4v5.6h-16.4v-5.6Z"/>
    <path className="st1" d="M948.7,1113.9h85.2v5.6h-85.2v-5.6Z"/>
    <path className="st1" d="M1072.7,1113.9v5.6h-7.4c-2.1,0-4.3-.3-6.6-.8-2.3-.5-4.4-1.2-6.3-2.2-1.9.9-3.9,1.6-6.2,2.2-2.2.5-4.4.8-6.5.8h-8.3v-5.6h8.1c2.2,0,4.5-.4,6.9-1.2-3.2-2.5-5.7-5.4-7.6-8.5-1.9-3.1-2.9-6-3-8.6l-.2-5c2.6-1.4,5.4-2.6,8.2-3.4,2.9-.8,5.7-1.2,8.5-1.2s5.7.4,8.6,1.2c2.9.8,5.7,2,8.4,3.4l-.3,5c0,2.6-1.1,5.4-3,8.6-1.9,3.1-4.5,6-7.7,8.5,2.4.8,4.7,1.2,7,1.2h7.5ZM1044.7,1102.6c1.9,2.8,4.4,5.3,7.7,7.3,3.3-2.1,5.9-4.6,7.8-7.4,1.9-2.8,2.8-5.7,2.8-8.8-4-1.4-7.6-2.2-10.6-2.2s-6.5.7-10.5,2.2c0,3,.9,5.9,2.8,8.8Z"/>
    <path className="st1" d="M1087,1072.8v46.7h-14.3v-5.6h8.1v-41.1h6.2Z"/>
    <path className="st1" d="M1098.4,1072.8h6.2v46.7h-6.2v-46.7Z"/>
  </g>
</svg>