<svg width="140" height="48" viewBox="0 0 140 48" fill="none" xmlns="http://www.w3.org/2000/svg">
<path d="M13.1062 10.8859C12.3033 10.7878 11.6397 11.2589 10.9212 11.8302C8.86378 13.4616 6.4844 17.3389 6.4844 17.3389L0 8.55957V47.0125H15.3442V13.0003C15.2107 12.6823 14.4667 11.0509 13.1062 10.8859Z" fill="white"/>
<path d="M23.7605 17.6706C26.3539 14.5943 29.9347 13.0552 34.507 13.0552C39.0792 13.0552 42.9231 14.6827 45.5185 17.9337V0H59.5611V47.0084H46.6395C46.1997 45.9974 45.8699 44.635 45.65 42.9211C43.0135 46.3056 39.2971 47.9979 34.507 47.9979C29.7168 47.9979 26.3421 46.4489 23.7271 43.3491C21.1122 40.2492 19.8047 35.9753 19.8047 30.5256C19.8047 25.0758 21.124 20.7901 23.7605 17.6687V17.6706ZM33.386 30.5275C33.386 32.901 33.9455 34.7464 35.0665 36.0657C36.1875 37.3849 37.758 38.0426 39.7801 38.0426C41.0542 38.0426 42.2085 37.7245 43.2412 37.0865C44.2738 36.4504 45.0316 35.5592 45.5165 34.4166V26.5697C45.0316 25.4723 44.2738 24.5928 43.2412 23.9332C42.2085 23.2735 41.009 22.9437 39.6486 22.9437C37.7148 22.9437 36.1875 23.6151 35.0665 24.954C33.9455 26.2949 33.386 28.1521 33.386 30.5256V30.5275Z" fill="white"/>
<path d="M69.3206 17.604C72.66 14.5277 77.1655 12.9885 82.8371 12.9885C88.5088 12.9885 92.8356 14.5159 95.9571 17.5706C99.0785 20.6253 100.639 24.6813 100.639 29.7345C100.639 31.362 100.508 32.5693 100.243 33.3605H77.6936C78.2649 36.9217 81.3863 38.7003 87.056 38.7003C91.1434 38.7003 94.9225 37.7777 98.3954 35.9303L98.7252 45.3575C95.0756 47.0714 90.3738 47.9293 84.6158 47.9293C78.1098 47.9293 73.0997 46.3587 69.5837 43.2157C66.0656 40.0746 64.3086 35.7988 64.3086 30.3922C64.3086 24.9855 65.9793 20.7235 69.3186 17.602L69.3206 17.604ZM77.6268 27.8243H87.9787C87.8904 25.9769 87.374 24.5281 86.4298 23.4719C85.4835 22.4177 84.3095 21.8896 82.9019 21.8896C81.4943 21.8896 80.3851 22.3745 79.4408 23.3404C78.4946 24.3082 77.8919 25.8022 77.6268 27.8243Z" fill="white"/>
<path d="M105.975 28.7467C108.26 26.8129 111.425 25.8451 115.469 25.8451C119.513 25.8451 123.008 26.8993 125.556 29.0097V27.0976C125.556 25.5153 124.655 24.3177 122.852 23.505C121.05 22.6922 118.918 22.2858 116.456 22.2858C112.938 22.2858 109.403 23.077 105.841 24.6593L106.04 15.3636C110.127 13.8265 114.566 13.0549 119.358 13.0549C123.094 13.0549 126.402 13.4397 129.28 14.2093C132.158 14.9789 134.565 16.3413 136.499 18.2966C138.432 20.2539 139.4 22.704 139.4 25.6488V47.0102H127.466C126.763 46.1758 126.28 45.2963 126.015 44.3736C123.685 46.7923 120.236 47.9996 115.663 47.9996C111.531 47.9996 108.301 47.0102 105.971 45.0332C103.641 43.0563 102.477 40.353 102.477 36.9233C102.477 33.4936 103.641 30.7256 105.971 28.7486L105.975 28.7467ZM121.272 40.351C123.294 40.351 124.721 39.7582 125.558 38.5704V34.2848C124.81 33.0971 123.383 32.5042 121.272 32.5042C118.107 32.5042 116.525 33.8235 116.525 36.46C116.525 39.0966 118.107 40.3491 121.272 40.3491V40.351Z" fill="white"/>
<path d="M0 0.901367V5.13007C6.31556 6.68098 11.4886 9.14085 12.9727 10.201C13.5852 10.6348 14.7631 11.477 15.3442 12.9082V0.901367H0Z" fill="#28BDE1"/>
</svg>
