<svg width="165" height="164" viewBox="0 0 165 164" fill="none" xmlns="http://www.w3.org/2000/svg">
<g clip-path="url(#clip0_648_68853)">
<path d="M144.332 73.7179C140.138 86.2586 135.195 98.5207 128.552 109.98C124.801 116.453 120.576 122.687 115.713 128.383C112.306 132.373 99.0923 146.485 100.826 128.65C101.396 122.787 106.07 115.525 108.604 110.152C111.452 104.109 114.501 98.1622 117.76 92.3306C120.655 87.1488 123.708 82.0479 126.921 77.0566C128.793 74.1477 130.635 71.1628 132.925 68.5557C133.962 66.9859 135.273 65.6952 136.858 64.6837C141.142 60.1839 143.225 63.4149 143.107 74.3769C141.412 77.2574 145.911 79.8495 147.607 76.9666C154.738 64.8501 147.1 49.6715 133.353 60.5998C124.969 67.2645 119.524 78.728 114.361 87.8054C107.756 99.4157 101.615 111.556 96.9414 124.086C92.6669 135.546 96.5554 152.493 110.626 141.204C130.395 125.343 141.565 98.3297 149.36 75.0187C150.419 71.8522 145.389 70.556 144.332 73.7179Z" fill="#D5E6FF"/>
<path d="M138.935 57.1732C127.947 56.3683 117.222 58.9825 106.433 58.4395C93.6324 57.7952 79.9305 50.5931 69.1931 44.1239C57.2131 36.9061 41.2279 32.3773 32.9319 47.955C24.8498 63.1312 36.5322 74.9931 48.6719 82.2119C55.0948 86.0312 60.6639 89.8508 65.3127 95.7577C69.5491 101.14 71.0761 106.854 74.1208 112.835C78.8608 122.146 87.3731 129.681 95.3476 136.157C97.9179 138.244 101.632 134.61 99.0412 132.506C90.3351 125.435 81.9116 117.676 77.6487 107.117C75.467 101.714 72.8864 96.7934 69.2177 92.2067C64.5346 86.3516 59.3539 82.4389 52.9234 78.6608C47.5909 75.5277 41.2745 72.6361 38.0281 66.9775C33.8116 59.6281 35.3423 49.5048 42.9393 44.6426C53.0268 38.1864 63.3844 47.0834 71.9697 51.7248C79.4176 55.7513 87.3547 59.0727 95.472 61.4871C109.85 65.7635 124.167 61.2819 138.97 62.3662C142.301 62.6102 142.255 57.4164 138.935 57.1732Z" fill="#D5E6FF"/>
<path d="M76.363 52.4719C73.1219 57.0971 73.1299 63.0618 70.6824 68.1395C68.0007 73.7033 64.8347 79.081 61.8189 84.4683C60.1879 87.3819 64.6839 89.9795 66.3192 87.058C69.3403 81.6613 72.4235 76.2661 75.1828 70.7292C77.6554 65.7678 77.734 59.5274 80.8634 55.0616C82.7804 52.3259 78.2685 49.7526 76.363 52.4719Z" fill="#D5E6FF"/>
<path d="M62.6046 83.5867C61.9332 84.7535 61.2618 85.9202 60.5904 87.087C58.924 89.9828 63.4216 92.5773 65.0908 89.6767C65.7622 88.51 66.4336 87.3432 67.105 86.1765C68.7714 83.2807 64.2738 80.6861 62.6046 83.5867Z" fill="#D5E6FF"/>
<path d="M46.4225 80.9059C49.5272 86.8504 46.4099 92.5014 43.5178 97.7493C42.4915 99.6118 41.4716 101.886 40.2279 103.61C39.9295 104.118 39.6312 104.627 39.3328 105.135C35.7931 109.113 33.3969 108.819 32.1442 104.252C29.5574 100.151 29.8253 100.429 31.3196 96.2746C32.3099 93.5215 33.5659 90.8504 34.8975 88.2494C37.1731 83.8044 39.7932 79.5504 42.4045 75.2979C44.1542 72.4484 39.6525 69.861 37.9042 72.7081C33.3497 80.1251 12.4819 112.51 34.3912 112.95C42.1225 113.106 44.7806 106.251 48.0182 100.339C51.9306 93.1945 54.9701 86.0625 50.9301 78.3271C49.3786 75.3565 44.8783 77.9493 46.4225 80.9059Z" fill="#D5E6FF"/>
</g>
<defs>
<clipPath id="clip0_648_68853">
<rect width="120" height="120" fill="white" transform="translate(60.2227) rotate(29.9185)"/>
</clipPath>
</defs>
</svg>
