<svg width="156" height="156" viewBox="0 0 156 156" fill="none" xmlns="http://www.w3.org/2000/svg">
<g clip-path="url(#clip0_661_19045)">
<path d="M78.0078 156C121.086 156 156.008 121.078 156.008 78C156.008 34.9218 121.086 0 78.0078 0C34.9296 0 0.0078125 34.9218 0.0078125 78C0.0078125 121.078 34.9296 156 78.0078 156Z" fill="#F58539"/>
<path d="M112.053 78.0018C112.053 74.8691 109.513 72.3291 106.38 72.3291H49.6532C46.5204 72.3291 43.9805 74.8691 43.9805 78.0018V114.875H112.053V78.0018Z" fill="#F0F1F1"/>
<path d="M78.0481 59.8418C78.0382 59.8418 78.0283 59.8446 78.0184 59.8446C78.0084 59.8446 77.9999 59.8418 77.9886 59.8418C75.7649 59.8418 73.9609 61.6443 73.9609 63.8694C73.9609 66.0946 75.7649 67.8971 77.9886 67.8971C77.9985 67.8971 78.0084 67.8942 78.0184 67.8942C78.0283 67.8942 78.0368 67.8971 78.0481 67.8971C80.2718 67.8971 82.0758 66.0946 82.0758 63.8694C82.0758 61.6443 80.2718 59.8418 78.0481 59.8418Z" fill="white"/>
<path d="M78.0451 48.3926C78.0352 48.3926 78.0253 48.394 78.0154 48.394C78.0054 48.394 77.9955 48.3926 77.9856 48.3926C71.4336 48.3926 65.4914 51.9905 62.3359 57.3555L65.8204 59.3892C67.9321 55.5275 72.683 52.4202 77.9856 52.4202C77.9955 52.4202 78.0054 52.4216 78.0154 52.4216C78.0253 52.4216 78.0338 52.4202 78.0451 52.4202C83.3477 52.4202 88.0986 55.5275 90.2103 59.3892L93.6948 57.3555C90.5379 51.9905 84.5971 48.3926 78.0451 48.3926Z" fill="white"/>
<path d="M78.0524 35.2793C78.0425 35.2793 78.0326 35.2793 78.0227 35.2793C78.0127 35.2793 78.0028 35.2793 77.9929 35.2793C67.6969 35.2793 57.7866 39.7168 50.7227 48.7931L53.9249 51.2509C59.4119 43.9316 68.1805 39.3069 77.9943 39.3069C78.0042 39.3069 78.0141 39.3069 78.0241 39.3069C78.034 39.3069 78.0439 39.3069 78.0539 39.3069C87.8549 39.3069 96.6292 43.9231 102.123 51.2509L105.325 48.7931C98.314 39.7891 88.442 35.2793 78.0524 35.2793Z" fill="white"/>
<path d="M32.6367 114.875V117.711C36.2687 121.343 41.1954 123.384 46.3321 123.384H109.706C114.843 123.384 119.77 121.343 123.402 117.711V114.875H32.6367Z" fill="white"/>
<path d="M106.38 78.001H49.6523V114.874H106.38V78.001Z" fill="#3E3E3F"/>
<path d="M49.6523 114.76L86.4116 78.001H49.6523V114.76Z" fill="#5B5C5F"/>
<path d="M85.1076 114.875H70.9258V117.711H85.1076V114.875Z" fill="#E2E4E5"/>
</g>
<defs>
<clipPath id="clip0_661_19045">
<rect width="156" height="156" fill="white"/>
</clipPath>
</defs>
</svg>
