<svg width="41" height="40" viewBox="0 0 41 40" fill="none" xmlns="http://www.w3.org/2000/svg">
<rect x="1" y="0.5" width="39" height="39" rx="9.5" fill="#FDFDFE"/>
<rect x="1" y="0.5" width="39" height="39" rx="9.5" stroke="#CDCED7"/>
<path d="M28.4983 18.999H30.4983C30.4983 13.869 26.6253 10 21.4883 10V12C25.5503 12 28.4983 14.943 28.4983 18.999Z" fill="black"/>
<path d="M21.5003 16C23.6033 16 24.5003 16.897 24.5003 19H26.5003C26.5003 15.775 24.7253 14 21.5003 14V16ZM24.9223 21.443C24.7301 21.2683 24.4776 21.1752 24.2181 21.1832C23.9585 21.1912 23.7123 21.2998 23.5313 21.486L21.1383 23.947C20.5623 23.837 19.4043 23.476 18.2123 22.287C17.0203 21.094 16.6593 19.933 16.5523 19.361L19.0113 16.967C19.1977 16.7861 19.3064 16.5398 19.3144 16.2802C19.3225 16.0206 19.2292 15.768 19.0543 15.576L15.3593 11.513C15.1843 11.3204 14.9412 11.2035 14.6814 11.1873C14.4217 11.171 14.1659 11.2567 13.9683 11.426L11.7983 13.287C11.6254 13.4605 11.5222 13.6914 11.5083 13.936C11.4933 14.186 11.2073 20.108 15.7993 24.702C19.8053 28.707 24.8233 29 26.2053 29C26.4073 29 26.5313 28.994 26.5643 28.992C26.8088 28.9783 27.0396 28.8747 27.2123 28.701L29.0723 26.53C29.2417 26.3325 29.3276 26.0768 29.3115 25.817C29.2954 25.5573 29.1788 25.3141 28.9863 25.139L24.9223 21.443Z" fill="black"/>
</svg>