<svg width="220" height="210" viewBox="0 0 220 210" fill="none" xmlns="http://www.w3.org/2000/svg">
<path opacity="0.7" d="M29.8838 73.5193C29.8838 73.5193 17.6166 105.199 34.8558 137.099C52.095 168.999 87.603 185.851 116.023 200.261C144.442 214.671 173.953 207.653 187.976 184.052C201.999 160.45 182.766 143.602 182.74 109.947C182.713 76.2913 187.778 67.3813 169.54 38.9485C151.302 10.5157 106.593 4.21926 72.7838 25.3085C38.9742 46.3977 29.8838 73.5193 29.8838 73.5193Z" fill="white"/>
<path d="M28.0199 61.2318C39.7723 38.4222 61.5963 21.1654 88.7663 18.7366C107.453 17.1072 126.077 22.4954 141.007 33.8506C148.426 39.5706 155.017 46.8526 159.395 55.1642C164.42 64.7122 165.885 75.721 171.055 85.225C177.483 97.039 189.557 101.914 197.666 112.122C204.341 120.531 206.633 131.799 205.868 142.509C204.469 162.058 193.015 180.617 176.168 190.636C161.925 199.106 144.756 201.442 128.208 200.672C102.688 199.489 77.2823 191.071 57.1831 175.306C37.0839 159.541 22.6387 136.234 19.2155 110.921C16.8879 93.7214 20.2715 76.2666 28.0199 61.2318Z" fill="#004094"/>
<path opacity="0.7" d="M28.0199 61.2318C39.7723 38.4222 61.5963 21.1654 88.7663 18.7366C107.453 17.1072 126.077 22.4954 141.007 33.8506C148.426 39.5706 155.017 46.8526 159.395 55.1642C164.42 64.7122 165.885 75.721 171.055 85.225C177.483 97.039 189.557 101.914 197.666 112.122C204.341 120.531 206.633 131.799 205.868 142.509C204.469 162.058 193.015 180.617 176.168 190.636C161.925 199.106 144.756 201.442 128.208 200.672C102.688 199.489 77.2823 191.071 57.1831 175.306C37.0839 159.541 22.6387 136.234 19.2155 110.921C16.8879 93.7214 20.2715 76.2666 28.0199 61.2318Z" fill="white"/>
<path d="M20.2734 69.5678C20.7926 71.627 20.5374 67.8386 21.5538 63.2098C22.5702 58.581 24.317 60.4554 24.317 60.4554" stroke="#263238" stroke-width="0.44" stroke-linecap="round" stroke-linejoin="round"/>
<path d="M19.957 64.8381L23.147 63.5312" stroke="#263238" stroke-width="0.44" stroke-linecap="round" stroke-linejoin="round"/>
<path d="M25.7794 61.959C25.7794 61.959 23.8742 65.919 26.7474 67.5822" stroke="#263238" stroke-width="0.44" stroke-linecap="round" stroke-linejoin="round"/>
<path d="M28.4922 60.8516C28.4922 60.8516 31.6426 62.6116 29.6714 66.3868" stroke="#263238" stroke-width="0.44" stroke-linecap="round" stroke-linejoin="round"/>
<path d="M26.3281 63.2969L28.5853 64.9425" stroke="#263238" stroke-width="0.44" stroke-linecap="round" stroke-linejoin="round"/>
<path d="M28.1042 62.5723L26.3398 65.3839" stroke="#263238" stroke-width="0.44" stroke-linecap="round" stroke-linejoin="round"/>
<path d="M38.2398 104.712C38.6691 102.096 36.8963 99.6272 34.2801 99.1979C31.664 98.7685 29.1951 100.541 28.7657 103.158C28.3363 105.774 30.1091 108.243 32.7253 108.672C35.3415 109.101 37.8104 107.329 38.2398 104.712Z" stroke="#263238" stroke-width="0.44" stroke-linecap="round" stroke-linejoin="round"/>
<path d="M41.0852 111.027C43.9656 110.437 45.8217 107.623 45.231 104.742C44.6403 101.862 41.8263 100.006 38.9459 100.596C36.0655 101.187 34.2094 104.001 34.8001 106.881C35.3908 109.762 38.2048 111.618 41.0852 111.027Z" stroke="#263238" stroke-width="0.44" stroke-linecap="round" stroke-linejoin="round"/>
<path d="M37.8729 101.953L35.6641 102.741" stroke="#263238" stroke-width="0.44" stroke-linecap="round" stroke-linejoin="round"/>
<path d="M38.1807 102.861L35.0039 104.01" stroke="#263238" stroke-width="0.44" stroke-linecap="round" stroke-linejoin="round"/>
<path d="M38.3003 103.963L34.7539 105.327" stroke="#263238" stroke-width="0.44" stroke-linecap="round" stroke-linejoin="round"/>
<path d="M38.0504 105.463L34.8164 106.941" stroke="#263238" stroke-width="0.44" stroke-linecap="round" stroke-linejoin="round"/>
<path d="M37.4747 106.615L35.0195 107.636" stroke="#263238" stroke-width="0.44" stroke-linecap="round" stroke-linejoin="round"/>
<path d="M35.8165 96.6192C35.6801 96.1792 34.1225 95.9064 34.0565 97.0592C33.9905 98.212 35.6978 97.2528 36.1818 96.6192C36.1818 96.6192 35.3017 97.8028 35.6713 98.036" stroke="#263238" stroke-width="0.44" stroke-linecap="round" stroke-linejoin="round"/>
<path d="M44.4441 98.0527L43.0625 100.926C43.0625 100.926 43.7533 99.4871 44.4925 99.6059C45.4033 99.7687 44.7961 101.26 43.6961 100.71" stroke="#263238" stroke-width="0.44" stroke-linecap="round" stroke-linejoin="round"/>
<path d="M194.797 144.965L196.966 147.015" stroke="#263238" stroke-width="0.44" stroke-linecap="round" stroke-linejoin="round"/>
<path d="M196.966 144.43L195.148 147.144" stroke="#263238" stroke-width="0.44" stroke-linecap="round" stroke-linejoin="round"/>
<path d="M199.102 145.206L201.275 144.396" stroke="#263238" stroke-width="0.44" stroke-linecap="round" stroke-linejoin="round"/>
<path d="M202.312 142.137L203.633 143.303" stroke="#263238" stroke-width="0.44" stroke-linecap="round" stroke-linejoin="round"/>
<path d="M204.649 140.732L202.977 146.47" stroke="#263238" stroke-width="0.44" stroke-linecap="round" stroke-linejoin="round"/>
<path d="M103.391 112.736L109.229 108.719L116.96 109.26L117.444 119.063L111.768 123.12L104.763 122.61L103.391 112.736Z" stroke="#263238" stroke-width="0.44" stroke-linecap="round" stroke-linejoin="round"/>
<path d="M104.762 122.609L110.416 118.539L117.443 119.063" stroke="#263238" stroke-width="0.44" stroke-linecap="round" stroke-linejoin="round"/>
<path d="M110.415 118.54L109.227 108.719" stroke="#263238" stroke-width="0.44" stroke-linecap="round" stroke-linejoin="round"/>
<path d="M103.391 112.736L111.104 113.629L116.96 109.26" stroke="#263238" stroke-width="0.44" stroke-linecap="round" stroke-linejoin="round"/>
<path d="M111.102 113.629L111.766 123.12" stroke="#263238" stroke-width="0.44" stroke-linecap="round" stroke-linejoin="round"/>
<path d="M171.536 79.8008L168.949 87.8396L177.001 86.7528L171.536 79.8008Z" stroke="#263238" stroke-width="0.44" stroke-linecap="round" stroke-linejoin="round"/>
<path d="M171.535 79.8008L172.974 87.25" stroke="#263238" stroke-width="0.44" stroke-linecap="round" stroke-linejoin="round"/>
<path d="M172.746 86.0598L173.688 85.9102L173.908 87.173" stroke="#263238" stroke-width="0.44" stroke-linecap="round" stroke-linejoin="round"/>
<path d="M70.1328 153.367L74.1544 155.343" stroke="#263238" stroke-width="0.44" stroke-linecap="round" stroke-linejoin="round"/>
<path d="M72.8559 151.857L71.7031 156.059" stroke="#263238" stroke-width="0.44" stroke-linecap="round" stroke-linejoin="round"/>
<path d="M73.418 149.805C73.4839 149.736 73.565 149.684 73.6546 149.653C73.7443 149.622 73.84 149.612 73.9341 149.624C74.0283 149.637 74.1182 149.671 74.1967 149.725C74.2751 149.778 74.34 149.849 74.386 149.932C74.7908 150.566 73.9988 151.895 73.9988 151.895L75.6136 151.279" stroke="#263238" stroke-width="0.44" stroke-linecap="round" stroke-linejoin="round"/>
<path d="M101.711 14.959C105.552 17.1194 101.152 22.3994 101.152 25.4794C101.152 28.5594 105.552 28.1194 107.752 28.9994C108.632 28.9994 110.392 28.9994 110.344 31.2346" stroke="#263238" stroke-width="0.44" stroke-linecap="round" stroke-linejoin="round"/>
<path d="M97.4297 17.7617C98.0985 21.4005 102.27 20.1113 104.83 20.9429C109.23 22.3729 106.788 26.9137 105.477 29.6593C104.69 31.2961 103.906 33.5929 105.314 35.1461" stroke="#263238" stroke-width="0.44" stroke-linecap="round" stroke-linejoin="round"/>
<path d="M97.9922 19.1751L102.573 15.3691" stroke="#263238" stroke-width="0.44" stroke-linecap="round" stroke-linejoin="round"/>
<path d="M99.7852 20.3092L103.235 17.4492" stroke="#263238" stroke-width="0.44" stroke-linecap="round" stroke-linejoin="round"/>
<path d="M101.816 23.204L104.729 20.916" stroke="#263238" stroke-width="0.44" stroke-linecap="round" stroke-linejoin="round"/>
<path d="M101.211 26.6291L106.905 22.5371" stroke="#263238" stroke-width="0.44" stroke-linecap="round" stroke-linejoin="round"/>
<path d="M103.395 28.2253L107.363 25.3125" stroke="#263238" stroke-width="0.44" stroke-linecap="round" stroke-linejoin="round"/>
<path d="M105.082 34.4142L110.041 30.375" stroke="#263238" stroke-width="0.44" stroke-linecap="round" stroke-linejoin="round"/>
<path d="M105.207 31.2396L108.441 28.9648" stroke="#263238" stroke-width="0.44" stroke-linecap="round" stroke-linejoin="round"/>
<path d="M40.4644 155.557C45.189 153.667 47.4872 148.305 45.5974 143.581C43.7077 138.856 38.3457 136.558 33.6211 138.448C28.8965 140.337 26.5983 145.699 28.488 150.424C30.3778 155.148 35.7397 157.447 40.4644 155.557Z" stroke="#263238" stroke-width="0.44" stroke-linecap="round" stroke-linejoin="round"/>
<path d="M39.3546 138.088C42.5666 134.317 45.299 132.183 46.3506 132.878C47.9522 133.93 45.079 141.111 39.9354 148.912C34.7918 156.713 29.3226 162.187 27.721 161.131C26.665 160.44 27.5538 157.087 29.7538 152.648" stroke="#263238" stroke-width="0.44" stroke-linecap="round" stroke-linejoin="round"/>
<path d="M28.0223 148.895C23.5431 147.606 20.6831 146.101 20.8635 144.9C21.1231 142.999 28.8627 142.559 38.1071 143.945C47.3515 145.331 54.6203 147.958 54.3431 149.85C54.1451 151.17 50.3831 151.773 45.0371 151.57" stroke="#263238" stroke-width="0.44" stroke-linecap="round" stroke-linejoin="round"/>
<path d="M29.1992 142.221C25.82 136.122 24.1304 131.366 25.2744 130.622C26.7792 129.65 32.596 135.96 38.2676 144.702C43.9392 153.445 47.314 161.348 45.8136 162.324C44.8192 162.967 41.9372 160.424 38.4568 156.094" stroke="#263238" stroke-width="0.44" stroke-linecap="round" stroke-linejoin="round"/>
<path d="M47.6503 136.865C47.4862 137.115 47.2517 137.311 46.9764 137.428C46.7011 137.545 46.3973 137.578 46.1034 137.522C45.8094 137.467 45.5386 137.325 45.325 137.116C45.1114 136.906 44.9647 136.638 44.9033 136.346C44.8419 136.053 44.8687 135.749 44.9802 135.471C45.0917 135.193 45.2829 134.955 45.5297 134.786C45.7766 134.617 46.0679 134.525 46.367 134.522C46.6662 134.518 46.9596 134.603 47.2103 134.766C47.3773 134.875 47.5212 135.016 47.6337 135.18C47.7462 135.345 47.8252 135.53 47.8661 135.725C47.907 135.92 47.9089 136.121 47.8719 136.316C47.8349 136.512 47.7596 136.699 47.6503 136.865Z" fill="#263238"/>
<path d="M42.6386 160.049C42.4745 160.299 42.24 160.495 41.9647 160.612C41.6894 160.729 41.3856 160.762 41.0916 160.706C40.7977 160.65 40.5269 160.509 40.3133 160.299C40.0997 160.09 39.953 159.822 39.8916 159.529C39.8302 159.236 39.857 158.932 39.9684 158.655C40.0799 158.377 40.2712 158.139 40.518 157.97C40.7649 157.801 41.0562 157.709 41.3553 157.705C41.6544 157.702 41.9479 157.787 42.1986 157.95C42.3656 158.059 42.5094 158.199 42.622 158.364C42.7345 158.528 42.8135 158.713 42.8544 158.908C42.8952 159.103 42.8972 159.304 42.8602 159.5C42.8232 159.696 42.7479 159.882 42.6386 160.049Z" fill="#263238"/>
<path d="M34.5566 144.32C34.3925 144.57 34.158 144.766 33.8827 144.883C33.6073 145 33.3035 145.033 33.0096 144.977C32.7157 144.922 32.4448 144.78 32.2313 144.571C32.0177 144.362 31.8709 144.093 31.8095 143.801C31.7482 143.508 31.7749 143.204 31.8864 142.926C31.9979 142.648 32.1891 142.41 32.436 142.241C32.6828 142.072 32.9742 141.98 33.2733 141.977C33.5724 141.973 33.8658 142.058 34.1166 142.222C34.4529 142.442 34.6881 142.786 34.7706 143.18C34.853 143.573 34.7761 143.984 34.5566 144.32Z" fill="#263238"/>
<path d="M131.049 78.4584H136.232L138.823 73.9704L136.232 69.4824H131.049L128.457 73.9704L131.049 78.4584Z" stroke="#263238" stroke-width="0.44" stroke-linecap="round" stroke-linejoin="round"/>
<path d="M130.294 88.3122L127.703 83.8242H122.52" stroke="#263238" stroke-width="0.44" stroke-linecap="round" stroke-linejoin="round"/>
<path d="M123.217 73.9726H128.4L130.991 69.4846L128.4 64.9922H123.217L120.625 69.4846L123.217 73.9726Z" stroke="#263238" stroke-width="0.44" stroke-linecap="round" stroke-linejoin="round"/>
<path d="M131.049 69.4843H136.232L138.823 64.9919L136.232 60.5039H131.049L128.457 64.9919L131.049 69.4843Z" stroke="#263238" stroke-width="0.44" stroke-linecap="round" stroke-linejoin="round"/>
<path d="M130.988 70.1795C131.372 70.1795 131.683 69.8682 131.683 69.4843C131.683 69.1003 131.372 68.7891 130.988 68.7891C130.604 68.7891 130.293 69.1003 130.293 69.4843C130.293 69.8682 130.604 70.1795 130.988 70.1795Z" fill="#263238"/>
<path d="M120.168 60.7537C120.552 60.7537 120.863 60.4424 120.863 60.0585C120.863 59.6745 120.552 59.3633 120.168 59.3633C119.784 59.3633 119.473 59.6745 119.473 60.0585C119.473 60.4424 119.784 60.7537 120.168 60.7537Z" fill="#263238"/>
<path d="M129.602 88.3124C129.602 88.1749 129.642 88.0405 129.719 87.9262C129.795 87.8118 129.904 87.7227 130.031 87.6701C130.158 87.6175 130.298 87.6037 130.432 87.6305C130.567 87.6574 130.691 87.7236 130.788 87.8208C130.886 87.918 130.952 88.0419 130.979 88.1768C131.005 88.3116 130.992 88.4514 130.939 88.5784C130.886 88.7055 130.797 88.814 130.683 88.8904C130.569 88.9668 130.434 89.0076 130.297 89.0076C130.205 89.0076 130.115 88.9896 130.031 88.9547C129.946 88.9197 129.87 88.8685 129.805 88.804C129.741 88.7394 129.689 88.6628 129.654 88.5784C129.62 88.4941 129.602 88.4037 129.602 88.3124Z" fill="#263238"/>
<path d="M122.519 84.5193C122.903 84.5193 123.215 84.2081 123.215 83.8241C123.215 83.4402 122.903 83.1289 122.519 83.1289C122.135 83.1289 121.824 83.4402 121.824 83.8241C121.824 84.2081 122.135 84.5193 122.519 84.5193Z" fill="#263238"/>
<path d="M143.84 65.1195C143.84 64.981 143.881 64.8455 143.958 64.7304C144.035 64.6152 144.145 64.5256 144.273 64.4728C144.401 64.4199 144.542 64.4063 144.678 64.4337C144.813 64.461 144.938 64.5281 145.036 64.6264C145.133 64.7247 145.2 64.8497 145.226 64.9857C145.253 65.1217 145.238 65.2625 145.185 65.3903C145.131 65.5181 145.041 65.627 144.925 65.7033C144.809 65.7797 144.674 65.82 144.535 65.8191C144.443 65.8191 144.353 65.801 144.268 65.7658C144.183 65.7306 144.107 65.679 144.042 65.6139C143.977 65.5489 143.926 65.4718 143.892 65.3869C143.857 65.302 143.839 65.2112 143.84 65.1195Z" fill="#263238"/>
<path d="M127.652 84.5193C128.036 84.5193 128.347 84.2081 128.347 83.8241C128.347 83.4402 128.036 83.1289 127.652 83.1289C127.268 83.1289 126.957 83.4402 126.957 83.8241C126.957 84.2081 127.268 84.5193 127.652 84.5193Z" fill="#263238"/>
<path d="M138.129 65.1195C138.129 64.9812 138.17 64.8459 138.247 64.7308C138.324 64.6158 138.433 64.5261 138.561 64.4732C138.689 64.4202 138.829 64.4064 138.965 64.4334C139.101 64.4604 139.225 64.527 139.323 64.6248C139.421 64.7227 139.488 64.8473 139.515 64.983C139.542 65.1187 139.528 65.2594 139.475 65.3872C139.422 65.5151 139.332 65.6243 139.217 65.7012C139.102 65.7781 138.967 65.8191 138.829 65.8191C138.643 65.8191 138.465 65.7454 138.334 65.6142C138.203 65.483 138.129 65.3051 138.129 65.1195Z" fill="#263238"/>
<path d="M130.293 78.4638C130.292 78.325 130.333 78.1891 130.409 78.0734C130.486 77.9577 130.595 77.8674 130.723 77.8139C130.851 77.7604 130.992 77.7461 131.128 77.773C131.264 77.7998 131.389 77.8666 131.487 77.9647C131.585 78.0628 131.652 78.1878 131.679 78.324C131.706 78.4601 131.692 78.6011 131.638 78.7291C131.585 78.8571 131.494 78.9663 131.379 79.0429C131.263 79.1194 131.127 79.1598 130.988 79.159C130.804 79.1578 130.628 79.0842 130.498 78.9541C130.368 78.8239 130.294 78.6478 130.293 78.4638Z" fill="#263238"/>
<path d="M138.828 65.1094H144.535" stroke="#263238" stroke-width="0.44" stroke-linecap="round" stroke-linejoin="round"/>
<path d="M130.992 78.4648L127.652 83.824" stroke="#263238" stroke-width="0.44" stroke-linecap="round" stroke-linejoin="round"/>
<path d="M123.217 64.991L120.168 60.0586" stroke="#263238" stroke-width="0.44" stroke-linecap="round" stroke-linejoin="round"/>
<path d="M159.98 47.301C160.578 45.2802 161.824 43.5123 163.526 42.2699C165.229 41.0275 167.292 40.3796 169.399 40.4262C171.506 40.4727 173.539 41.2111 175.184 42.5275C176.83 43.8438 177.996 45.665 178.504 47.7102" stroke="#263238" stroke-width="0.44" stroke-linecap="round" stroke-linejoin="round"/>
<path d="M168.083 59.5504C165.742 59.2825 163.582 58.1626 162.013 56.4043C160.445 54.6459 159.578 52.3719 159.578 50.0156" stroke="#263238" stroke-width="0.44" stroke-linecap="round" stroke-linejoin="round"/>
<path d="M178.779 50.0156C178.779 52.56 177.769 55.0002 175.97 56.7998C174.172 58.5993 171.732 59.6109 169.188 59.612" stroke="#263238" stroke-width="0.44" stroke-linecap="round" stroke-linejoin="round"/>
<path d="M179.328 43.9292C182.329 43.5464 184.34 43.7532 184.652 44.6508C185.273 46.4372 178.853 50.2872 170.313 53.2528C161.772 56.2184 154.349 57.1688 153.725 55.378C153.395 54.4232 155.075 52.8788 158.015 51.1936" stroke="#263238" stroke-width="0.44" stroke-linecap="round" stroke-linejoin="round"/>
<path d="M127.65 37.3555L128.57 39.2167L130.625 39.5159L129.137 40.9679L129.489 43.0139L127.65 42.0459L125.811 43.0139L126.163 40.9679L124.676 39.5159L126.731 39.2167L127.65 37.3555Z" stroke="#263238" stroke-width="0.44" stroke-linecap="round" stroke-linejoin="round"/>
<path d="M62.6903 32.3964C62.6892 34.0512 62.0316 35.6379 60.8619 36.8084C59.6922 37.979 58.1059 38.6377 56.4511 38.64C56.2487 38.64 56.0507 38.6312 55.8571 38.6136C54.6529 38.4994 53.5077 38.0378 52.5609 37.2849C51.614 36.532 50.9063 35.5203 50.5237 34.3728C50.1411 33.2252 50.1 31.9912 50.4056 30.8208C50.7112 29.6503 51.3502 28.5938 52.2449 27.7798C53.1396 26.9657 54.2516 26.429 55.4456 26.2351C56.6396 26.0411 57.8643 26.1982 58.9707 26.6872C60.0771 27.1762 61.0177 27.9761 61.678 28.9897C62.3383 30.0032 62.69 31.1867 62.6903 32.3964Z" stroke="#263238" stroke-width="0.44" stroke-linecap="round" stroke-linejoin="round"/>
<path d="M61.6899 33.5222C61.6908 33.7138 61.6347 33.9014 61.5289 34.0612C61.4231 34.2209 61.2722 34.3457 61.0954 34.4196C60.9186 34.4936 60.7238 34.5134 60.5358 34.4765C60.3477 34.4397 60.1748 34.3478 60.039 34.2126C59.9032 34.0774 59.8105 33.905 59.7728 33.7171C59.7351 33.5292 59.754 33.3343 59.8272 33.1572C59.9003 32.98 60.0244 32.8286 60.1837 32.722C60.3429 32.6155 60.5303 32.5586 60.7219 32.5586C60.9779 32.5586 61.2234 32.66 61.4048 32.8406C61.5862 33.0211 61.6887 33.2662 61.6899 33.5222Z" stroke="#263238" stroke-width="0.44" stroke-linecap="round" stroke-linejoin="round"/>
<path d="M52.9996 35.9792C52.9999 36.2085 52.9496 36.4351 52.8522 36.6427C52.7549 36.8504 52.6129 37.0339 52.4364 37.1804C51.6159 36.5031 50.9839 35.6256 50.6016 34.6328C50.8437 34.4841 51.1227 34.4063 51.4068 34.4084C51.6149 34.4054 51.8215 34.4439 52.0146 34.5216C52.2078 34.5992 52.3835 34.7144 52.5317 34.8606C52.6799 35.0067 52.7976 35.1809 52.8779 35.3729C52.9582 35.5649 52.9996 35.771 52.9996 35.9792Z" stroke="#263238" stroke-width="0.44" stroke-linecap="round" stroke-linejoin="round"/>
<path d="M60.72 36.9591C59.5662 38.0519 58.0368 38.6598 56.4476 38.6575C56.2452 38.6575 56.0472 38.6487 55.8536 38.6311C55.8182 38.4618 55.8005 38.2892 55.8008 38.1163C55.8011 37.5313 55.9989 36.9636 56.3622 36.5052C56.7255 36.0467 57.2329 35.7244 57.8023 35.5905C58.3717 35.4565 58.9697 35.5188 59.4992 35.7672C60.0288 36.0156 60.459 36.4356 60.72 36.9591Z" stroke="#263238" stroke-width="0.44" stroke-linecap="round" stroke-linejoin="round"/>
<path d="M54.9344 29.9196C55.7266 29.9196 56.3688 29.2774 56.3688 28.4852C56.3688 27.693 55.7266 27.0508 54.9344 27.0508C54.1422 27.0508 53.5 27.693 53.5 28.4852C53.5 29.2774 54.1422 29.9196 54.9344 29.9196Z" stroke="#263238" stroke-width="0.44" stroke-linecap="round" stroke-linejoin="round"/>
<path d="M56.2663 32.5589C56.2663 32.6903 56.2273 32.8188 56.1543 32.9281C56.0813 33.0373 55.9776 33.1225 55.8562 33.1728C55.7348 33.223 55.6012 33.2362 55.4723 33.2106C55.3434 33.1849 55.225 33.1217 55.1321 33.0287C55.0392 32.9358 54.9759 32.8174 54.9503 32.6886C54.9246 32.5597 54.9378 32.4261 54.9881 32.3047C55.0384 32.1833 55.1235 32.0795 55.2328 32.0065C55.342 31.9335 55.4705 31.8945 55.6019 31.8945C55.6892 31.8945 55.7755 31.9117 55.8562 31.9451C55.9368 31.9785 56.01 32.0274 56.0717 32.0891C56.1334 32.1508 56.1823 32.2241 56.2157 32.3047C56.2491 32.3853 56.2663 32.4717 56.2663 32.5589Z" stroke="#263238" stroke-width="0.44" stroke-linecap="round" stroke-linejoin="round"/>
<path d="M61.5151 28.7529C61.3405 28.8102 61.1577 28.8384 60.9739 28.8365C60.7337 28.8365 60.4959 28.7892 60.2741 28.6971C60.0523 28.6051 59.8508 28.4702 59.6812 28.3002C59.5116 28.1301 59.3771 27.9283 59.2856 27.7063C59.1941 27.4842 59.1473 27.2463 59.1479 27.0061C59.1434 26.9299 59.1434 26.8535 59.1479 26.7773C60.0903 27.2267 60.9044 27.9061 61.5151 28.7529Z" stroke="#263238" stroke-width="0.44" stroke-linecap="round" stroke-linejoin="round"/>
<path d="M204.98 104.846L205.653 103.333L204.562 102.734C204.602 102.468 204.609 102.197 204.584 101.929L205.701 101.383L205.107 99.8391L203.91 100.182C203.75 99.9668 203.564 99.7717 203.356 99.6015L203.765 98.4223L202.252 97.7491L201.649 98.8403C201.381 98.8073 201.111 98.8073 200.844 98.8403L200.302 97.7227L198.754 98.3167L199.101 99.5091C198.885 99.6722 198.689 99.8597 198.516 100.068L197.341 99.6587L196.686 101.15L197.777 101.753C197.737 102.02 197.729 102.29 197.755 102.558L196.633 103.099L197.227 104.648L198.424 104.301C198.585 104.517 198.771 104.713 198.978 104.886L198.573 106.061L200.087 106.734L200.685 105.643C200.952 105.683 201.222 105.69 201.49 105.665L202.036 106.787L203.58 106.193L203.237 104.996C203.452 104.834 203.647 104.648 203.818 104.441L204.98 104.846ZM200.377 104.001C200.03 103.847 199.736 103.593 199.533 103.271C199.33 102.95 199.227 102.575 199.236 102.195C199.246 101.815 199.368 101.447 199.588 101.136C199.807 100.825 200.113 100.587 200.468 100.45C200.823 100.313 201.21 100.285 201.581 100.369C201.952 100.452 202.29 100.644 202.552 100.92C202.814 101.195 202.988 101.542 203.053 101.917C203.118 102.292 203.07 102.677 202.916 103.025C202.708 103.49 202.324 103.854 201.848 104.037C201.373 104.221 200.844 104.208 200.377 104.001Z" stroke="#263238" stroke-width="0.44" stroke-linecap="round" stroke-linejoin="round"/>
<path d="M196.935 112.613L197.85 110.558L196.371 109.739C196.424 109.378 196.433 109.012 196.398 108.648L197.92 107.909L197.124 105.81L195.5 106.281C195.283 105.987 195.03 105.721 194.748 105.489L195.302 103.887L193.23 102.959L192.416 104.437C192.054 104.386 191.688 104.375 191.325 104.407L190.585 102.889L188.482 103.698L188.953 105.317C188.661 105.538 188.395 105.792 188.161 106.074L186.564 105.537L185.649 107.592L187.127 108.411C187.074 108.772 187.065 109.138 187.101 109.502L185.578 110.241L186.388 112.34L188.011 111.873C188.23 112.167 188.482 112.433 188.764 112.665L188.209 114.263L190.269 115.178L191.083 113.695C191.444 113.749 191.81 113.759 192.174 113.726L192.913 115.244L195.016 114.439L194.545 112.815C194.837 112.596 195.103 112.343 195.337 112.063L196.935 112.613ZM190.687 111.464C190.214 111.254 189.815 110.908 189.539 110.471C189.264 110.033 189.124 109.524 189.138 109.007C189.152 108.49 189.319 107.989 189.617 107.567C189.916 107.145 190.333 106.821 190.816 106.636C191.299 106.451 191.826 106.414 192.33 106.529C192.835 106.643 193.293 106.905 193.649 107.281C194.004 107.656 194.24 108.129 194.327 108.638C194.414 109.148 194.347 109.672 194.136 110.144C193.997 110.458 193.797 110.74 193.548 110.976C193.299 111.212 193.005 111.397 192.685 111.52C192.365 111.642 192.023 111.701 191.68 111.691C191.337 111.681 191 111.604 190.687 111.464Z" stroke="#263238" stroke-width="0.44" stroke-linecap="round" stroke-linejoin="round"/>
<path d="M105.717 93.1065C105.114 94.2488 104.434 95.3485 103.68 96.3977C99.7708 101.833 94.0266 105.67 87.5086 107.199C80.9905 108.728 74.1392 107.847 68.2204 104.718C67.6088 104.397 67.0104 104.054 66.4384 103.693C65.8664 103.332 65.3076 102.962 64.7708 102.566C64.1196 102.096 63.4948 101.594 62.8964 101.07C62.8581 101.042 62.8228 101.009 62.7908 100.974C58.8917 97.523 56.0418 93.0452 54.5667 88.0517C53.0917 83.0583 53.051 77.7506 54.4493 72.7351C55.8475 67.7196 58.6284 63.1986 62.4742 59.6886C66.3199 56.1785 71.0755 53.821 76.1975 52.8854C81.3195 51.9498 86.6014 52.4738 91.4397 54.3975C96.2781 56.3213 100.478 59.5672 103.559 63.7645C106.64 67.9617 108.478 72.941 108.864 78.1335C109.249 83.326 108.167 88.5222 105.739 93.1285L105.717 93.1065Z" fill="#004094"/>
<mask id="mask0_1580_53363" style="mask-type:luminance" maskUnits="userSpaceOnUse" x="53" y="52" width="56" height="56">
<path d="M105.717 93.1065C105.114 94.2488 104.434 95.3485 103.68 96.3977C99.7708 101.833 94.0266 105.67 87.5086 107.199C80.9905 108.728 74.1392 107.847 68.2204 104.718C67.6088 104.397 67.0104 104.054 66.4384 103.693C65.8664 103.332 65.3076 102.962 64.7708 102.566C64.1196 102.096 63.4948 101.594 62.8964 101.07C62.8581 101.042 62.8228 101.009 62.7908 100.974C58.8917 97.523 56.0418 93.0452 54.5667 88.0517C53.0917 83.0583 53.051 77.7506 54.4493 72.7351C55.8475 67.7196 58.6284 63.1986 62.4742 59.6886C66.3199 56.1785 71.0755 53.821 76.1975 52.8854C81.3195 51.9498 86.6014 52.4738 91.4397 54.3975C96.2781 56.3213 100.478 59.5672 103.559 63.7645C106.64 67.9617 108.478 72.941 108.864 78.1335C109.249 83.326 108.167 88.5222 105.739 93.1285L105.717 93.1065Z" fill="white"/>
</mask>
<g mask="url(#mask0_1580_53363)">
<g opacity="0.6">
<path d="M105.715 93.1056C105.112 94.248 104.431 95.3476 103.677 96.3968L103.141 95.9568L102.217 95.4684L101.244 94.958L101.407 93.7832L101.354 92.7228C101.297 91.6624 102.063 92.5292 102.674 92.208C103.151 91.8671 103.537 91.4137 103.796 90.888C103.796 90.888 104.236 89.4756 104.091 88.908C103.854 88.254 103.575 87.6161 103.255 86.9984L101.68 89.1984L100.36 89.0972L99.1102 88.4372L98.9474 86.6992L98.305 86.3648L98.0366 85.366L94.565 84.3936L94.169 83.6984C93.773 83.0032 92.1758 82.6468 92.1758 82.6468L92.5674 81.7404L93.1834 80.7284C93.8038 79.7164 94.4462 81.3972 94.4462 81.3972L95.181 81.78L96.545 80.636L96.9058 78.9948L99.1278 79.1224C99.0843 78.9003 99.1182 78.6699 99.2238 78.4698C99.3295 78.2696 99.5006 78.1117 99.7086 78.0224C100.448 77.732 100.122 76.126 99.8406 75.532C99.559 74.938 98.5206 75.4176 98.5206 75.4176C98.5206 75.4176 97.3898 73.6972 97.2358 73.0108C97.0818 72.3244 99.3918 72.5708 100.382 71.88C101.372 71.1892 101.033 69.8164 100.549 69.7856C100.065 69.7548 101.495 66.6616 104.245 67.5108C105.011 67.7484 105.495 67.6648 105.794 67.4008C107.857 71.3734 108.928 75.7865 108.914 80.2629C108.9 84.7393 107.802 89.1458 105.715 93.1056Z" fill="white"/>
<path d="M86.4727 81.2028L85.5311 82.3864C85.5311 82.3864 85.1307 81.4316 84.5587 81.9464L83.6787 82.7296L83.0407 84.516L81.8967 85.2552L81.1971 84.89L80.5371 84.538L79.8199 84.1596L79.1335 85.4796L78.5747 86.5356C78.847 87.0541 79.1858 87.5348 79.5823 87.9656L80.7967 90.1084L82.2751 90.8564C82.8917 90.8793 83.5054 90.9529 84.1099 91.0764L85.1263 91.6088L84.7655 93.8088C84.7655 93.8088 83.9999 95.054 83.4895 94.7108L82.9747 94.3721L82.1387 97.2673L82.1035 98.86C82.1035 98.86 81.6063 99.0668 81.1047 99.234C80.6031 99.4012 80.9199 99.3133 79.8683 99.6389C78.8167 99.9645 78.9003 99.9512 78.0467 100.193C77.3191 100.448 76.6189 100.775 75.9567 101.17L76.0315 102.701L74.0207 102.996L72.8943 102.398L73.1715 101.43L73.3035 99.916L73.1495 98.7852L72.6655 97.7864L74.0207 96.5588L73.7215 95.7888L72.9515 94.2576L71.3235 95.1376L70.4875 95.5776L68.5955 94.7284L68.3887 93.58L67.7551 91.5164L67.1655 90.2316L66.1183 88.8148L65.8543 87.596L66.4439 86.4784L66.7563 85.8889L65.7927 84.5908L65.5287 83.6668L63.9051 82.1928C63.9051 82.1928 64.3759 82.162 64.2703 81.5064C64.1647 80.8508 65.1987 79.7464 65.1987 79.7464C65.7839 80.0544 67.5395 81.2776 67.5395 81.2776L69.0751 81.4888C69.0751 81.4888 69.3831 81.4888 69.6823 80.908C70.0318 80.3738 70.4423 79.8821 70.9055 79.4428C70.9055 79.4428 70.1971 76.9832 70.7031 76.6532C71.2091 76.3232 71.7239 74.7128 71.7239 74.7128L72.1287 73.9428C72.1287 73.9428 71.1739 73.5249 70.9935 73.0189C70.8131 72.5128 68.4591 73.186 68.4591 73.186L66.8355 74.3124L65.5551 75.3024L65.0007 76.354C65.0007 76.354 63.8699 74.9944 63.8655 75.7556C63.7792 76.5361 63.6081 77.3047 63.3551 78.048C63.3551 78.048 63.5883 78.1712 63.2803 78.7608C62.9723 79.3504 62.6379 79.3196 61.9603 79.4032C61.077 79.4121 60.1943 79.3518 59.3203 79.2228C59.3203 79.2228 58.8803 80.8508 59.1839 81.1324L59.4831 81.4052C59.4831 81.4052 59.0123 82.5888 58.5459 82.3424L57.4107 81.744L55.8223 82.3864L54.0623 84.3312L53.6707 84.252C52.5921 77.017 54.4132 69.6487 58.7381 63.7492C63.063 57.8497 69.542 53.8961 76.7663 52.748C76.8675 53.188 76.9775 53.6016 76.9775 53.6016L76.5375 55.7752L75.9743 56.8489L75.4903 57.7684L74.8083 59.062L76.5551 60.6724L76.1811 62.5776L75.2351 63.1716L74.9623 64.6016L76.5859 67.774L77.0259 69.0192C76.7543 69.6154 76.6204 70.2651 76.6343 70.92C76.6343 70.92 76.8323 72.108 77.6991 72.5788C78.5659 73.0497 79.7055 73.604 79.7055 73.604L79.6131 75.364L79.2215 75.804L79.8727 77.7004C81.8571 78.4792 81.6679 79.1304 81.8571 78.4792L82.0507 77.8324L83.4015 77.344L85.1219 79.3988C85.3221 79.3962 85.5197 79.4439 85.6966 79.5378C85.8735 79.6316 86.0239 79.7684 86.1339 79.9356C86.6355 80.5692 87.4187 80.0192 86.4727 81.2028Z" fill="white"/>
<path d="M63.1511 96.5288C63.1995 97.1536 62.4075 97.9368 62.4075 97.9368L63.0543 98.2756L63.2523 100.036L62.7639 100.968C59.3031 97.9111 56.6635 94.0356 55.0859 89.6956L55.4379 87.83L56.9911 87.61C56.9911 87.61 58.3815 86.686 58.9975 86.9324C59.6135 87.1788 60.1767 88.6924 60.1767 88.6924C60.1767 88.6924 60.6167 90.734 60.5595 90.6944H60.5331H60.5683L61.2019 91.0288L61.3823 91.834L60.5023 93.506H59.0855C59.0855 93.506 58.8039 93.3564 58.7775 94.0912C58.8005 94.3462 58.878 94.5933 59.0047 94.8157C59.1315 95.0381 59.3046 95.2307 59.5123 95.3804L61.0435 94.9888L61.4527 93.4048L62.9575 93.11C62.9575 93.11 62.7419 94.0824 63.0939 94.2672L63.4503 94.4564L63.6615 95.618C63.5039 95.7116 63.3737 95.845 63.2841 96.0049C63.1945 96.1648 63.1487 96.3455 63.1511 96.5288Z" fill="white"/>
<path d="M70.4323 99.0181C70.2959 98.6397 70.2387 98.3097 69.3015 97.8169C68.3643 97.3241 68.4215 97.5001 68.0519 97.9093C67.8928 98.1198 67.6754 98.2791 67.4268 98.3675C67.1781 98.4558 66.909 98.4694 66.6527 98.4065C66.0367 98.2701 66.3579 98.9653 66.3579 98.9653L66.5075 100.844L64.7695 102.56C65.3063 102.956 65.8622 103.332 66.4371 103.687L66.8067 102.551L69.6931 103.396C69.0815 103.216 69.4423 102.38 69.4423 102.38L68.8263 102.054C68.8263 102.054 70.5687 99.3877 70.4323 99.0181Z" fill="white"/>
<path d="M88.6109 89.2497L87.6649 88.2949L86.5825 88.6337L86.1425 89.5137L85.8125 90.1473L86.2525 91.0273L87.1325 92.0965L87.6341 91.1373C87.6341 91.1373 89.0289 91.1373 89.7593 90.3321C90.4897 89.5269 88.6109 89.2497 88.6109 89.2497Z" fill="white"/>
<path d="M85.832 84.9422L87.592 85.8662L87.6624 85.4526C87.7541 85.1212 87.9162 84.8136 88.1376 84.5506L86.7912 83.125L85.832 84.9422Z" fill="white"/>
<path d="M85.232 105.425L84.726 104.681L84.1364 104.373H82.3368L81.3116 106.318C81.3116 106.318 80.3304 106.186 79.0412 106.071C77.752 105.957 78.0688 106.489 78.0688 106.489L77.7344 107.713C80.9871 108.113 84.285 107.936 87.476 107.189C87.1051 106.93 86.7202 106.693 86.3232 106.476L85.232 105.425Z" fill="white"/>
</g>
</g>
<path d="M105.717 93.1065C105.114 94.2488 104.434 95.3485 103.68 96.3977C99.7708 101.833 94.0266 105.67 87.5086 107.199C80.9905 108.728 74.1392 107.847 68.2204 104.718C67.6088 104.397 67.0104 104.054 66.4384 103.693C65.8664 103.332 65.3076 102.962 64.7708 102.566C64.1196 102.096 63.4948 101.594 62.8964 101.07C62.8581 101.042 62.8228 101.009 62.7908 100.974C58.8917 97.523 56.0418 93.0452 54.5667 88.0517C53.0917 83.0583 53.051 77.7506 54.4493 72.7351C55.8475 67.7196 58.6284 63.1986 62.4742 59.6886C66.3199 56.1785 71.0755 53.821 76.1975 52.8854C81.3195 51.9498 86.6014 52.4738 91.4397 54.3975C96.2781 56.3213 100.478 59.5672 103.559 63.7645C106.64 67.9617 108.478 72.941 108.864 78.1335C109.249 83.326 108.167 88.5222 105.739 93.1285L105.717 93.1065Z" stroke="#263238" stroke-width="0.44" stroke-linecap="round" stroke-linejoin="round"/>
<path d="M87.4799 107.191C84.2889 107.938 80.991 108.115 77.7383 107.715L78.0727 106.491C78.0727 106.491 77.7559 105.959 79.0451 106.073C80.3343 106.188 81.3155 106.32 81.3155 106.32L82.3407 104.375H84.1403L84.7299 104.683L85.2359 105.427L86.3271 106.478C86.7241 106.694 87.109 106.932 87.4799 107.191Z" stroke="#263238" stroke-width="0.44" stroke-linecap="round" stroke-linejoin="round"/>
<path d="M105.815 67.4088C105.516 67.6728 105.032 67.7564 104.266 67.5188C101.516 66.6696 100.091 69.7584 100.57 69.7936C101.05 69.8288 101.389 71.2192 100.403 71.888C99.4177 72.5568 97.1033 72.328 97.2573 73.0188C97.4113 73.7096 98.5421 75.4256 98.5421 75.4256C98.5421 75.4256 99.5541 74.9504 99.8401 75.54C100.126 76.1296 100.452 77.74 99.7125 78.0304C99.5045 78.1197 99.3334 78.2776 99.2278 78.4778C99.1221 78.6779 99.0882 78.9082 99.1317 79.1304L96.9097 79.0028L96.5489 80.644L95.1849 81.788L94.4501 81.4052C94.4501 81.4052 93.8077 79.7244 93.1873 80.7364L92.5713 81.7484L92.1797 82.6548C92.1797 82.6548 93.7769 83.0112 94.1729 83.7064L94.5689 84.4016L98.0405 85.374L98.3089 86.3728L98.9513 86.7072L99.1141 88.4452L100.408 89.1228L101.728 89.224L103.303 87.024C103.623 87.6417 103.902 88.2796 104.139 88.9336C104.293 89.5012 103.844 90.9136 103.844 90.9136C103.584 91.4393 103.199 91.8927 102.722 92.2336C102.093 92.5548 101.323 91.688 101.402 92.7484L101.455 93.8088L101.292 94.9836L102.264 95.494L103.188 95.9824L103.725 96.4224" stroke="#263238" stroke-width="0.44" stroke-linecap="round" stroke-linejoin="round"/>
<path d="M53.7109 84.2549L54.1025 84.3341L55.8625 82.3893L57.4509 81.7469L58.5861 82.3453C59.0525 82.5917 59.5233 81.4081 59.5233 81.4081L59.2241 81.1353C58.9205 80.8537 59.3605 79.2257 59.3605 79.2257C60.2345 79.3547 61.1172 79.415 62.0005 79.4061C62.6957 79.3225 63.0257 79.3489 63.3205 78.7637C63.6153 78.1785 63.3953 78.0509 63.3953 78.0509C63.6483 77.3076 63.8195 76.5389 63.9057 75.7585C63.9057 74.9973 65.0409 76.3569 65.0409 76.3569L65.5953 75.3053L66.8361 74.3197L68.4597 73.1933C68.4597 73.1933 70.8137 72.5157 70.9941 73.0261C71.1745 73.5365 72.1293 73.9501 72.1293 73.9501L71.7245 74.7201C71.7245 74.7201 71.2053 76.3217 70.7037 76.6605C70.2021 76.9993 70.9061 79.4501 70.9061 79.4501C70.4429 79.8894 70.0324 80.3811 69.6829 80.9153C69.3749 81.5049 69.0757 81.4961 69.0757 81.4961L67.5401 81.2849C67.5401 81.2849 65.7801 80.0617 65.1993 79.7537C65.1993 79.7537 64.1653 80.8581 64.2709 81.5137C64.3765 82.1693 63.9057 82.2001 63.9057 82.2001L65.5293 83.6741L65.7933 84.5981L66.7569 85.8961L66.4445 86.4857L65.8549 87.6033L66.1189 88.8221L67.1661 90.2389L67.7601 91.5193L68.4025 93.5917L68.6093 94.7401L70.5013 95.5893L71.3373 95.1493L72.9653 94.2693L73.7353 95.8005L74.0345 96.5705L72.6793 97.7981L73.1633 98.7969L73.3173 99.9277L73.1853 101.441L72.9081 102.409L74.0345 103.008L76.0453 102.717L75.9705 101.182C76.6327 100.787 77.3329 100.46 78.0605 100.205C78.9141 99.9629 78.8305 99.9761 79.8821 99.6505C80.9337 99.3249 80.6125 99.4129 81.1185 99.2457C81.6245 99.0785 82.1173 98.8717 82.1173 98.8717L82.1525 97.2789L82.9885 94.3837L83.5033 94.7225C84.0137 95.0657 84.7793 93.8205 84.7793 93.8205L85.1401 91.6205L84.1017 91.0793C83.4972 90.9558 82.8835 90.8822 82.2669 90.8593L80.8193 90.0981L79.6049 87.9553C79.2084 87.5244 78.8697 87.0437 78.5973 86.5253L79.1561 85.4693L79.8425 84.1493L80.5597 84.5277L81.2197 84.8797L81.9193 85.2449L83.0633 84.5057L83.7013 82.7193L84.5813 81.9361C85.1533 81.4169 85.5537 82.3761 85.5537 82.3761L86.4953 81.1925C87.4413 80.0089 86.6581 80.5589 86.1741 79.9517C86.0641 79.7845 85.9137 79.6476 85.7368 79.5538C85.56 79.46 85.3623 79.4122 85.1621 79.4149L83.4417 77.3601L82.0733 77.8793L81.8797 78.5261C81.6905 79.1773 81.8797 78.5261 79.8953 77.7473L79.2441 75.8509L79.6357 75.4109L79.7281 73.6509C79.7281 73.6509 78.5885 73.0921 77.7217 72.6257C76.8549 72.1593 76.6569 70.9669 76.6569 70.9669C76.643 70.3119 76.7769 69.6623 77.0485 69.0661L76.6085 67.8209L74.9849 64.6485L75.2577 63.2185L76.2037 62.6245L76.5777 60.7193L74.8793 59.1089L75.5613 57.8153L76.0453 56.8957L76.6085 55.8221L77.0485 53.6485C77.0485 53.6485 76.9385 53.2437 76.8373 52.7949" stroke="#263238" stroke-width="0.44" stroke-linecap="round" stroke-linejoin="round"/>
<path d="M62.9187 101.068C62.8845 101.029 62.8462 100.993 62.8043 100.963L63.2927 100.03L63.0947 98.2697L62.4479 97.9309C62.4479 97.9309 63.2399 97.1477 63.1915 96.5229C63.1829 96.3365 63.2245 96.1512 63.312 95.9864C63.3995 95.8215 63.5295 95.6831 63.6887 95.5857L63.4775 94.4241L63.1211 94.2349C62.7691 94.0501 62.9847 93.0777 62.9847 93.0777L61.4799 93.3725L61.0707 94.9565L59.5395 95.3481C59.3318 95.1984 59.1587 95.0058 59.0319 94.7834C58.9051 94.561 58.8276 94.3139 58.8047 94.0589C58.8311 93.3241 59.1127 93.4737 59.1127 93.4737H60.5295L61.4095 91.8017L61.2291 90.9965L60.5955 90.6621" stroke="#263238" stroke-width="0.44" stroke-linecap="round" stroke-linejoin="round"/>
<path d="M60.5556 90.6615C60.626 90.7011 60.1728 88.6595 60.1728 88.6595C60.1728 88.6595 59.6096 87.1679 58.9936 86.8995C58.3776 86.6311 56.9872 87.5771 56.9872 87.5771L55.434 87.7971L55.082 89.6627" stroke="#263238" stroke-width="0.44" stroke-linecap="round" stroke-linejoin="round"/>
<path d="M66.8067 102.555L66.4371 103.69C65.8505 103.333 65.2946 102.957 64.7695 102.564L66.5075 100.848L66.3579 98.9692C66.3579 98.9692 66.0367 98.2741 66.6527 98.4105C66.909 98.4733 67.1781 98.4597 67.4268 98.3714C67.6754 98.283 67.8928 98.1237 68.0519 97.9132C68.4127 97.504 68.3687 97.3281 69.3015 97.8209C70.2343 98.3137 70.2959 98.6437 70.4323 99.0221C70.5687 99.4005 68.8263 102.071 68.8263 102.071L69.4423 102.397C69.4423 102.397 69.0815 103.233 69.6931 103.413L66.8067 102.555Z" stroke="#263238" stroke-width="0.44" stroke-linecap="round" stroke-linejoin="round"/>
<path d="M86.5884 88.6376L87.6708 88.2988L88.6168 89.2536C88.6168 89.2536 90.4868 89.4956 89.7564 90.3096C89.026 91.1236 87.6312 91.1148 87.6312 91.1148L87.1208 92.074L86.2408 91.0048L85.8008 90.1248L86.1308 89.4912L86.5884 88.6376Z" stroke="#263238" stroke-width="0.44" stroke-linecap="round" stroke-linejoin="round"/>
<path d="M88.1376 84.5545C87.9162 84.8175 87.7541 85.1252 87.6624 85.4565L87.592 85.8701L85.832 84.9461L86.7912 83.1289L88.1376 84.5545Z" stroke="#263238" stroke-width="0.44" stroke-linecap="round" stroke-linejoin="round"/>
<path d="M183.625 188.342C181.267 190.304 163.099 202.774 137.174 200.763C135.779 188.962 130.46 140.483 136.51 132.88C136.51 132.88 151.188 125.879 164.709 128.818C178.231 131.758 183.493 134.574 184.457 137.011C185.187 138.855 184.144 173.184 183.625 188.342Z" fill="#263238"/>
<path d="M164.258 133.999C156.47 140.744 146.438 139.319 146.658 134.14C146.693 133.33 147.56 132.327 147.56 132.327L147.256 131.861L145.936 129.867C144.973 128.376 143.767 126.501 142.927 125.137C142.223 123.976 159.774 113.178 159.774 119.387C159.774 128.134 164.069 129.779 164.069 129.779C165.688 130.431 167.197 131.46 164.258 133.999Z" fill="white" stroke="#263238" stroke-width="0.44" stroke-linecap="round" stroke-linejoin="round"/>
<path d="M169.187 147.355C169.187 147.355 167.616 152.741 168.36 154.285" stroke="white" stroke-width="0.44" stroke-linecap="round" stroke-linejoin="round"/>
<path d="M167.351 131.719C167.351 136.915 151.849 142.006 147.309 136.792" stroke="white" stroke-width="0.44" stroke-linecap="round" stroke-linejoin="round"/>
<path d="M154.599 125.721C154.599 125.721 153.561 129.637 148.721 132.695C148.49 132.298 148.117 132.004 147.678 131.872C147.532 131.848 147.384 131.848 147.238 131.872L145.918 129.879C148.422 128.075 154.599 125.721 154.599 125.721Z" fill="#263238"/>
<path d="M156.774 120.907C156.774 120.907 156.721 124.77 155.894 125.558C149.756 131.445 143.755 131.912 142.765 130.358C136.099 119.904 137.674 117.158 136.996 115.368C135.795 112.226 134.321 107.096 134.972 103.989C136.424 97.0504 149.492 91.6692 156.374 98.6476C159.674 101.987 160.717 109.234 160.021 115.271" fill="white"/>
<path d="M156.774 120.907C156.774 120.907 156.721 124.77 155.894 125.558C149.756 131.445 143.755 131.912 142.765 130.358C136.099 119.904 137.674 117.158 136.996 115.368C135.795 112.226 134.321 107.096 134.972 103.989C136.424 97.0504 149.492 91.6692 156.374 98.6476C159.674 101.987 160.717 109.234 160.021 115.271" stroke="#263238" stroke-width="0.44" stroke-linecap="round" stroke-linejoin="round"/>
<path d="M137.832 112.139C137.832 112.139 135.998 111.317 135.602 112.298" stroke="#263238" stroke-width="0.44" stroke-linecap="round" stroke-linejoin="round"/>
<path d="M142.285 112.198C142.285 112.198 146.1 110.601 147.816 112.541" stroke="#263238" stroke-width="0.44" stroke-linecap="round" stroke-linejoin="round"/>
<path d="M146.522 114.906C146.583 115.478 146.306 115.975 145.897 116.023C145.488 116.072 145.109 115.636 145.048 115.064C144.986 114.492 145.263 113.99 145.672 113.946C146.082 113.902 146.442 114.334 146.522 114.906Z" fill="#263238"/>
<path d="M139.041 115.077C139.107 115.649 138.826 116.151 138.416 116.195C138.007 116.239 137.629 115.812 137.567 115.24C137.506 114.668 137.783 114.166 138.192 114.122C138.601 114.078 138.971 114.505 139.041 115.077Z" fill="#263238"/>
<path d="M139.222 113.572C139.754 114.43 139.464 115.895 138.76 117.906C138.056 119.917 138.676 120.643 141.378 120.845" fill="white"/>
<path d="M139.222 113.572C139.754 114.43 139.464 115.895 138.76 117.906C138.056 119.917 138.676 120.643 141.378 120.845" stroke="#263238" stroke-width="0.44" stroke-linecap="round" stroke-linejoin="round"/>
<path d="M141.383 124.327C141.383 124.327 144.903 124.005 146.513 123.121" stroke="#263238" stroke-width="0.44" stroke-linecap="round" stroke-linejoin="round"/>
<path d="M163.678 104.377C163.678 101.763 161.1 96.3995 156.577 95.7967C153.976 93.0775 150.272 92.0787 145.775 93.1127C135.382 95.4975 132.218 105.758 131.765 107.457C131.721 107.615 131.699 107.703 131.699 107.703L134.48 106.999L133.283 109.335L134.74 110.299L134.405 110.669L136.095 112.297L135.567 109.322C135.892 107.404 138.101 104.72 138.101 104.72C137.295 105.765 136.793 107.012 136.649 108.323C137.529 106.04 142.809 103.923 142.809 103.923C141.098 105.314 140.169 108.033 140.169 108.033C141.797 106.027 145.612 104.729 148.054 104.038C148.877 106.022 150.184 108.095 152.049 109.243C153.809 110.325 153.748 112.561 153.748 112.561C155.641 113.877 157.036 115.793 157.708 117.999L159.837 120.912C159.837 120.912 163.678 116.199 163.678 104.377Z" fill="#263238"/>
<path d="M154.719 113.309C154.006 111.782 156.593 107.646 158.428 108.157C159.458 108.447 160.804 110.326 161.068 112.297C161.332 114.268 159.937 118.017 158.45 118.831C157.504 119.359 156.725 117.92 156.725 117.92" fill="white"/>
<path d="M154.719 113.309C154.006 111.782 156.593 107.646 158.428 108.157C159.458 108.447 160.804 110.326 161.068 112.297C161.332 114.268 159.937 118.017 158.45 118.831C157.504 119.359 156.725 117.92 156.725 117.92" stroke="#263238" stroke-width="0.44" stroke-linecap="round" stroke-linejoin="round"/>
<path d="M42.4648 187.99L92.1804 176.365L195.88 188.342L169.18 206.602L42.4648 187.99Z" fill="white"/>
<path d="M42.4648 187.99L92.1804 176.365L195.88 188.342" fill="white"/>
<path d="M42.4648 187.99L92.1804 176.365L195.88 188.342" stroke="#263238" stroke-width="0.44" stroke-linecap="round" stroke-linejoin="round"/>
<path d="M85.4883 190.323L105.614 181.426L131.059 182.741L119.742 192.417L85.4883 190.323Z" fill="white" stroke="#263238" stroke-width="0.44" stroke-linecap="round" stroke-linejoin="round"/>
<path d="M137.488 132.441C131.033 135.081 129.643 141.017 118.673 164.473C118.673 164.473 113.803 165.472 111.193 171.39C108.584 177.308 112.953 181.981 117.983 181.823C117.983 181.823 120.002 183.583 124.143 183.402C128.283 183.222 146.583 155.22 146.583 155.22L137.488 132.441Z" fill="#263238"/>
<path d="M120.602 165.85C123.488 168.419 125.147 172.19 124.267 176.37" stroke="white" stroke-width="0.44" stroke-linecap="round" stroke-linejoin="round"/>
<path d="M123.387 167.086C123.387 167.086 126.933 167.86 127.483 172.401" stroke="white" stroke-width="0.44" stroke-linecap="round" stroke-linejoin="round"/>
<path d="M133.759 153.797C132.084 149.663 131.505 145.166 132.078 140.742" stroke="white" stroke-width="0.44" stroke-linecap="round" stroke-linejoin="round"/>
<path d="M133.26 147.812C132.992 149.66 134.901 159.499 134.888 169.843" stroke="white" stroke-width="0.44" stroke-linecap="round" stroke-linejoin="round"/>
<path d="M181.507 134.385C189.581 138.442 190.541 150.924 182.924 165.849C177.543 176.383 170.116 191.937 165.417 192.98C160.717 194.022 156.133 191.096 156.133 191.096C156.133 191.096 152.173 190.912 150.976 188.096C147.702 180.4 156.023 170.676 159.279 173.004C159.279 173.004 169.733 150.269 171.638 148.834" fill="#263238"/>
<path d="M150.231 183.417C149.162 178.106 157.522 171.84 159.282 173.002C159.282 173.002 165.49 173.349 166.418 177.644" stroke="white" stroke-width="0.44" stroke-linecap="round" stroke-linejoin="round"/>
<path d="M172.973 184.55C176.607 178.139 182.925 165.85 182.925 165.85" stroke="white" stroke-width="0.44" stroke-linecap="round" stroke-linejoin="round"/>
<path d="M159.281 173.003C159.281 173.003 163.633 170.398 166.884 172.862" stroke="white" stroke-width="0.44" stroke-linecap="round" stroke-linejoin="round"/>
<path d="M160.77 169.84C160.77 169.84 163.172 164.56 165.61 159.72C168.047 154.88 173.626 147.713 175.945 147.365" stroke="white" stroke-width="0.44" stroke-linecap="round" stroke-linejoin="round"/>
<path d="M114.912 179.331C114.389 179.305 113.878 179.166 113.416 178.922C105.936 175.019 100.119 168.569 96.6165 163.94C95.2548 162.171 94.0014 160.321 92.8633 158.4L94.6585 150.709C94.6585 150.709 96.3481 155.109 103.137 159.434C109.926 163.759 117.992 165.185 120.601 169.554C122.911 173.36 118.841 179.52 114.912 179.331Z" fill="white"/>
<mask id="mask1_1580_53363" style="mask-type:luminance" maskUnits="userSpaceOnUse" x="92" y="150" width="30" height="30">
<path d="M114.919 179.335C114.397 179.309 113.886 179.17 113.423 178.926C105.943 175.023 100.127 168.572 96.6243 163.944C95.2626 162.175 94.0092 160.325 92.8711 158.404L94.6663 150.713C94.6663 150.713 96.3559 155.113 103.145 159.438C109.934 163.763 117.999 165.189 120.609 169.558C122.919 173.364 118.849 179.524 114.919 179.335Z" fill="white"/>
</mask>
<g mask="url(#mask1_1580_53363)">
<path opacity="0.4" d="M114.919 179.335C114.836 178.779 114.688 178.234 114.479 177.711C112.909 173.778 103.405 165.959 103.405 165.959C101.143 165.889 98.6571 164.947 96.6331 163.944C95.2684 162.175 94.0121 160.325 92.8711 158.404L94.6663 150.713C94.6663 150.713 96.3559 155.113 103.145 159.438C109.934 163.763 117.999 165.189 120.609 169.558C122.919 173.364 118.849 179.524 114.919 179.335Z" fill="#004094"/>
</g>
<path d="M114.912 179.331C114.389 179.305 113.878 179.166 113.416 178.922C105.936 175.019 100.119 168.569 96.6165 163.94C95.2548 162.171 94.0014 160.321 92.8633 158.4L94.6585 150.709C94.6585 150.709 96.3481 155.109 103.137 159.434C109.926 163.759 117.992 165.185 120.601 169.554C122.911 173.36 118.841 179.52 114.912 179.331Z" stroke="#263238" stroke-width="0.44" stroke-linecap="round" stroke-linejoin="round"/>
<path d="M97.9715 157.933C97.9715 157.933 97.0431 162.034 94.5967 161.114C93.2767 160.617 90.7335 156.674 90.2539 154.686L97.9715 157.933Z" fill="white" stroke="#263238" stroke-width="0.44" stroke-linecap="round" stroke-linejoin="round"/>
<path d="M87.1875 132.682L89.1851 131.652C89.1851 131.652 94.8303 131.701 98.3327 134.548C101.514 137.135 103.129 141.187 103.129 141.187C103.129 141.187 115.488 134.363 128.112 138.279L133.26 166.971L109.592 168.52L94.8215 154.488L87.1875 132.682Z" fill="white" stroke="#263238" stroke-width="0.44" stroke-linecap="round" stroke-linejoin="round"/>
<path d="M134.885 168.121C134.885 168.121 132.108 168.037 128.395 168.16C122.78 168.336 115.023 168.97 111.477 171.034L111.309 170.976L108.062 169.841L107.996 169.744C107.398 168.864 102.571 161.934 95.6762 159.114L85.9258 131.869C85.9258 131.869 96.0458 132.309 101.577 141.452L104.353 142.456C104.353 142.456 120.875 137.563 130.124 139.323L134.885 168.121Z" fill="#004094"/>
<mask id="mask2_1580_53363" style="mask-type:luminance" maskUnits="userSpaceOnUse" x="85" y="131" width="50" height="41">
<path d="M134.885 168.119C134.885 168.119 132.108 168.035 128.395 168.158C122.78 168.334 115.023 168.968 111.477 171.032L111.309 170.974L108.062 169.839L107.996 169.742C107.398 168.862 102.571 161.932 95.6762 159.112L85.9258 131.867C85.9258 131.867 96.0458 132.307 101.577 141.45L104.353 142.454C104.353 142.454 120.875 137.561 130.124 139.321L134.885 168.119Z" fill="white"/>
</mask>
<g mask="url(#mask2_1580_53363)">
<path opacity="0.3" d="M107.996 169.746C107.398 168.866 102.571 161.936 95.6762 159.116L85.9258 131.871C85.9258 131.871 96.0458 132.311 101.577 141.454L107.996 169.746Z" fill="black" fill-opacity="0.7"/>
<path opacity="0.3" d="M128.395 168.159C122.781 168.335 115.023 168.968 111.477 171.032L111.31 170.975L104.824 143.439C104.824 143.439 110.131 142.247 111.763 142.85C111.759 142.859 122.547 150.818 128.395 168.159Z" fill="black" fill-opacity="0.7"/>
</g>
<path d="M134.885 168.121C134.885 168.121 132.108 168.037 128.395 168.16C122.78 168.336 115.023 168.97 111.477 171.034L111.309 170.976L108.062 169.841L107.996 169.744C107.398 168.864 102.571 161.934 95.6762 159.114L85.9258 131.869C85.9258 131.869 96.0458 132.309 101.577 141.452L104.353 142.456C104.353 142.456 120.875 137.563 130.124 139.323L134.885 168.121Z" stroke="#263238" stroke-width="0.44" stroke-linecap="round" stroke-linejoin="round"/>
<path d="M104.363 142.459L110.73 168.872" stroke="#263238" stroke-width="0.44" stroke-linecap="round" stroke-linejoin="round"/>
<path d="M108.065 169.843L101.879 143.447" stroke="#263238" stroke-width="0.44" stroke-linecap="round" stroke-linejoin="round"/>
<path d="M92.348 158.421C90.9356 158.03 88.0888 149.542 89.3912 145.886C89.3912 145.886 90.94 143.197 91.5912 143.013C92.5768 142.727 96.5544 142.81 96.3608 143.479C95.9208 145.028 92.8672 145.001 92.8672 145.001L91.8772 146.814L91.9168 147.813C91.9168 147.813 93.3556 146.766 93.8836 146.797C94.1564 146.797 95.5644 147.501 96.682 148.09C97.6368 148.596 98.222 148.873 98.002 149.331C97.2936 150.853 94.2796 149.771 94.2796 149.771L93.1444 151.483C93.1444 151.483 94.24 151.672 94.7196 151.725C95.1992 151.777 99.1812 154.431 99.0624 154.761C98.5916 156.054 94.8164 154.655 94.8164 154.655L94.1476 155.214C94.1476 155.214 96.9284 155.931 97.2276 156.037C97.6676 156.199 99.3616 157.502 99.3352 157.651C99.1328 158.795 96.7964 157.955 96.7964 157.955L94.7504 157.871C94.4387 158.146 94.0638 158.34 93.6592 158.435" fill="white"/>
<path d="M92.348 158.421C90.9356 158.03 88.0888 149.542 89.3912 145.886C89.3912 145.886 90.94 143.197 91.5912 143.013C92.5768 142.727 96.5544 142.81 96.3608 143.479C95.9208 145.028 92.8672 145.001 92.8672 145.001L91.8772 146.814L91.9168 147.813C91.9168 147.813 93.3556 146.766 93.8836 146.797C94.1564 146.797 95.5644 147.501 96.682 148.09C97.6368 148.596 98.222 148.873 98.002 149.331C97.2936 150.853 94.2796 149.771 94.2796 149.771L93.1444 151.483C93.1444 151.483 94.24 151.672 94.7196 151.725C95.1992 151.777 99.1812 154.431 99.0624 154.761C98.5916 156.054 94.8164 154.655 94.8164 154.655L94.1476 155.214C94.1476 155.214 96.9284 155.931 97.2276 156.037C97.6676 156.199 99.3616 157.502 99.3352 157.651C99.1328 158.795 96.7964 157.955 96.7964 157.955L94.7504 157.871C94.4387 158.146 94.0638 158.34 93.6592 158.435" stroke="#263238" stroke-width="0.44" stroke-linecap="round" stroke-linejoin="round"/>
<path d="M91.8997 147.812C91.8997 147.812 90.5797 148.921 90.2409 149.242C89.9021 149.564 89.9857 150.584 89.9857 150.584" stroke="#263238" stroke-width="0.44" stroke-linecap="round" stroke-linejoin="round"/>
<path d="M90.9414 152.84C90.9414 153.957 91.6894 154.635 92.0326 154.996C92.3758 155.357 91.4826 156.338 92.4726 157.042" stroke="#263238" stroke-width="0.44" stroke-linecap="round" stroke-linejoin="round"/>
<path d="M156.113 188.264C153.319 189.025 150.283 184.114 146.579 178.755C144.132 175.235 141.395 171.482 138.249 169.075C137.999 168.886 137.743 168.701 137.488 168.525L139.327 159.285C143.147 161.287 145.514 164.495 149.478 167.79C155.858 173.101 161.512 176.362 163.079 178.711C164.645 181.061 160.901 186.957 156.113 188.264Z" fill="white"/>
<mask id="mask3_1580_53363" style="mask-type:luminance" maskUnits="userSpaceOnUse" x="137" y="159" width="27" height="30">
<path d="M156.113 188.266C153.319 189.027 150.283 184.116 146.579 178.757C144.132 175.237 141.395 171.484 138.249 169.077C137.999 168.888 137.743 168.703 137.488 168.527L139.327 159.287C143.147 161.289 145.514 164.497 149.478 167.792C155.858 173.103 161.512 176.364 163.079 178.713C164.645 181.063 160.901 186.959 156.113 188.266Z" fill="white"/>
</mask>
<g mask="url(#mask3_1580_53363)">
<path opacity="0.4" d="M146.583 178.752C144.137 175.232 141.4 171.478 138.254 169.072C138.668 169.093 139.083 169.03 139.473 168.887C139.473 168.887 144.445 172.922 146.583 178.752Z" fill="#004094"/>
</g>
<path d="M156.113 188.264C153.319 189.025 150.283 184.114 146.579 178.755C144.132 175.235 141.395 171.482 138.249 169.075C137.999 168.886 137.743 168.701 137.488 168.525L139.327 159.285C143.147 161.287 145.514 164.495 149.478 167.79C155.858 173.101 161.512 176.362 163.079 178.711C164.645 181.061 160.901 186.957 156.113 188.264Z" stroke="#263238" stroke-width="0.44" stroke-linecap="round" stroke-linejoin="round"/>
<path d="M140.363 168.16C140.172 168.502 139.857 168.757 139.483 168.873C139.383 168.912 139.282 168.946 139.179 168.974H139.096C136.143 169.744 129.499 168.142 129.499 168.142C129.499 168.142 125.148 166.074 124.884 165.586C124.7 165.199 124.537 164.802 124.395 164.398L124.276 164.05C124.276 164.05 122.71 163.17 122.516 162.484C122.323 161.798 121.993 161.604 122.956 161.481C123.92 161.358 129.116 161.481 129.116 161.481L123.462 159.175C123.462 159.175 119.718 157.288 119.37 156.623C119.023 155.959 118.587 155.519 120.501 155.783C122.415 156.047 126.595 157.261 126.595 157.261L129.891 157.961L126.617 156.566C126.617 156.566 120.176 155.787 121.394 153.785H125.051C127.122 153.877 129.182 154.139 131.211 154.568C132.276 154.894 139.316 159.268 139.316 159.268" fill="white"/>
<mask id="mask4_1580_53363" style="mask-type:luminance" maskUnits="userSpaceOnUse" x="119" y="153" width="22" height="17">
<path d="M140.363 168.162C140.172 168.504 139.857 168.759 139.483 168.875C139.383 168.914 139.282 168.947 139.179 168.976H139.096C136.143 169.746 129.499 168.144 129.499 168.144C129.499 168.144 125.148 166.076 124.884 165.588C124.7 165.201 124.537 164.804 124.395 164.4L124.276 164.052C124.276 164.052 122.71 163.172 122.516 162.486C122.323 161.8 121.993 161.606 122.956 161.483C123.92 161.36 129.116 161.483 129.116 161.483L123.462 159.177C123.462 159.177 119.718 157.29 119.37 156.625C119.023 155.961 118.587 155.521 120.501 155.785C122.415 156.049 126.595 157.263 126.595 157.263L129.891 157.963L126.617 156.568C126.617 156.568 120.176 155.789 121.394 153.787H125.051C127.122 153.879 129.182 154.141 131.211 154.57C132.276 154.896 139.316 159.27 139.316 159.27" fill="white"/>
</mask>
<g mask="url(#mask4_1580_53363)">
<path opacity="0.4" d="M139.083 168.992C136.131 169.762 129.487 168.16 129.487 168.16C129.487 168.16 125.135 166.092 124.871 165.604C124.687 165.217 124.524 164.82 124.383 164.416L129.724 165.001C129.538 165.338 129.44 165.716 129.44 166.101C129.44 166.486 129.538 166.865 129.724 167.201C130.318 168.27 137.086 169.353 139.083 168.992Z" fill="#004094"/>
</g>
<path d="M140.363 168.16C140.172 168.502 139.857 168.757 139.483 168.873C139.383 168.912 139.282 168.946 139.179 168.974H139.096C136.143 169.744 129.499 168.142 129.499 168.142C129.499 168.142 125.148 166.074 124.884 165.586C124.7 165.199 124.537 164.802 124.395 164.398L124.276 164.05C124.276 164.05 122.71 163.17 122.516 162.484C122.323 161.798 121.993 161.604 122.956 161.481C123.92 161.358 129.116 161.481 129.116 161.481L123.462 159.175C123.462 159.175 119.718 157.288 119.37 156.623C119.023 155.959 118.587 155.519 120.501 155.783C122.415 156.047 126.595 157.261 126.595 157.261L129.891 157.961L126.617 156.566C126.617 156.566 120.176 155.787 121.394 153.785H125.051C127.122 153.877 129.182 154.139 131.211 154.568C132.276 154.894 139.316 159.268 139.316 159.268" stroke="#263238" stroke-width="0.44" stroke-linecap="round" stroke-linejoin="round"/>
<path d="M124.266 164.066L130.694 165.012" stroke="#263238" stroke-width="0.44" stroke-linecap="round" stroke-linejoin="round"/>
<path d="M60.1836 183.752L76.2964 188.592L105.776 181.864C105.776 181.864 87.7716 176.752 87.6044 176.879C87.4372 177.007 60.1836 183.752 60.1836 183.752Z" fill="#004094"/>
<mask id="mask5_1580_53363" style="mask-type:luminance" maskUnits="userSpaceOnUse" x="60" y="176" width="46" height="13">
<path d="M60.1836 183.754L76.2964 188.594L105.776 181.866C105.776 181.866 87.7716 176.754 87.6044 176.881C87.4372 177.009 60.1836 183.754 60.1836 183.754Z" fill="white"/>
</mask>
<g mask="url(#mask5_1580_53363)">
<path opacity="0.3" d="M60.1836 183.754L76.2964 188.594L105.776 181.866C105.776 181.866 87.7716 176.754 87.6044 176.881C87.4372 177.009 60.1836 183.754 60.1836 183.754Z" fill="black" fill-opacity="0.7"/>
</g>
<path d="M60.1836 183.752L76.2964 188.592L105.776 181.864C105.776 181.864 87.7716 176.752 87.6044 176.879C87.4372 177.007 60.1836 183.752 60.1836 183.752Z" stroke="#263238" stroke-width="0.44" stroke-linecap="round" stroke-linejoin="round"/>
<path d="M60.4154 178.076C59.2846 178.155 59.003 182.23 60.1822 183.752L86.2126 178.349L88.2982 173.412L60.4154 178.076Z" fill="#004094"/>
<mask id="mask6_1580_53363" style="mask-type:luminance" maskUnits="userSpaceOnUse" x="59" y="173" width="30" height="11">
<path d="M60.4115 178.078C59.2807 178.157 58.9991 182.232 60.1783 183.754L86.2087 178.351L88.2943 173.414L60.4115 178.078Z" fill="white"/>
</mask>
<g mask="url(#mask6_1580_53363)">
<path opacity="0.3" d="M60.4115 178.078C59.2807 178.157 58.9991 182.232 60.1783 183.754L86.2087 178.351L88.2943 173.414L60.4115 178.078Z" fill="black" fill-opacity="0.7"/>
</g>
<path d="M60.4154 178.076C59.2846 178.155 59.003 182.23 60.1822 183.752L86.2126 178.349L88.2982 173.412L60.4154 178.076Z" stroke="#263238" stroke-width="0.44" stroke-linecap="round" stroke-linejoin="round"/>
<path d="M104.514 178.021C104.514 178.021 104.126 180.163 104.377 181.483L76.2655 187.846L61.4463 183.481C61.4463 183.481 59.9063 180.757 61.2483 178.641L88.3259 174.043L104.514 178.021Z" fill="white" stroke="#263238" stroke-width="0.44" stroke-linecap="round" stroke-linejoin="round"/>
<path d="M60.4141 178.076L88.2969 173.412L105.611 177.799L76.4917 183.603L60.4141 178.076Z" fill="#004094" stroke="#263238" stroke-width="0.44" stroke-linecap="round" stroke-linejoin="round"/>
<path d="M61.4062 180.681L76.1507 185.072L100.285 180.215" stroke="#263238" stroke-width="0.44" stroke-linecap="round" stroke-linejoin="round"/>
<path d="M104.299 180.664L78.3477 186.199" stroke="#263238" stroke-width="0.44" stroke-linecap="round" stroke-linejoin="round"/>
<path d="M61.7539 182.412C61.9783 182.434 72.8683 185.787 72.8683 185.787" stroke="#263238" stroke-width="0.44" stroke-linecap="round" stroke-linejoin="round"/>
<path d="M102.18 179.647L104.243 179.312" stroke="#263238" stroke-width="0.44" stroke-linecap="round" stroke-linejoin="round"/>
<path d="M75.6698 186.6L74.5742 186.354" stroke="#263238" stroke-width="0.44" stroke-linecap="round" stroke-linejoin="round"/>
<path d="M61.2493 178.641C61.8263 179.305 62.1602 180.146 62.1962 181.026C62.2322 181.905 61.9681 182.771 61.4473 183.481C60.9653 182.773 60.6912 181.944 60.6562 181.089C60.6212 180.233 60.8267 179.385 61.2493 178.641Z" fill="#263238"/>
<mask id="mask7_1580_53363" style="mask-type:luminance" maskUnits="userSpaceOnUse" x="60" y="178" width="3" height="6">
<path d="M61.2532 178.643C61.8302 179.307 62.1641 180.148 62.2001 181.028C62.2361 181.907 61.972 182.773 61.4512 183.483C60.9692 182.775 60.6951 181.946 60.6601 181.091C60.6251 180.235 60.8306 179.387 61.2532 178.643Z" fill="white"/>
</mask>
<g mask="url(#mask7_1580_53363)">
<path opacity="0.3" d="M61.2532 178.643C61.8302 179.307 62.1641 180.148 62.2001 181.028C62.2361 181.907 61.972 182.773 61.4512 183.483C60.9692 182.775 60.6951 181.946 60.6601 181.091C60.6251 180.235 60.8306 179.387 61.2532 178.643Z" fill="white" fill-opacity="0.7"/>
</g>
<path d="M61.2493 178.641C61.8263 179.305 62.1602 180.146 62.1962 181.026C62.2322 181.905 61.9681 182.771 61.4473 183.481C60.9653 182.773 60.6912 181.944 60.6562 181.089C60.6212 180.233 60.8267 179.385 61.2493 178.641Z" stroke="#263238" stroke-width="0.44" stroke-linecap="round" stroke-linejoin="round"/>
<path d="M121.472 185.072L149.61 186.225L146.869 195.909L112.254 194.589L121.472 185.072Z" fill="white"/>
<mask id="mask8_1580_53363" style="mask-type:luminance" maskUnits="userSpaceOnUse" x="112" y="185" width="38" height="11">
<path d="M121.472 185.072L149.61 186.225L146.869 195.909L112.254 194.589L121.472 185.072Z" fill="white"/>
</mask>
<g mask="url(#mask8_1580_53363)">
<path opacity="0.4" d="M121.472 185.072L149.61 186.225L146.869 195.909L112.254 194.589L121.472 185.072Z" fill="#004094"/>
</g>
<path d="M121.472 185.072L149.61 186.225L146.869 195.909L112.254 194.589L121.472 185.072Z" stroke="#263238" stroke-width="0.44" stroke-linecap="round" stroke-linejoin="round"/>
</svg>
