<svg width="224" height="211" viewBox="0 0 224 211" fill="none" xmlns="http://www.w3.org/2000/svg">
<path d="M203.876 27.011C201.103 26.4598 23.3462 26.556 19.68 27.011C14.99 27.5973 12.9512 31.806 12.5225 35.061C12.1725 37.7648 12.8725 107.625 13.0387 140.875H210.666C210.894 105.875 211.209 36.7498 210.413 34.1248C209.249 30.4323 206.842 27.606 203.876 27.011Z" fill="#191919"/>
<path d="M210.665 147.876H13.0199C11.1634 147.876 9.38289 147.138 8.07014 145.825C6.75738 144.513 6.01989 142.732 6.01989 140.876C5.96739 130.069 5.85364 115.387 5.74864 100.407C5.35489 48.4143 5.31989 36.033 5.56489 34.1255C6.56239 26.443 11.7511 20.913 18.7949 20.0293C21.8399 19.6443 90.9824 19.6005 112.096 19.5918C202.554 19.5918 204.356 19.933 205.231 20.108C210.656 21.193 215.092 25.6468 217.096 32.0343C217.595 33.6268 218.356 36.0418 217.674 140.884C217.672 141.804 217.49 142.714 217.137 143.562C216.785 144.411 216.268 145.182 215.617 145.831C214.966 146.481 214.194 146.995 213.344 147.346C212.495 147.697 211.584 147.877 210.665 147.876ZM19.9849 133.876H203.735C204.067 79.223 204.015 41.4318 203.586 35.7705C203.355 35.0885 202.979 34.4646 202.484 33.9418C189.236 33.5218 29.7586 33.5393 20.4836 33.9418C19.9061 34.108 19.6086 35.3155 19.5036 35.8055C19.3286 39.5768 19.5824 73.203 19.7836 100.302C19.8361 112.316 19.9236 124.102 19.9849 133.876Z" fill="#191919"/>
<path d="M153.39 192.333C152.716 191.816 133.694 177.335 133.116 176.723C132.539 176.11 125.67 164.796 125.504 156.711C125.25 144.129 92.2535 142.668 91.781 156.869C91.536 164.184 85.551 175.008 84.781 175.559C84.011 176.11 65.8285 191.624 65.3648 192.333C64.4898 193.208 64.866 201.581 65.2685 201.958C65.671 202.334 152.769 202.78 153.495 202.185C154.221 201.59 154.081 192.499 153.39 192.333Z" fill="#191919"/>
<path d="M127.375 209.501C121.854 209.501 115.694 209.501 109.245 209.501C98.2198 209.501 87.2123 209.387 79.0485 209.3C62.476 209.125 62.476 209.125 60.3148 206.937C58.1535 204.75 57.9173 202.466 57.8473 197.426C57.7773 192.648 58.171 189.63 60.411 187.39L60.4635 187.442C64.1298 183.75 76.0823 173.713 79.626 170.747C81.0873 168.367 84.6135 160.886 84.7535 156.642C85.0948 146.448 94.5885 139.623 108.326 139.746C122.326 139.833 132.275 146.746 132.467 156.581C132.563 161.28 136.562 169.19 138.303 171.972C139.721 173.092 144.026 176.435 156.495 185.972L157.431 186.69C159.014 187.834 160.095 189.545 160.45 191.467C160.821 193.71 160.979 195.984 160.922 198.257C160.922 202.151 160.634 205.31 158.009 207.567C155.812 209.448 155.812 209.448 139.467 209.527C135.993 209.501 131.899 209.501 127.375 209.501ZM72.626 195.247C88.9273 195.501 129.694 195.623 145.96 195.466C128.941 182.481 128.609 182.122 128.066 181.545C126.806 180.197 118.774 167.256 118.564 156.878C117.942 155.408 111.301 152.81 104.24 154.105C101.667 154.577 98.8848 155.723 98.8323 157.123C98.5785 164.92 92.7073 178.351 89.0935 181.151C87.676 182.21 77.2198 191.135 72.5735 195.212L72.626 195.247ZM80.7285 169.933C80.5177 170.088 80.3161 170.254 80.1248 170.432L80.7285 169.933Z" fill="#191919"/>
<path d="M13.1245 156.371C13.1245 159.661 14.7258 165.243 20.282 167.098C25.007 168.682 200.62 166.976 203.883 166.302C205.674 165.863 207.278 164.862 208.457 163.444C209.637 162.027 210.331 160.268 210.437 158.427C210.533 157.368 211.198 140.052 210.691 139.055C210.428 138.556 158.558 139.273 108.106 139.308C60.0945 139.308 13.3783 138.696 13.0458 139.063C12.3283 139.868 13.1245 155.75 13.1245 156.371Z" fill="#191919"/>
<path d="M60.5053 174.764C21.1303 174.764 19.3191 174.169 18.0328 173.74C9.82531 170.993 6.12406 163.091 6.12406 156.45C6.12406 156.275 6.12406 155.89 6.12406 155.356C5.43281 138.198 5.67781 136.876 7.87406 134.426C10.0703 131.976 12.3366 132.046 15.3116 132.011H21.7078C27.1153 132.011 34.8328 132.073 44.0378 132.125C61.2053 132.23 84.7166 132.388 108.14 132.361C129.832 132.361 151.987 132.204 169.793 132.081C181.667 132.003 191.922 131.941 199.167 131.924H207.733C211.609 131.976 214.952 132.02 216.938 135.826C217.813 137.576 218.093 138.521 217.813 148.899C217.708 153.274 217.507 158.218 217.437 159.058C217.182 162.391 215.869 165.556 213.689 168.09C211.509 170.624 208.576 172.396 205.318 173.145C201.634 173.906 116.33 174.51 112.699 174.528C90.3603 174.703 73.4116 174.764 60.5053 174.764ZM22.0753 160.291C26.7128 160.676 52.8753 160.965 113.119 160.545C158.339 160.23 197.189 159.67 202.579 159.39C202.845 159.228 203.065 159.001 203.219 158.73C203.372 158.459 203.453 158.153 203.454 157.841C203.533 156.756 203.752 150.684 203.839 145.915C196.48 145.915 183.417 145.976 169.828 146.064C152.004 146.178 129.832 146.326 108.097 146.344C84.6291 146.344 61.0916 146.213 43.8978 146.108C34.2116 146.046 25.3741 145.994 19.7741 145.985C19.7741 148.059 19.9053 150.903 20.0541 154.796C20.0541 155.671 20.1066 156.258 20.1066 156.371C20.1066 156.485 20.1241 159.25 22.0753 160.291Z" fill="#191919"/>
<path d="M203.876 27.011C201.103 26.4598 23.3462 26.556 19.68 27.011C14.99 27.5973 12.9512 31.386 12.5225 34.6235C12.1725 37.3273 12.8725 106.75 13.0387 140H210.666C210.894 105 211.209 36.2685 210.413 33.731C209.249 29.9948 206.842 27.606 203.876 27.011Z" fill="#0F50A6"/>
<path d="M153.39 192.333C152.716 191.816 133.694 177.335 133.116 176.723C132.539 176.11 125.67 164.796 125.504 156.711C125.25 144.129 92.2535 142.668 91.781 156.869C91.536 164.184 85.551 175.008 84.781 175.559C84.011 176.11 65.8285 191.624 65.3648 192.333C64.4898 193.208 64.866 201.581 65.2685 201.958C65.671 202.334 152.769 202.78 153.495 202.185C154.221 201.59 154.081 192.499 153.39 192.333Z" fill="white"/>
<path d="M13.1245 156.371C13.1245 159.661 14.7258 165.243 20.282 167.098C25.007 168.682 200.62 166.976 203.883 166.302C205.674 165.863 207.278 164.862 208.457 163.444C209.637 162.027 210.331 160.268 210.437 158.427C210.533 157.368 211.198 140.052 210.691 139.055C210.428 138.556 158.558 139.273 108.106 139.308C60.0945 139.308 13.3783 138.696 13.0458 139.063C12.3283 139.868 13.1245 155.75 13.1245 156.371Z" fill="white"/>
<path d="M79.2586 66.8751C74.7874 71.9064 74.4986 106.101 80.2649 111.133C83.1174 113.618 123.954 113.434 125.966 111.133C127.979 108.831 128.127 97.7714 130.437 100.073C132.747 102.374 139.957 108.551 142.119 110.126C144.28 111.701 146.844 112.349 147.745 107.256C148.62 102.374 148.322 70.0426 147.885 66.5951C147.491 63.4539 143.702 63.7251 141.252 66.0176C138.802 68.3101 131.627 74.4964 129.877 76.0714C128.127 77.6464 128.294 68.1964 125.844 66.1576C123.394 64.1189 83.0036 62.6576 79.2586 66.8751Z" fill="white"/>
</svg>
