<svg width="165" height="165" viewBox="0 0 165 165" fill="none" xmlns="http://www.w3.org/2000/svg">
<g clip-path="url(#clip0_648_68866)">
<path d="M70.4737 125.449L69.2963 127.476C66.0454 133.071 58.8718 134.972 53.2765 131.721C47.6813 128.47 45.7801 121.297 49.031 115.702L50.2084 113.675L61.6177 117.16L70.4737 125.449Z" fill="#EEF5FF"/>
<path d="M97.7073 127.448C101.281 115.18 106.333 103.388 112.754 92.335L115.369 87.8341C122.934 74.8136 120.17 58.6327 109.592 48.7918C107.894 47.2118 105.998 45.7958 103.909 44.5818L103.906 44.5807C101.817 43.3667 99.6459 42.4197 97.4324 41.7273C83.6429 37.4128 68.218 43.0232 60.6531 56.0436L57.7672 61.0107C51.435 71.9094 43.784 81.9849 34.9881 91.0076C34.9556 91.0402 34.9231 91.0729 34.8926 91.1067L66.9155 115.792L97.6694 127.583C97.6816 127.539 97.695 127.492 97.7073 127.448Z" fill="#DBE9FC"/>
<path d="M97.6699 127.583C99.7075 129.436 100.249 132.521 98.809 135C97.9801 136.426 96.6514 137.384 95.1723 137.774C93.6953 138.165 92.0677 137.995 90.641 137.166L70.4749 125.449L50.2096 113.675L30.0456 101.96C27.1923 100.302 26.2226 96.6431 27.8804 93.7897C28.7093 92.3631 30.038 91.4057 31.5171 91.0154C32.6085 90.7279 33.7805 90.7448 34.8919 91.1086L34.8931 91.1066C35.2872 91.2353 35.6756 91.4067 36.0505 91.6245L96.6458 126.831C97.0208 127.048 97.362 127.301 97.6699 127.583Z" fill="#EEF5FF"/>
<path d="M100.284 126.99C106.749 105.403 115.966 91.7812 117.394 89.0116C125.174 75.6199 122.751 59.0607 112.528 48.4024L115.544 43.2115C118.14 38.7417 116.617 32.9925 112.147 30.3956C107.677 27.7987 101.928 29.3223 99.3313 33.7921L96.3156 38.9826C81.9927 35.3785 66.4052 41.474 58.6242 54.8663C56.8332 57.6209 49.6778 72.3257 34.1109 88.5413C30.8907 88.1303 27.5827 89.6343 25.852 92.6131C23.5472 96.58 24.8994 101.682 28.8664 103.987L47.0038 114.525C43.1085 121.23 45.3939 129.853 52.0985 133.749C58.8031 137.644 67.4269 135.359 71.3222 128.654L89.4597 139.192C93.4267 141.497 98.529 140.145 100.834 136.178C102.563 133.201 102.233 129.584 100.284 126.99ZM103.384 36.1469C104.683 33.912 107.557 33.1502 109.792 34.4487C112.027 35.7472 112.789 38.6217 111.49 40.8566L108.972 45.1905C106.49 43.2474 103.787 41.6768 100.866 40.4806L103.384 36.1469ZM62.6772 57.2212C70.7926 43.2533 88.7588 38.4919 102.729 46.6086C116.696 54.7233 121.456 72.6889 113.341 86.6568C111.94 89.3765 102.961 102.609 96.3178 123.931L38.7579 90.4888C53.2274 75.2433 61.321 59.3059 62.6772 57.2212ZM54.4533 129.696C49.9836 127.099 48.46 121.35 51.0569 116.88L67.2692 126.299C64.6723 130.769 58.9229 132.293 54.4533 129.696ZM91.8146 135.139L31.2212 99.9341C29.4891 98.9277 28.8988 96.7 29.9051 94.9679C30.9114 93.2359 33.1392 92.6455 34.8712 93.6518L95.4646 128.857C97.1967 129.863 97.787 132.091 96.7807 133.823C95.7744 135.555 93.5464 136.145 91.8146 135.139Z" fill="#EEF5FF"/>
<path d="M137.716 90.8918C140.553 83.4249 141.68 75.2564 140.977 67.2691C140.863 65.9798 139.726 65.0265 138.437 65.1401C137.147 65.2536 136.194 66.3909 136.308 67.6806C136.949 74.9672 135.921 82.4179 133.334 89.2271C132.879 90.4274 133.473 91.7864 134.693 92.2505C135.903 92.71 137.257 92.1017 137.716 90.8918Z" fill="#EEF5FF"/>
<path d="M123.054 56.1853C128.135 67.5346 127.49 80.5026 121.246 91.2491C120.596 92.3684 120.976 93.8029 122.095 94.4531C123.214 95.1033 124.649 94.7232 125.299 93.604C132.311 81.5362 133.024 66.9832 127.332 54.2699C126.803 53.0885 125.417 52.5596 124.235 53.0884C123.054 53.6172 122.525 55.0039 123.054 56.1853Z" fill="#EEF5FF"/>
<path d="M68.7679 24.6615C68.2282 23.4849 66.8367 22.9692 65.6601 23.5088C58.3727 26.8532 51.8348 31.8786 46.7528 38.0409C45.9294 39.0395 46.0711 40.5167 47.0699 41.3404C48.0753 42.1688 49.551 42.0154 50.3692 41.0233C55.0037 35.4035 60.9672 30.8205 67.6152 27.7693C68.792 27.2294 69.308 25.8378 68.7679 24.6615Z" fill="#EEF5FF"/>
<path d="M51.3959 53.3767C52.5149 54.0269 53.9495 53.6469 54.5998 52.5276C60.8531 41.7647 71.808 34.7965 84.1662 33.5916C85.4544 33.4659 86.3971 32.3197 86.2714 31.0315C86.1457 29.7433 85 28.8007 83.7113 28.9264C69.8386 30.2789 57.5537 38.1126 50.5468 50.1727C49.8965 51.292 50.2768 52.7265 51.3959 53.3767Z" fill="#EEF5FF"/>
<path d="M98.0193 54.7139C107.518 60.2324 110.755 72.4494 105.237 81.9475C104.586 83.0668 104.967 84.5013 106.086 85.1515C107.205 85.8017 108.64 85.4216 109.29 84.3024C116.107 72.5694 112.107 57.4778 100.374 50.6608C99.2551 50.0106 97.8205 50.3907 97.1702 51.5099C96.5199 52.6292 96.9001 54.0636 98.0193 54.7139Z" fill="#EEF5FF"/>
</g>
<defs>
<clipPath id="clip0_648_68866">
<rect width="120" height="120" fill="white" transform="translate(60.2969) rotate(30.1568)"/>
</clipPath>
</defs>
</svg>
