<svg width="64" height="64" viewBox="0 0 64 64" fill="none" xmlns="http://www.w3.org/2000/svg">
<rect width="64" height="64" rx="32" fill="#FFEBE5"/>
<path d="M37.5516 7.83301H26.4349C25.9747 7.83301 25.6016 8.2061 25.6016 8.66634V11.9997C25.6016 12.4599 25.9747 12.833 26.4349 12.833H37.5516C38.0118 12.833 38.3849 12.4599 38.3849 11.9997V8.66634C38.3849 8.2061 38.0118 7.83301 37.5516 7.83301Z" fill="#F74B50"/>
<path d="M44.7502 56.1663H19.2502C18.5658 56.1379 17.8993 55.9388 17.3115 55.587C16.7237 55.2353 16.2331 54.7422 15.8845 54.1526C15.5358 53.5629 15.3401 52.8955 15.3152 52.2109C15.2903 51.5264 15.437 50.8464 15.7419 50.233L27.0002 31.6247C27.5455 30.4348 27.8296 29.1419 27.8335 27.833V12.833H36.1669V27.833C36.166 29.1531 36.4502 30.4579 37.0002 31.658L48.2585 50.233C48.5634 50.8464 48.7101 51.5264 48.6852 52.2109C48.6603 52.8955 48.4646 53.5629 48.1159 54.1526C47.7673 54.7422 47.2767 55.2353 46.6889 55.587C46.1011 55.9388 45.4346 56.1379 44.7502 56.1663Z" fill="#45D4D9"/>
<path d="M36.1687 12.833H27.8438V15.333H36.1687V12.833Z" fill="#2D95B5"/>
<path d="M44.7535 56.1663H19.2535C18.5693 56.1371 17.9031 55.9376 17.3154 55.586C16.7277 55.2343 16.237 54.7416 15.8878 54.1524C15.5386 53.5632 15.3419 52.8962 15.3155 52.2118C15.2892 51.5274 15.434 50.8473 15.7369 50.233L23.2369 37.833H40.7369L48.2369 50.233C48.5388 50.8448 48.684 51.5221 48.6593 52.2039C48.6346 52.8858 48.4408 53.5508 48.0954 54.1391C47.75 54.7275 47.2638 55.2208 46.6804 55.5746C46.0971 55.9285 45.4349 56.1318 44.7535 56.1663Z" fill="#8BD94F"/>
<path d="M42.8307 41.2663H21.1641L23.2391 37.833H40.7557L42.8307 41.2663Z" fill="#5FBF39"/>
<path d="M31.1654 35.3327C31.6256 35.3327 31.9987 34.9596 31.9987 34.4993C31.9987 34.0391 31.6256 33.666 31.1654 33.666C30.7051 33.666 30.332 34.0391 30.332 34.4993C30.332 34.9596 30.7051 35.3327 31.1654 35.3327Z" fill="#2C2A3D"/>
<path d="M32.8333 31.1667C33.2936 31.1667 33.6667 30.7936 33.6667 30.3333C33.6667 29.8731 33.2936 29.5 32.8333 29.5C32.3731 29.5 32 29.8731 32 30.3333C32 30.7936 32.3731 31.1667 32.8333 31.1667Z" fill="#2C2A3D"/>
<path d="M31.1654 26.9997C31.6256 26.9997 31.9987 26.6266 31.9987 26.1663C31.9987 25.7061 31.6256 25.333 31.1654 25.333C30.7051 25.333 30.332 25.7061 30.332 26.1663C30.332 26.6266 30.7051 26.9997 31.1654 26.9997Z" fill="#2C2A3D"/>
<path d="M48.8276 54.55C48.886 54.4417 48.9526 54.3333 49.0026 54.225C49.057 54.1113 49.1043 53.9945 49.1443 53.875C49.1443 53.7917 49.2193 53.7167 49.2443 53.6333C49.2693 53.55 49.3026 53.4 49.336 53.2917C49.3693 53.1833 49.386 53.1083 49.4026 53.0167C49.4193 52.925 49.4026 52.8583 49.4026 52.7833C49.4026 52.7083 49.4026 52.5167 49.4526 52.3833V52.3417C49.5002 51.4964 49.3399 50.6524 48.986 49.8833C48.986 49.8833 48.986 49.825 48.986 49.8L41.486 37.4L37.761 31.2333C37.2652 30.1679 37.0038 29.0085 36.9943 27.8333V13.6667H37.561C38.003 13.6667 38.4269 13.4911 38.7395 13.1785C39.052 12.866 39.2276 12.442 39.2276 12V8.66667C39.2276 8.22464 39.052 7.80072 38.7395 7.48816C38.4269 7.17559 38.003 7 37.561 7H26.436C25.9939 7 25.57 7.17559 25.2574 7.48816C24.9449 7.80072 24.7693 8.22464 24.7693 8.66667V12C24.7693 12.442 24.9449 12.866 25.2574 13.1785C25.57 13.4911 25.9939 13.6667 26.436 13.6667H26.9943V27.8333C26.9948 29.0185 26.739 30.1897 26.2443 31.2667L22.5193 37.4333L15.0193 49.8333V49.9167C14.6505 50.6706 14.4704 51.5028 14.4943 52.3417V52.3833C14.4943 52.5167 14.4943 52.65 14.5443 52.7833C14.5943 52.9167 14.5443 52.9333 14.5443 53.0167C14.5443 53.1 14.5943 53.2 14.611 53.2917C14.6276 53.3833 14.6693 53.5167 14.7026 53.6333C14.736 53.75 14.7693 53.7917 14.8026 53.875C14.8426 53.9945 14.8899 54.1113 14.9443 54.225C14.9943 54.3333 15.061 54.4417 15.1193 54.55L15.2526 54.7917C15.3368 54.922 15.4286 55.0472 15.5276 55.1667L15.6026 55.275C15.7193 55.4167 15.8443 55.5417 15.9693 55.6667L16.011 55.7167C16.8821 56.5467 18.0411 57.0067 19.2443 57H44.7443C45.9291 56.9961 47.0677 56.54 47.9276 55.725L47.9693 55.675C48.0943 55.55 48.2193 55.425 48.336 55.2833L48.411 55.175C48.51 55.0555 48.6018 54.9303 48.686 54.8L48.8276 54.55ZM26.436 8.66667H37.5526V12H26.436V8.66667ZM27.7026 32.0583C27.7054 32.0334 27.7054 32.0083 27.7026 31.9833C28.3189 30.6857 28.6459 29.2698 28.661 27.8333V13.6667H35.3276V27.8333C35.3299 29.2729 35.6455 30.6947 36.2526 32C36.2499 32.0249 36.2499 32.0501 36.2526 32.075L39.2776 37H24.711L27.7026 32.0583ZM19.2443 55.3333C18.4784 55.3338 17.7426 55.0348 17.1943 54.5C17.1123 54.4207 17.0344 54.3373 16.961 54.25C16.9408 54.218 16.9186 54.1873 16.8943 54.1583C16.836 54.075 16.7776 54.0083 16.7276 53.925L16.6276 53.75C16.6276 53.6833 16.5526 53.6167 16.5193 53.5417C16.4865 53.4743 16.4587 53.4047 16.436 53.3333C16.4073 53.2738 16.3823 53.2125 16.361 53.15C16.3405 53.0957 16.3238 53.04 16.311 52.9833C16.311 52.9 16.2693 52.8167 16.2526 52.7333C16.1229 52.0378 16.2102 51.3192 16.5026 50.675L23.7026 38.6667H40.3276L47.561 50.625C47.8534 51.2692 47.9407 51.9878 47.811 52.6833C47.811 52.7667 47.7693 52.85 47.7526 52.9333C47.7398 52.99 47.7231 53.0457 47.7026 53.1C47.6813 53.1625 47.6562 53.2238 47.6276 53.2833C47.6049 53.3547 47.5771 53.4243 47.5443 53.4917C47.5443 53.5667 47.4693 53.6333 47.436 53.7L47.336 53.875C47.286 53.9583 47.2276 54.025 47.1693 54.1083C47.145 54.1373 47.1227 54.168 47.1026 54.2C47.0292 54.2873 46.9513 54.3707 46.8693 54.45C46.321 54.9848 45.5852 55.2838 44.8193 55.2833L19.2443 55.3333Z" fill="#2C2A3D"/>
</svg>
