<svg width="41" height="41" viewBox="0 0 41 41" fill="none" xmlns="http://www.w3.org/2000/svg">
<path d="M25.368 24.6516L14.068 13.3516L13.4992 14.5516L21.6617 22.7141C21.9445 22.9975 22.155 23.3448 22.2756 23.7265C22.3962 24.1083 22.4234 24.5135 22.3548 24.908C22.2862 25.3024 22.1238 25.6746 21.8814 25.9933C21.639 26.3119 21.3236 26.5677 20.9617 26.7391L14.9617 29.5828C14.2929 29.9002 13.5623 30.0663 12.822 30.0692C12.0816 30.0721 11.3498 29.9119 10.6784 29.5998C10.0071 29.2877 9.41278 28.8314 8.93783 28.2635C8.46287 27.6956 8.11892 27.03 7.93047 26.3141L2.13672 38.5328L27.3305 26.6141L25.368 24.6516Z" fill="#CFF09E"/>
<path d="M25.9922 25.2766L18.9234 18.2078L12.5734 16.5078L10.3984 21.1016L25.9922 25.2766Z" fill="#79BD9A"/>
<path d="M21.6656 29.2953L8.22188 25.6953L6.04688 30.2828L14.6844 32.6016L21.6656 29.2953Z" fill="#79BD9A"/>
<path d="M2.13672 38.5434L7.70547 35.9059L3.87422 34.8809L2.13672 38.5434Z" fill="#79BD9A"/>
<path d="M28.9757 27.3734C29.0318 27.163 29.0318 26.9415 28.9759 26.7311C28.92 26.5206 28.8101 26.3284 28.657 26.1734L14.507 12.0297C14.3521 11.8766 14.1599 11.7667 13.9494 11.7108C13.7389 11.6549 13.5175 11.6549 13.307 11.7109C13.3553 11.5277 13.4427 11.3572 13.5632 11.2109C13.3598 11.4503 13.2539 11.7574 13.2667 12.0712C13.2794 12.3851 13.4098 12.6826 13.632 12.9047L27.7695 27.0484C27.9918 27.2724 28.2907 27.4039 28.606 27.4167C28.9213 27.4294 29.2298 27.3224 29.4695 27.1172C29.3251 27.2369 29.1567 27.3243 28.9757 27.3734Z" fill="#CFF09E"/>
<path d="M37.4789 3.19922L36.4289 6.29922L38.3852 8.92422L35.1164 8.88047L33.2227 11.5492L32.2539 8.42422L29.1289 7.45547L31.7977 5.56797L31.7539 2.29297L34.3789 4.24922L37.4789 3.19922Z" fill="#CFF09E"/>
<path d="M15.8456 10.6985C15.4902 10.3673 15.02 10.187 14.5343 10.1956C14.0485 10.2042 13.5851 10.401 13.2415 10.7445C12.898 11.088 12.7012 11.5515 12.6927 12.0372C12.6841 12.523 12.8644 12.9931 13.1956 13.3485L13.3268 13.4798L11.6268 17.0673L9.84559 20.8173L3.32684 34.5673L1.57059 38.2735C1.52806 38.3681 1.50974 38.4718 1.51728 38.5753C1.52482 38.6787 1.55799 38.7787 1.6138 38.8661C1.66961 38.9535 1.74629 39.0257 1.83695 39.0761C1.9276 39.1265 2.02938 39.1535 2.13309 39.1548C2.22637 39.1556 2.31849 39.1342 2.40184 39.0923L18.1268 31.6548L21.9268 29.8548L27.1893 27.3548L27.3206 27.486C27.4922 27.6703 27.6992 27.818 27.9292 27.9205C28.1592 28.023 28.4075 28.0781 28.6593 28.0825C28.911 28.087 29.1611 28.0407 29.3946 27.9463C29.6281 27.852 29.8401 27.7117 30.0182 27.5336C30.1962 27.3556 30.3366 27.1435 30.4309 26.91C30.5252 26.6766 30.5715 26.4265 30.5671 26.1747C30.5626 25.923 30.5075 25.6747 30.405 25.4447C30.3026 25.2147 30.1548 25.0077 29.9706 24.836L15.8456 10.6985ZM23.9018 24.0673L11.2831 20.686L12.9143 17.2423L18.5956 18.761L20.9456 21.111L23.9018 24.0673ZM13.4581 16.0923L14.2518 14.4173L16.8268 16.9985L13.4581 16.0923ZM15.8956 31.3298L14.6456 31.9548L6.95809 29.8923L8.58934 26.4485L19.8831 29.4735L15.8956 31.3298ZM7.64559 35.2423L4.75809 34.4673L6.38934 31.0298L12.8768 32.7673L7.64559 35.2423ZM3.44559 37.2298L4.21434 35.6173L5.89559 36.0673L3.44559 37.2298ZM21.6018 28.6298L9.10184 25.2798L10.7331 21.836L25.6581 25.836L26.2518 26.4235L21.6018 28.6298ZM29.1018 26.611C29.0437 26.6696 28.9746 26.7161 28.8985 26.7478C28.8223 26.7796 28.7406 26.7959 28.6581 26.7959C28.5756 26.7959 28.4939 26.7796 28.4177 26.7478C28.3416 26.7161 28.2724 26.6696 28.2143 26.611L27.7706 26.1673L21.1393 19.536L14.0643 12.4673C14.0058 12.4092 13.9593 12.3401 13.9275 12.2639C13.8958 12.1877 13.8795 12.106 13.8795 12.0235C13.8795 11.941 13.8958 11.8593 13.9275 11.7832C13.9593 11.707 14.0058 11.6379 14.0643 11.5798C14.1224 11.5212 14.1916 11.4747 14.2677 11.443C14.3439 11.4113 14.4256 11.3949 14.5081 11.3949C14.5906 11.3949 14.6723 11.4113 14.7485 11.443C14.8246 11.4747 14.8937 11.5212 14.9518 11.5798L29.0956 25.7235C29.1542 25.7816 29.2007 25.8508 29.2324 25.9269C29.2641 26.0031 29.2805 26.0848 29.2805 26.1673C29.2805 26.2498 29.2641 26.3315 29.2324 26.4077C29.2007 26.4838 29.1542 26.5529 29.0956 26.611H29.1018Z" fill="#00A32E"/>
<path d="M28.9723 8.05062L31.7848 8.92562L32.6598 11.7381C32.6946 11.8495 32.7598 11.9489 32.8482 12.0252C32.9366 12.1014 33.0445 12.1513 33.1598 12.1694H33.2535C33.3537 12.1699 33.4526 12.1463 33.5418 12.1007C33.631 12.055 33.7079 11.9885 33.766 11.9069L35.466 9.50687H38.4098C38.5266 9.51379 38.6428 9.48527 38.7432 9.42505C38.8436 9.36483 38.9234 9.27572 38.9723 9.16937C39.0169 9.06516 39.0323 8.95079 39.0169 8.83849C39.0015 8.7262 38.9558 8.62021 38.8848 8.53187L37.1285 6.18812L38.0723 3.40062C38.1102 3.28999 38.1162 3.17096 38.0898 3.05705C38.0634 2.94314 38.0056 2.83892 37.9229 2.75623C37.8402 2.67355 37.736 2.61572 37.6221 2.58932C37.5082 2.56291 37.3892 2.56899 37.2785 2.60687L34.491 3.53187L32.1285 1.79437C32.0365 1.72707 31.9279 1.68622 31.8143 1.67623C31.7008 1.66624 31.5866 1.6875 31.4843 1.73771C31.3819 1.78792 31.2953 1.86515 31.2337 1.96107C31.1721 2.05698 31.1379 2.16792 31.1348 2.28187L31.1723 5.22562L28.766 6.92562C28.6658 6.99372 28.5875 7.08951 28.5407 7.20132C28.4939 7.31313 28.4806 7.43613 28.5024 7.55535C28.5243 7.67458 28.5803 7.78487 28.6638 7.8728C28.7472 7.96074 28.8544 8.02252 28.9723 8.05062ZM32.1598 6.07562C32.2423 6.01689 32.3093 5.93899 32.355 5.84863C32.4008 5.75826 32.4238 5.65813 32.4223 5.55687V3.55062L34.0035 4.78187C34.0894 4.84099 34.1888 4.87768 34.2925 4.8886C34.3962 4.89952 34.501 4.88431 34.5973 4.84437L36.4723 4.21937L35.8473 6.09437C35.815 6.19062 35.8067 6.29328 35.8231 6.39346C35.8394 6.49365 35.8799 6.58835 35.941 6.66937L37.141 8.27562H35.1348C35.031 8.27025 34.9274 8.29087 34.8336 8.33562C34.7397 8.38036 34.6585 8.44782 34.5973 8.53187L33.441 10.1569L32.8473 8.24437C32.8173 8.14725 32.764 8.05892 32.6921 7.98704C32.6202 7.91516 32.5319 7.8619 32.4348 7.83187L30.5223 7.20687L32.1598 6.07562Z" fill="#00A32E"/>
<path d="M19.3247 11.9943C19.2043 12.0625 19.1099 12.1688 19.0564 12.2964C19.0029 12.424 18.9933 12.5658 19.029 12.6995C19.0648 12.8332 19.1439 12.9512 19.2539 13.0351C19.364 13.119 19.4988 13.164 19.6372 13.163C19.7467 13.1638 19.8544 13.1358 19.9497 13.0818C20.8739 12.5484 21.6841 11.8381 22.3338 10.9916C22.9836 10.145 23.4602 9.17878 23.7364 8.14802C24.0127 7.11726 24.0832 6.04217 23.9439 4.98416C23.8046 3.92614 23.4583 2.90593 22.9247 1.98178C22.8856 1.90709 22.8318 1.84108 22.7666 1.78771C22.7013 1.73434 22.626 1.69472 22.545 1.67123C22.4641 1.64775 22.3792 1.64088 22.2955 1.65104C22.2118 1.66121 22.1311 1.6882 22.0581 1.73038C21.9851 1.77256 21.9214 1.82907 21.8709 1.89651C21.8203 1.96395 21.7839 2.04092 21.7638 2.12279C21.7438 2.20466 21.7405 2.28975 21.7542 2.37292C21.7678 2.4561 21.7982 2.53565 21.8434 2.60678C22.7537 4.18579 22.9997 6.06162 22.5274 7.82194C22.0551 9.58226 20.9031 11.083 19.3247 11.9943Z" fill="#00A32E"/>
<path d="M38.9264 18.613C38.9677 18.5416 38.9945 18.4628 39.0052 18.3811C39.016 18.2993 39.0104 18.2163 38.9889 18.1367C38.9675 18.0571 38.9304 17.9826 38.88 17.9173C38.8296 17.8521 38.7667 17.7975 38.6951 17.7567C37.771 17.2231 36.7508 16.8768 35.6927 16.7375C34.6347 16.5982 33.5596 16.6687 32.5289 16.945C31.4981 17.2212 30.5319 17.6978 29.6853 18.3476C28.8388 18.9973 28.1285 19.8074 27.5951 20.7317C27.5122 20.8759 27.49 21.0471 27.5334 21.2077C27.5768 21.3683 27.6822 21.5051 27.8264 21.588C27.9706 21.6708 28.1418 21.693 28.3024 21.6497C28.463 21.6063 28.5997 21.5009 28.6826 21.3567C29.597 19.7849 31.0968 18.6393 32.8539 18.1707C34.6109 17.7022 36.482 17.9489 38.0576 18.8567C38.1302 18.8995 38.2107 18.9272 38.2943 18.9381C38.3779 18.949 38.4628 18.9429 38.544 18.9201C38.6251 18.8974 38.7009 18.8584 38.7666 18.8056C38.8323 18.7528 38.8866 18.6873 38.9264 18.613Z" fill="#00A32E"/>
<path d="M24.1927 16.4873C24.2511 16.5452 24.3203 16.5911 24.3965 16.6222C24.4726 16.6533 24.5542 16.669 24.6364 16.6686C24.7187 16.669 24.8002 16.6533 24.8764 16.6222C24.9525 16.5911 25.0218 16.5452 25.0802 16.4873L29.4552 12.1123C29.5729 11.9946 29.639 11.835 29.639 11.6686C29.639 11.5021 29.5729 11.3425 29.4552 11.2248C29.3375 11.1071 29.1779 11.041 29.0114 11.041C28.845 11.041 28.6854 11.1071 28.5677 11.2248L24.1927 15.5998C24.1341 15.6579 24.0876 15.7271 24.0559 15.8032C24.0241 15.8794 24.0078 15.9611 24.0078 16.0436C24.0078 16.1261 24.0241 16.2078 24.0559 16.2839C24.0876 16.3601 24.1341 16.4292 24.1927 16.4873Z" fill="#00A32E"/>
<path d="M17.5312 9.78103C17.6048 9.81013 17.6833 9.82497 17.7624 9.82478C17.8876 9.8249 18.01 9.78743 18.1136 9.71723C18.2172 9.64703 18.2974 9.54732 18.3437 9.43103L19.5937 6.30603C19.6241 6.2297 19.6391 6.14813 19.6379 6.06599C19.6368 5.98385 19.6195 5.90274 19.587 5.82729C19.5545 5.75185 19.5074 5.68354 19.4485 5.62627C19.3896 5.569 19.32 5.5239 19.2437 5.49353C19.1674 5.46316 19.0858 5.44813 19.0037 5.44928C18.9215 5.45043 18.8404 5.46776 18.765 5.50026C18.6895 5.53276 18.6212 5.5798 18.5639 5.6387C18.5067 5.6976 18.4616 5.7672 18.4312 5.84353L17.1812 8.96853C17.1508 9.04485 17.1357 9.12643 17.1368 9.20859C17.1379 9.29076 17.1552 9.37189 17.1877 9.44736C17.2202 9.52283 17.2673 9.59114 17.3262 9.6484C17.3852 9.70565 17.4548 9.75072 17.5312 9.78103Z" fill="#00A32E"/>
<path d="M33.7773 21.7131L30.6523 22.9631C30.5242 23.0211 30.4195 23.1205 30.3549 23.2454C30.2904 23.3703 30.2698 23.5132 30.2966 23.6512C30.3233 23.7892 30.3958 23.9142 30.5023 24.0059C30.6088 24.0977 30.7431 24.1508 30.8835 24.1568C30.9628 24.158 31.0414 24.1431 31.1148 24.1131L34.2398 22.8631C34.3939 22.8017 34.5174 22.6817 34.5831 22.5293C34.6487 22.3769 34.6511 22.2047 34.5898 22.0506C34.5284 21.8964 34.4084 21.7729 34.256 21.7073C34.1036 21.6417 33.9314 21.6392 33.7773 21.7006V21.7131Z" fill="#00A32E"/>
<path d="M36.5117 15.4062C36.6775 15.4062 36.8364 15.3404 36.9537 15.2232C37.0709 15.106 37.1367 14.947 37.1367 14.7812V14.1562H37.7617C37.9275 14.1562 38.0864 14.0904 38.2037 13.9732C38.3209 13.856 38.3867 13.697 38.3867 13.5312C38.3867 13.3655 38.3209 13.2065 38.2037 13.0893C38.0864 12.9721 37.9275 12.9062 37.7617 12.9062H37.1367V12.2812C37.1367 12.1155 37.0709 11.9565 36.9537 11.8393C36.8364 11.7221 36.6775 11.6562 36.5117 11.6562C36.346 11.6562 36.187 11.7221 36.0698 11.8393C35.9526 11.9565 35.8867 12.1155 35.8867 12.2812V12.9062H35.2617C35.096 12.9062 34.937 12.9721 34.8198 13.0893C34.7026 13.2065 34.6367 13.3655 34.6367 13.5312C34.6367 13.697 34.7026 13.856 34.8198 13.9732C34.937 14.0904 35.096 14.1562 35.2617 14.1562H35.8867V14.7812C35.8867 14.947 35.9526 15.106 36.0698 15.2232C36.187 15.3404 36.346 15.4062 36.5117 15.4062Z" fill="#00A32E"/>
<path d="M25.5545 5.23537C25.671 5.35083 25.8281 5.41593 25.992 5.41662C26.0743 5.4171 26.1558 5.40133 26.232 5.37023C26.3081 5.33912 26.3774 5.2933 26.4358 5.23537L26.8795 4.77912L27.317 5.22287C27.3754 5.2808 27.4447 5.32662 27.5209 5.35773C27.597 5.38883 27.6785 5.4046 27.7608 5.40412C27.8431 5.4046 27.9246 5.38883 28.0007 5.35773C28.0769 5.32662 28.1461 5.2808 28.2045 5.22287C28.2631 5.16477 28.3096 5.09564 28.3414 5.01948C28.3731 4.94332 28.3894 4.86163 28.3894 4.77912C28.3894 4.69661 28.3731 4.61492 28.3414 4.53876C28.3096 4.4626 28.2631 4.39347 28.2045 4.33537L27.7608 3.89162L28.2045 3.45412C28.3222 3.33643 28.3884 3.17681 28.3884 3.01037C28.3884 2.84393 28.3222 2.68431 28.2045 2.56662C28.0869 2.44893 27.9272 2.38281 27.7608 2.38281C27.5944 2.38281 27.4347 2.44893 27.317 2.56662L26.8795 3.01037L26.4358 2.56662C26.3187 2.45021 26.1603 2.38487 25.9952 2.38487C25.8301 2.38487 25.6716 2.45021 25.5545 2.56662C25.496 2.62472 25.4495 2.69385 25.4177 2.77001C25.386 2.84617 25.3697 2.92786 25.3697 3.01037C25.3697 3.09288 25.386 3.17457 25.4177 3.25073C25.4495 3.32689 25.496 3.39602 25.5545 3.45412L25.992 3.89162L25.5545 4.33537C25.4941 4.39367 25.4459 4.46357 25.4131 4.54089C25.3802 4.61821 25.3633 4.70136 25.3633 4.78537C25.3633 4.86938 25.3802 4.95253 25.4131 5.02985C25.4459 5.10717 25.4941 5.17707 25.5545 5.23537Z" fill="#00A32E"/>
<path d="M29.0088 15.408C29.0042 15.4901 29.0159 15.5722 29.0432 15.6498C29.0704 15.7273 29.1127 15.7988 29.1675 15.86C29.2224 15.9212 29.2887 15.971 29.3628 16.0066C29.4369 16.0422 29.5173 16.0628 29.5994 16.0674C29.6815 16.0719 29.7636 16.0602 29.8412 16.0329C29.9187 16.0057 29.9902 15.9634 30.0514 15.9086C30.1126 15.8538 30.1624 15.7874 30.198 15.7133C30.2336 15.6392 30.2542 15.5588 30.2588 15.4767C30.2679 15.311 30.2108 15.1484 30.1 15.0247C29.9892 14.9011 29.8339 14.8265 29.6681 14.8174C29.5024 14.8082 29.3398 14.8653 29.2161 14.9761C29.0925 15.0869 29.0179 15.2422 29.0088 15.408Z" fill="#00A32E"/>
<path d="M25.8867 10.418C26.2319 10.418 26.5117 10.1381 26.5117 9.79297C26.5117 9.44779 26.2319 9.16797 25.8867 9.16797C25.5415 9.16797 25.2617 9.44779 25.2617 9.79297C25.2617 10.1381 25.5415 10.418 25.8867 10.418Z" fill="#00A32E"/>
<path d="M19.0117 3.54297C19.3569 3.54297 19.6367 3.26315 19.6367 2.91797C19.6367 2.57279 19.3569 2.29297 19.0117 2.29297C18.6665 2.29297 18.3867 2.57279 18.3867 2.91797C18.3867 3.26315 18.6665 3.54297 19.0117 3.54297Z" fill="#00A32E"/>
<path d="M38.3867 22.293C38.7319 22.293 39.0117 22.0131 39.0117 21.668C39.0117 21.3228 38.7319 21.043 38.3867 21.043C38.0415 21.043 37.7617 21.3228 37.7617 21.668C37.7617 22.0131 38.0415 22.293 38.3867 22.293Z" fill="#00A32E"/>
<path d="M23.3867 14.168C23.7319 14.168 24.0117 13.8881 24.0117 13.543C24.0117 13.1978 23.7319 12.918 23.3867 12.918C23.0415 12.918 22.7617 13.1978 22.7617 13.543C22.7617 13.8881 23.0415 14.168 23.3867 14.168Z" fill="#00A32E"/>
</svg>
