<svg width="64" height="64" viewBox="0 0 64 64" fill="none" xmlns="http://www.w3.org/2000/svg">
<path d="M32 64C14.3296 64 0 49.6704 0 32C0 14.3296 14.3296 0 32 0C49.6704 0 64 14.3296 64 32C64 49.6704 49.6704 64 32 64Z" fill="#25D366"/>
<path fillRule="evenodd" clipRule="evenodd" d="M46.9699 17.1008C43.0019 13.1264 37.7155 10.9376 32.0899 10.9312C20.4995 10.9312 11.0595 20.3648 11.0595 31.9616C11.0595 35.6672 12.0259 39.2896 13.8691 42.4768L10.8867 53.376L22.0355 50.4512C25.1075 52.128 28.5635 53.0112 32.0835 53.0112H32.0899C43.6803 53.0112 53.1139 43.5776 53.1203 31.9808C53.1267 26.3616 50.9443 21.0752 46.9699 17.1008ZM32.0963 49.4592H32.0899C28.9539 49.4592 25.8755 48.6144 23.1939 47.0208L22.5539 46.6432L15.9363 48.3776L17.7027 41.9264L17.2867 41.2672C15.5395 38.4832 14.6115 35.2704 14.6115 31.9616C14.6179 22.3232 22.4579 14.4832 32.1027 14.4832C36.7747 14.4832 41.1587 16.3072 44.4611 19.6096C47.7635 22.912 49.5811 27.3088 49.5747 31.9744C49.5747 41.6192 41.7283 49.4592 32.0963 49.4592ZM41.6835 36.3648C41.1587 36.1024 38.5731 34.8288 38.0931 34.656C37.6131 34.4832 37.2611 34.3936 36.9091 34.9184C36.5571 35.4432 35.5523 36.6272 35.2451 36.9792C34.9379 37.3312 34.6307 37.376 34.1059 37.1136C33.5811 36.8512 31.8851 36.2944 29.8819 34.5024C28.3203 33.1072 27.2643 31.3856 26.9571 30.8608C26.6499 30.336 26.9251 30.048 27.1875 29.7856C27.4243 29.5488 27.7123 29.1712 27.9747 28.864C28.2371 28.5568 28.3267 28.3392 28.4995 27.9872C28.6723 27.6352 28.5891 27.328 28.4547 27.0656C28.3203 26.8032 27.2707 24.2176 26.8355 23.1616C26.4067 22.1376 25.9779 22.2784 25.6515 22.2592C25.3443 22.2464 24.9923 22.24 24.6467 22.24C24.2947 22.24 23.7251 22.3744 23.2451 22.8992C22.7651 23.424 21.4083 24.6976 21.4083 27.2832C21.4083 29.8688 23.2899 32.3712 23.5523 32.7168C23.8147 33.0688 27.2579 38.3744 32.5315 40.6528C33.7859 41.1968 34.7651 41.5168 35.5267 41.76C36.7875 42.1632 37.9331 42.1056 38.8355 41.9712C39.8467 41.8176 41.9459 40.6976 42.3811 39.4752C42.8163 38.2464 42.8163 37.1968 42.6883 36.9792C42.5603 36.7616 42.2083 36.6336 41.6835 36.3648Z" fill="white"/>
</svg>