<svg width="32" height="32" viewBox="0 0 32 32" fill="none" xmlns="http://www.w3.org/2000/svg">
<path d="M25.576 5.54545C26.0604 5.54545 26.4544 5.9395 26.4544 6.42384V25.5762C26.4544 26.0605 26.0604 26.4545 25.576 26.4545H6.42371C5.93937 26.4545 5.54533 26.0605 5.54533 25.5762V6.42384C5.54533 5.9395 5.93937 5.54545 6.42371 5.54545H25.576ZM25.576 4.5H6.42371C5.36121 4.5 4.49988 5.36133 4.49988 6.42384V25.5762C4.49988 26.6387 5.36121 27.5 6.42371 27.5H25.576C26.6385 27.5 27.4999 26.6387 27.4999 25.5762V6.42384C27.4999 5.36133 26.6385 4.5 25.576 4.5Z" fill="#1E1F24"/>
<path d="M17.7382 15.5052L22.5783 10H21.4315L17.227 14.7791L13.8713 10H10L15.0756 17.2275L10 23H11.1468L15.5841 17.9519L19.1287 23H23L17.7382 15.5052ZM16.167 17.2909L15.652 16.5708L11.5603 10.846H13.322L16.6251 15.4678L17.138 16.1879L21.431 22.1953H19.6693L16.167 17.2909Z" fill="#1E1F24"/>
</svg>
